pt-serif_caption.sfdir

StartChar: exclam
Encoding: 33 33 4
Width: 368
Flags: W
LayerCount: 2
Fore
SplineSet
195 218 m 1,0,-1
 157 395 l 1,1,-1
 157 700 l 1,2,-1
 262 700 l 1,3,-1
 262 395 l 1,4,-1
 225 218 l 1,5,-1
 195 218 l 1,0,-1
133 58 m 0,6,7
 133 89 133 89 154.5 107 c 128,-1,8
 176 125 176 125 210 125 c 0,9,10
 245 125 245 125 267 107 c 128,-1,11
 289 89 289 89 289 58 c 0,12,13
 289 28 289 28 267 10 c 128,-1,14
 245 -8 245 -8 210 -8 c 0,15,16
 176 -8 176 -8 154.5 10 c 128,-1,17
 133 28 133 28 133 58 c 0,6,7
EndSplineSet
EndChar

StartChar: numbersign
Encoding: 35 35 6
Width: 600
Flags: W
LayerCount: 2
Fore
SplineSet
345 233 m 1,0,-1
 185 233 l 1,1,-1
 139 58 l 1,2,-1
 80 58 l 1,3,-1
 126 233 l 1,4,-1
 36 233 l 1,5,-1
 53 280 l 1,6,-1
 138 280 l 1,7,-1
 178 429 l 1,8,-1
 92 429 l 1,9,-1
 109 476 l 1,10,-1
 192 476 l 1,11,-1
 236 642 l 1,12,-1
 295 642 l 1,13,-1
 251 476 l 1,14,-1
 410 476 l 1,15,-1
 455 642 l 1,16,-1
 514 642 l 1,17,-1
 469 476 l 1,18,-1
 559 476 l 1,19,-1
 539 429 l 1,20,-1
 456 429 l 1,21,-1
 416 280 l 1,22,-1
 503 280 l 1,23,-1
 482 233 l 1,24,-1
 404 233 l 1,25,-1
 358 58 l 1,26,-1
 299 58 l 1,27,-1
 345 233 l 1,0,-1
197 280 m 1,28,-1
 357 280 l 1,29,-1
 397 429 l 1,30,-1
 237 429 l 1,31,-1
 197 280 l 1,28,-1
EndSplineSet
EndChar

StartChar: dollar
Encoding: 36 36 7
Width: 600
Flags: W
LayerCount: 2
Fore
SplineSet
267 -12 m 1,0,1
 233 -12 233 -12 203 -6 c 128,-1,2
 173 0 173 0 148.5 9.5 c 128,-1,3
 124 19 124 19 105 29.5 c 128,-1,4
 86 40 86 40 74 49 c 1,5,-1
 74 188 l 1,6,-1
 146 188 l 1,7,-1
 146 88 l 1,8,-1
 166 62 l 1,9,10
 184 53 184 53 205 47 c 128,-1,11
 226 41 226 41 267 40 c 1,12,-1
 267 324 l 1,13,14
 266 324 266 324 259 326.5 c 128,-1,15
 252 329 252 329 225 340 c 0,16,17
 192 353 192 353 162 369 c 128,-1,18
 132 385 132 385 108.5 407.5 c 128,-1,19
 85 430 85 430 71 460.5 c 128,-1,20
 57 491 57 491 57 533 c 0,21,22
 57 569 57 569 72.5 600 c 128,-1,23
 88 631 88 631 116 655 c 128,-1,24
 144 679 144 679 182.5 693.5 c 128,-1,25
 221 708 221 708 267 711 c 1,26,-1
 267 760 l 1,27,-1
 327 760 l 1,28,-1
 327 711 l 1,29,30
 381 708 381 708 419.5 698.5 c 128,-1,31
 458 689 458 689 488 676 c 1,32,-1
 488 545 l 1,33,-1
 416 545 l 1,34,-1
 416 627 l 1,35,-1
 396 647 l 1,36,37
 361 659 361 659 327 659 c 1,38,-1
 327 393 l 1,39,40
 375 373 375 373 415 354 c 128,-1,41
 455 335 455 335 484 311 c 128,-1,42
 513 287 513 287 529 254.5 c 128,-1,43
 545 222 545 222 545 176 c 0,44,45
 545 102 545 102 487.5 52 c 128,-1,46
 430 2 430 2 327 -9 c 1,47,-1
 327 -70 l 1,48,-1
 267 -70 l 1,49,-1
 267 -12 l 1,0,1
440 168 m 0,50,51
 440 194 440 194 431 214 c 128,-1,52
 422 234 422 234 406.5 249.5 c 128,-1,53
 391 265 391 265 370 277.5 c 128,-1,54
 349 290 349 290 325 300 c 1,55,-1
 325 46 l 1,56,57
 376 58 376 58 408 89 c 128,-1,58
 440 120 440 120 440 168 c 0,50,51
162 550 m 0,59,60
 162 498 162 498 192.5 468 c 128,-1,61
 223 438 223 438 269 416 c 1,62,-1
 269 658 l 1,63,64
 219 653 219 653 190.5 622.5 c 128,-1,65
 162 592 162 592 162 550 c 0,59,60
EndSplineSet
EndChar

StartChar: ampersand
Encoding: 38 38 9
Width: 977
Flags: W
LayerCount: 2
Fore
SplineSet
605 123 m 1,0,1
 571 150 571 150 531.5 186.5 c 128,-1,2
 492 223 492 223 455 260.5 c 128,-1,3
 418 298 418 298 387 333 c 128,-1,4
 356 368 356 368 339 391 c 1,5,6
 292 350 292 350 270 310.5 c 128,-1,7
 248 271 248 271 248 219 c 0,8,9
 248 181 248 181 262 148.5 c 128,-1,10
 276 116 276 116 301 92.5 c 128,-1,11
 326 69 326 69 361 55.5 c 128,-1,12
 396 42 396 42 437 42 c 0,13,14
 486 42 486 42 529 62 c 128,-1,15
 572 82 572 82 605 123 c 1,0,1
319 583 m 0,16,17
 319 565 319 565 327 545 c 128,-1,18
 335 525 335 525 347.5 504.5 c 128,-1,19
 360 484 360 484 375.5 465.5 c 128,-1,20
 391 447 391 447 405 432 c 1,21,22
 446 462 446 462 468 499.5 c 128,-1,23
 490 537 490 537 490 594 c 0,24,25
 490 626 490 626 469 648 c 128,-1,26
 448 670 448 670 404 670 c 0,27,28
 380 670 380 670 363.5 662.5 c 128,-1,29
 347 655 347 655 337.5 642.5 c 128,-1,30
 328 630 328 630 323.5 614.5 c 128,-1,31
 319 599 319 599 319 583 c 0,16,17
780 0 m 1,32,33
 757 14 757 14 721.5 34.5 c 128,-1,34
 686 55 686 55 644 90 c 1,35,36
 629 72 629 72 605 54 c 128,-1,37
 581 36 581 36 549.5 21 c 128,-1,38
 518 6 518 6 478.5 -3 c 128,-1,39
 439 -12 439 -12 394 -12 c 0,40,41
 333 -12 333 -12 284.5 4.5 c 128,-1,42
 236 21 236 21 202.5 48 c 128,-1,43
 169 75 169 75 151 110 c 128,-1,44
 133 145 133 145 133 183 c 0,45,46
 133 232 133 232 153 271 c 128,-1,47
 173 310 173 310 200.5 340 c 128,-1,48
 228 370 228 370 258.5 390.5 c 128,-1,49
 289 411 289 411 310 424 c 1,50,51
 278 456 278 456 255.5 498.5 c 128,-1,52
 233 541 233 541 233 578 c 0,53,54
 233 603 233 603 244 627.5 c 128,-1,55
 255 652 255 652 277 670.5 c 128,-1,56
 299 689 299 689 331 700.5 c 128,-1,57
 363 712 363 712 404 712 c 0,58,59
 479 712 479 712 525 683 c 128,-1,60
 571 654 571 654 571 600 c 0,61,62
 571 567 571 567 558 539 c 128,-1,63
 545 511 545 511 525 487 c 128,-1,64
 505 463 505 463 479.5 443 c 128,-1,65
 454 423 454 423 429 406 c 1,66,67
 475 355 475 355 535 301.5 c 128,-1,68
 595 248 595 248 662 194 c 1,69,70
 670 204 670 204 682 226.5 c 128,-1,71
 694 249 694 249 705 280 c 128,-1,72
 716 311 716 311 724 347.5 c 128,-1,73
 732 384 732 384 732 422 c 0,74,75
 732 429 732 429 732 436 c 128,-1,76
 732 443 732 443 731 450 c 1,77,-1
 665 450 l 1,78,-1
 665 500 l 1,79,-1
 895 500 l 1,80,-1
 895 450 l 1,81,-1
 820 450 l 1,82,83
 810 392 810 392 795 344 c 128,-1,84
 780 296 780 296 763.5 259.5 c 128,-1,85
 747 223 747 223 731.5 197.5 c 128,-1,86
 716 172 716 172 707 160 c 1,87,88
 749 129 749 129 790 102 c 128,-1,89
 831 75 831 75 881 50 c 1,90,-1
 942 50 l 1,91,-1
 942 0 l 1,92,-1
 780 0 l 1,32,33
EndSplineSet
EndChar

StartChar: quotesingle
Encoding: 39 39 10
Width: 272
Flags: W
LayerCount: 2
Fore
SplineSet
72 750 m 1,0,-1
 200 750 l 1,1,-1
 165 492 l 1,2,-1
 107 492 l 1,3,-1
 72 750 l 1,0,-1
EndSplineSet
Substitution2: "'c2sc' Capitals to Small Capitals lookup 12 subtable" uniF634
Substitution2: "'aalt' Access All Alternates lookup 0 subtable" uniF634
EndChar

StartChar: parenleft
Encoding: 40 40 11
Width: 389
Flags: W
LayerCount: 2
Fore
SplineSet
341 -210 m 1,0,1
 284 -174 284 -174 234 -130 c 128,-1,2
 184 -86 184 -86 147 -31.5 c 128,-1,3
 110 23 110 23 88.5 91 c 128,-1,4
 67 159 67 159 67 243 c 0,5,6
 67 325 67 325 89 391.5 c 128,-1,7
 111 458 111 458 148.5 513 c 128,-1,8
 186 568 186 568 236.5 614 c 128,-1,9
 287 660 287 660 344 702 c 1,10,-1
 372 672 l 1,11,12
 327 629 327 629 289.5 585.5 c 128,-1,13
 252 542 252 542 225 492 c 128,-1,14
 198 442 198 442 183 381 c 128,-1,15
 168 320 168 320 168 243 c 0,16,17
 168 169 168 169 184 107.5 c 128,-1,18
 200 46 200 46 227.5 -5 c 128,-1,19
 255 -56 255 -56 291.5 -98.5 c 128,-1,20
 328 -141 328 -141 370 -177 c 1,21,-1
 341 -210 l 1,0,1
EndSplineSet
Position2: "'case' Case-Sensitive Forms lookup 1 per glyph data 3" dx=0 dy=100 dh=0 dv=0
EndChar

StartChar: parenright
Encoding: 41 41 12
Width: 389
Flags: W
LayerCount: 2
Fore
SplineSet
20 -180 m 1,0,1
 62 -144 62 -144 98.5 -99.5 c 128,-1,2
 135 -55 135 -55 162.5 -1.5 c 128,-1,3
 190 52 190 52 205.5 115.5 c 128,-1,4
 221 179 221 179 221 253 c 0,5,6
 221 330 221 330 206 389 c 128,-1,7
 191 448 191 448 164 497 c 128,-1,8
 137 546 137 546 99.5 587.5 c 128,-1,9
 62 629 62 629 17 672 c 1,10,-1
 45 702 l 1,11,12
 103 664 103 664 153.5 619.5 c 128,-1,13
 204 575 204 575 241.5 521 c 128,-1,14
 279 467 279 467 300.5 401 c 128,-1,15
 322 335 322 335 322 253 c 0,16,17
 322 170 322 170 301.5 101.5 c 128,-1,18
 281 33 281 33 244 -24 c 128,-1,19
 207 -81 207 -81 157 -127 c 128,-1,20
 107 -173 107 -173 47 -210 c 1,21,-1
 20 -180 l 1,0,1
EndSplineSet
Position2: "'case' Case-Sensitive Forms lookup 1 per glyph data 3" dx=0 dy=100 dh=0 dv=0
EndChar

StartChar: asterisk
Encoding: 42 42 13
Width: 522
Flags: W
LayerCount: 2
Fore
SplineSet
465 507 m 1,0,-1
 399 397 l 1,1,-1
 296 510 l 1,2,-1
 312 538 l 1,3,-1
 465 507 l 1,0,-1
398 695 m 1,4,-1
 464 586 l 1,5,-1
 313 556 l 1,6,-1
 295 581 l 1,7,-1
 398 695 l 1,4,-1
195 743 m 1,8,-1
 323 743 l 1,9,-1
 276 595 l 1,10,-1
 241 595 l 1,11,-1
 195 743 l 1,8,-1
60 583 m 1,12,-1
 124 693 l 1,13,-1
 224 582 l 1,14,-1
 208 556 l 1,15,-1
 60 583 l 1,12,-1
123 397 m 1,16,-1
 60 505 l 1,17,-1
 209 540 l 1,18,-1
 224 511 l 1,19,-1
 123 397 l 1,16,-1
326 349 m 1,20,-1
 199 349 l 1,21,-1
 243 497 l 1,22,-1
 278 497 l 1,23,-1
 326 349 l 1,20,-1
EndSplineSet
EndChar

StartChar: plus
Encoding: 43 43 14
Width: 600
Flags: W
LayerCount: 2
Fore
SplineSet
48 371 m 1,0,-1
 270 371 l 1,1,-1
 270 580 l 1,2,-1
 330 580 l 1,3,-1
 330 371 l 1,4,-1
 552 371 l 1,5,-1
 552 317 l 1,6,-1
 330 317 l 1,7,-1
 330 102 l 1,8,-1
 270 102 l 1,9,-1
 270 317 l 1,10,-1
 48 317 l 1,11,-1
 48 371 l 1,0,-1
EndSplineSet
EndChar

StartChar: comma
Encoding: 44 44 15
Width: 319
Flags: W
LayerCount: 2
Fore
SplineSet
61 -144 m 1,0,1
 82 -137 82 -137 99.5 -122.5 c 128,-1,2
 117 -108 117 -108 130.5 -90 c 128,-1,3
 144 -72 144 -72 151.5 -51 c 128,-1,4
 159 -30 159 -30 159 -9 c 2,5,-1
 159 0 l 1,6,-1
 89 0 l 1,7,8
 79 16 79 16 75 30 c 128,-1,9
 71 44 71 44 71 58 c 0,10,11
 71 75 71 75 76 90 c 128,-1,12
 81 105 81 105 89 120 c 1,13,-1
 215 120 l 1,14,15
 225 95 225 95 229 71.5 c 128,-1,16
 233 48 233 48 233 26 c 0,17,18
 233 -14 233 -14 220.5 -48 c 128,-1,19
 208 -82 208 -82 186.5 -108.5 c 128,-1,20
 165 -135 165 -135 137.5 -153 c 128,-1,21
 110 -171 110 -171 80 -179 c 1,22,-1
 61 -144 l 1,0,1
EndSplineSet
EndChar

StartChar: hyphen
Encoding: 45 45 16
Width: 475
Flags: W
LayerCount: 2
Fore
SplineSet
80 314 m 1,0,-1
 396 314 l 1,1,-1
 396 250 l 1,2,-1
 80 250 l 1,3,-1
 80 314 l 1,0,-1
EndSplineSet
Position2: "'case' Case-Sensitive Forms lookup 1 per glyph data 2" dx=0 dy=80 dh=0 dv=0
EndChar

StartChar: period
Encoding: 46 46 17
Width: 314
Flags: W
LayerCount: 2
Fore
SplineSet
80 58 m 0,0,1
 80 89 80 89 101 107 c 128,-1,2
 122 125 122 125 157 125 c 256,3,4
 192 125 192 125 214 107 c 128,-1,5
 236 89 236 89 236 58 c 0,6,7
 236 28 236 28 214 10 c 128,-1,8
 192 -8 192 -8 157 -8 c 256,9,10
 122 -8 122 -8 101 10 c 128,-1,11
 80 28 80 28 80 58 c 0,0,1
EndSplineSet
EndChar

StartChar: slash
Encoding: 47 47 18
Width: 386
Flags: W
LayerCount: 2
Fore
SplineSet
366 713 m 1,0,-1
 415 694 l 1,1,-1
 5 -130 l 1,2,-1
 -43 -110 l 1,3,-1
 366 713 l 1,0,-1
EndSplineSet
EndChar

StartChar: zero
Encoding: 48 48 19
Width: 600
Flags: W
LayerCount: 2
Fore
SplineSet
37 350 m 0,0,1
 37 530 37 530 105.5 621 c 128,-1,2
 174 712 174 712 300 712 c 0,3,4
 435 712 435 712 499 622.5 c 128,-1,5
 563 533 563 533 563 350 c 0,6,7
 563 170 563 170 494 79 c 128,-1,8
 425 -12 425 -12 293 -12 c 0,9,10
 224 -12 224 -12 175.5 12.5 c 128,-1,11
 127 37 127 37 96.5 83.5 c 128,-1,12
 66 130 66 130 51.5 197 c 128,-1,13
 37 264 37 264 37 350 c 0,0,1
149 350 m 0,14,15
 149 278 149 278 156.5 219 c 128,-1,16
 164 160 164 160 181.5 118 c 128,-1,17
 199 76 199 76 226 53 c 128,-1,18
 253 30 253 30 292 30 c 0,19,20
 380 30 380 30 415.5 107.5 c 128,-1,21
 451 185 451 185 451 350 c 0,22,23
 451 422 451 422 444.5 481 c 128,-1,24
 438 540 438 540 420.5 582 c 128,-1,25
 403 624 403 624 374 647 c 128,-1,26
 345 670 345 670 300 670 c 0,27,28
 217 670 217 670 183 592.5 c 128,-1,29
 149 515 149 515 149 350 c 0,14,15
EndSplineSet
EndChar

StartChar: one
Encoding: 49 49 20
Width: 600
Flags: W
LayerCount: 2
Fore
SplineSet
479 0 m 1,0,-1
 148 0 l 1,1,-1
 148 64 l 1,2,-1
 262 64 l 1,3,-1
 262 628 l 1,4,-1
 144 566 l 1,5,-1
 117 615 l 1,6,-1
 262 700 l 1,7,-1
 367 700 l 1,8,-1
 367 64 l 1,9,-1
 479 64 l 1,10,-1
 479 0 l 1,0,-1
EndSplineSet
Substitution2: "'sups' Superscript lookup 13 subtable" onesuperior
Substitution2: "'sinf' Scientific Inferiors lookup 6 subtable" uni2081
Substitution2: "'subs' Subscript lookup 5 subtable" uni2081
Substitution2: "'numr' Numerators lookup 4 subtable" one.numerator
AlternateSubs2: "'aalt' Access All Alternates lookup 1 subtable" one.numerator uni2081 onesuperior
EndChar

StartChar: two
Encoding: 50 50 21
Width: 600
Flags: W
LayerCount: 2
Fore
SplineSet
170 533 m 1,0,-1
 74 533 l 1,1,-1
 74 644 l 1,2,3
 113 674 113 674 168 692 c 128,-1,4
 223 710 223 710 289 710 c 0,5,6
 345 710 345 710 386 696 c 128,-1,7
 427 682 427 682 453.5 658.5 c 128,-1,8
 480 635 480 635 492.5 604 c 128,-1,9
 505 573 505 573 505 538 c 0,10,11
 505 475 505 475 474 412 c 128,-1,12
 443 349 443 349 396 293 c 128,-1,13
 349 237 349 237 293 190 c 128,-1,14
 237 143 237 143 186 110 c 2,15,-1
 164 96 l 2,16,17
 156 91 156 91 148 85.5 c 128,-1,18
 140 80 140 80 137 78 c 1,19,-1
 137 74 l 1,20,-1
 202 80 l 1,21,-1
 434 80 l 1,22,-1
 454 100 l 1,23,-1
 454 196 l 1,24,-1
 518 196 l 1,25,-1
 518 0 l 1,26,-1
 64 0 l 1,27,-1
 64 84 l 1,28,29
 90 99 90 99 124.5 124 c 128,-1,30
 159 149 159 149 196 182 c 128,-1,31
 233 215 233 215 269 254.5 c 128,-1,32
 305 294 305 294 333 337.5 c 128,-1,33
 361 381 361 381 378.5 426.5 c 128,-1,34
 396 472 396 472 396 518 c 0,35,36
 396 547 396 547 387.5 572 c 128,-1,37
 379 597 379 597 362.5 616 c 128,-1,38
 346 635 346 635 321.5 645.5 c 128,-1,39
 297 656 297 656 266 656 c 0,40,41
 233 656 233 656 211.5 651 c 128,-1,42
 190 646 190 646 170 638 c 1,43,-1
 170 533 l 1,0,-1
EndSplineSet
Substitution2: "'sups' Superscript lookup 13 subtable" twosuperior
Substitution2: "'sinf' Scientific Inferiors lookup 6 subtable" uni2082
Substitution2: "'subs' Subscript lookup 5 subtable" uni2082
AlternateSubs2: "'aalt' Access All Alternates lookup 1 subtable" uni2082 twosuperior
EndChar

StartChar: three
Encoding: 51 51 22
Width: 600
Flags: W
LayerCount: 2
Fore
SplineSet
271 44 m 0,0,1
 308 44 308 44 338 55.5 c 128,-1,2
 368 67 368 67 390 87 c 128,-1,3
 412 107 412 107 424 133.5 c 128,-1,4
 436 160 436 160 436 191 c 0,5,6
 436 227 436 227 423 254.5 c 128,-1,7
 410 282 410 282 387.5 300.5 c 128,-1,8
 365 319 365 319 335 328.5 c 128,-1,9
 305 338 305 338 271 338 c 2,10,-1
 200 338 l 1,11,-1
 200 406 l 1,12,-1
 425 622 l 1,13,-1
 425 626 l 1,14,-1
 365 620 l 1,15,-1
 164 620 l 1,16,-1
 144 600 l 1,17,-1
 144 520 l 1,18,-1
 80 520 l 1,19,-1
 80 700 l 1,20,-1
 512 700 l 1,21,-1
 512 622 l 1,22,-1
 324 446 l 2,23,24
 312 435 312 435 301 425 c 0,25,26
 292 417 292 417 284.5 410 c 128,-1,27
 277 403 277 403 275 402 c 1,28,-1
 275 400 l 1,29,30
 276 400 276 400 282 401 c 128,-1,31
 288 402 288 402 295 404 c 0,32,33
 303 406 303 406 313 407 c 1,34,35
 366 405 366 405 409 391.5 c 128,-1,36
 452 378 452 378 483 352.5 c 128,-1,37
 514 327 514 327 530.5 290.5 c 128,-1,38
 547 254 547 254 547 206 c 0,39,40
 547 156 547 156 525.5 116 c 128,-1,41
 504 76 504 76 467 48 c 128,-1,42
 430 20 430 20 380 5 c 128,-1,43
 330 -10 330 -10 273 -10 c 0,44,45
 247 -10 247 -10 217.5 -6 c 128,-1,46
 188 -2 188 -2 160 4.5 c 128,-1,47
 132 11 132 11 107.5 20.5 c 128,-1,48
 83 30 83 30 67 42 c 1,49,-1
 67 160 l 1,50,-1
 163 160 l 1,51,-1
 163 71 l 1,52,53
 177 61 177 61 206.5 52.5 c 128,-1,54
 236 44 236 44 271 44 c 0,0,1
EndSplineSet
Substitution2: "'sups' Superscript lookup 13 subtable" threesuperior
Substitution2: "'sinf' Scientific Inferiors lookup 6 subtable" uni2083
Substitution2: "'subs' Subscript lookup 5 subtable" uni2083
AlternateSubs2: "'aalt' Access All Alternates lookup 1 subtable" uni2083 threesuperior
EndChar

StartChar: four
Encoding: 52 52 23
Width: 600
Flags: W
LayerCount: 2
Fore
SplineSet
548 0 m 1,0,-1
 254 0 l 1,1,-1
 254 64 l 1,2,-1
 357 64 l 1,3,-1
 357 193 l 1,4,-1
 14 193 l 1,5,-1
 14 257 l 1,6,-1
 357 700 l 1,7,-1
 462 700 l 1,8,-1
 462 257 l 1,9,-1
 586 257 l 1,10,-1
 586 193 l 1,11,-1
 462 193 l 1,12,-1
 462 64 l 1,13,-1
 548 64 l 1,14,-1
 548 0 l 1,0,-1
357 549 m 1,15,-1
 364 621 l 1,16,-1
 361 621 l 1,17,-1
 322 549 l 1,18,-1
 114 283 l 1,19,-1
 77 250 l 1,20,-1
 149 257 l 1,21,-1
 357 257 l 1,22,-1
 357 549 l 1,15,-1
EndSplineSet
Substitution2: "'sinf' Scientific Inferiors lookup 6 subtable" uni2084
Substitution2: "'subs' Subscript lookup 5 subtable" uni2084
Substitution2: "'aalt' Access All Alternates lookup 0 subtable" uni2084
EndChar

StartChar: five
Encoding: 53 53 24
Width: 600
Flags: W
LayerCount: 2
Fore
SplineSet
438 750 m 1,0,-1
 502 750 l 1,1,-1
 502 620 l 1,2,-1
 197 620 l 1,3,-1
 197 430 l 1,4,-1
 261 430 l 2,5,6
 317 430 317 430 364 416 c 128,-1,7
 411 402 411 402 444.5 376 c 128,-1,8
 478 350 478 350 496.5 311 c 128,-1,9
 515 272 515 272 515 223 c 0,10,11
 515 165 515 165 492.5 121.5 c 128,-1,12
 470 78 470 78 433 48.5 c 128,-1,13
 396 19 396 19 347.5 4.5 c 128,-1,14
 299 -10 299 -10 248 -10 c 0,15,16
 202 -10 202 -10 158 0 c 128,-1,17
 114 10 114 10 82 33 c 1,18,-1
 82 140 l 1,19,-1
 178 140 l 1,20,-1
 178 53 l 1,21,22
 189 51 189 51 208 47.5 c 128,-1,23
 227 44 227 44 247 44 c 0,24,25
 284 44 284 44 314 55.5 c 128,-1,26
 344 67 344 67 365.5 88 c 128,-1,27
 387 109 387 109 398.5 137.5 c 128,-1,28
 410 166 410 166 410 201 c 0,29,30
 410 241 410 241 394 269.5 c 128,-1,31
 378 298 378 298 350 316.5 c 128,-1,32
 322 335 322 335 284.5 343.5 c 128,-1,33
 247 352 247 352 204 352 c 2,34,-1
 133 352 l 1,35,-1
 133 700 l 1,36,-1
 418 700 l 1,37,-1
 438 720 l 1,38,-1
 438 750 l 1,0,-1
EndSplineSet
EndChar

StartChar: six
Encoding: 54 54 25
Width: 600
Flags: W
LayerCount: 2
Fore
SplineSet
565 212 m 0,0,1
 565 165 565 165 547 124 c 128,-1,2
 529 83 529 83 496.5 53 c 128,-1,3
 464 23 464 23 418 5.5 c 128,-1,4
 372 -12 372 -12 315 -12 c 0,5,6
 252 -12 252 -12 203 7.5 c 128,-1,7
 154 27 154 27 121 62 c 128,-1,8
 88 97 88 97 71 145 c 128,-1,9
 54 193 54 193 54 250 c 0,10,11
 54 344 54 344 88.5 421 c 128,-1,12
 123 498 123 498 181 556 c 128,-1,13
 239 614 239 614 314 652 c 128,-1,14
 389 690 389 690 470 707 c 1,15,-1
 484 657 l 1,16,17
 432 642 432 642 379.5 615 c 128,-1,18
 327 588 327 588 283.5 549 c 128,-1,19
 240 510 240 510 209.5 459 c 128,-1,20
 179 408 179 408 172 345 c 1,21,22
 181 358 181 358 197.5 371 c 128,-1,23
 214 384 214 384 236 394 c 128,-1,24
 258 404 258 404 285.5 410.5 c 128,-1,25
 313 417 313 417 344 417 c 0,26,27
 392 417 392 417 433 403 c 128,-1,28
 474 389 474 389 503 363 c 128,-1,29
 532 337 532 337 548.5 299 c 128,-1,30
 565 261 565 261 565 212 c 0,0,1
453 203 m 0,31,32
 453 275 453 275 415.5 319 c 128,-1,33
 378 363 378 363 310 363 c 0,34,35
 257 363 257 363 221 340 c 128,-1,36
 185 317 185 317 168 288 c 1,37,38
 166 274 166 274 166 255 c 128,-1,39
 166 236 166 236 166 225 c 0,40,41
 166 193 166 193 175.5 159.5 c 128,-1,42
 185 126 185 126 204 98.5 c 128,-1,43
 223 71 223 71 252.5 53 c 128,-1,44
 282 35 282 35 321 35 c 0,45,46
 356 35 356 35 381 49.5 c 128,-1,47
 406 64 406 64 422 88 c 128,-1,48
 438 112 438 112 445.5 142 c 128,-1,49
 453 172 453 172 453 203 c 0,31,32
EndSplineSet
EndChar

StartChar: seven
Encoding: 55 55 26
Width: 600
Flags: W
LayerCount: 2
Fore
SplineSet
135 519 m 1,0,-1
 71 519 l 1,1,-1
 71 700 l 1,2,-1
 541 700 l 1,3,-1
 541 621 l 1,4,-1
 290 0 l 1,5,-1
 184 0 l 1,6,-1
 460 578 l 1,7,-1
 494 625 l 1,8,-1
 437 620 l 1,9,-1
 155 620 l 1,10,-1
 135 600 l 1,11,-1
 135 519 l 1,0,-1
EndSplineSet
EndChar

StartChar: eight
Encoding: 56 56 27
Width: 600
Flags: W
LayerCount: 2
Fore
SplineSet
55 157 m 0,0,1
 55 191 55 191 67.5 221.5 c 128,-1,2
 80 252 80 252 102.5 277.5 c 128,-1,3
 125 303 125 303 155 323.5 c 128,-1,4
 185 344 185 344 220 359 c 1,5,6
 157 388 157 388 120.5 429 c 128,-1,7
 84 470 84 470 84 536 c 0,8,9
 84 575 84 575 99.5 607 c 128,-1,10
 115 639 115 639 144 662.5 c 128,-1,11
 173 686 173 686 214.5 699 c 128,-1,12
 256 712 256 712 307 712 c 0,13,14
 407 712 407 712 462.5 667.5 c 128,-1,15
 518 623 518 623 518 553 c 0,16,17
 518 495 518 495 480.5 446.5 c 128,-1,18
 443 398 443 398 378 374 c 1,19,20
 457 336 457 336 502.5 288.5 c 128,-1,21
 548 241 548 241 548 171 c 0,22,23
 548 133 548 133 531.5 100 c 128,-1,24
 515 67 515 67 482.5 42 c 128,-1,25
 450 17 450 17 403 2.5 c 128,-1,26
 356 -12 356 -12 295 -12 c 256,27,28
 234 -12 234 -12 189 2 c 128,-1,29
 144 16 144 16 114 39 c 128,-1,30
 84 62 84 62 69.5 93 c 128,-1,31
 55 124 55 124 55 157 c 0,0,1
445 153 m 0,32,33
 445 187 445 187 430 214 c 128,-1,34
 415 241 415 241 389.5 262.5 c 128,-1,35
 364 284 364 284 331.5 302 c 128,-1,36
 299 320 299 320 263 335 c 1,37,38
 232 318 232 318 211 297.5 c 128,-1,39
 190 277 190 277 177.5 254.5 c 128,-1,40
 165 232 165 232 160 210 c 128,-1,41
 155 188 155 188 155 169 c 0,42,43
 155 145 155 145 163 121 c 128,-1,44
 171 97 171 97 188.5 78 c 128,-1,45
 206 59 206 59 234.5 47 c 128,-1,46
 263 35 263 35 304 35 c 0,47,48
 339 35 339 35 365.5 45.5 c 128,-1,49
 392 56 392 56 409.5 72.5 c 128,-1,50
 427 89 427 89 436 110.5 c 128,-1,51
 445 132 445 132 445 153 c 0,32,33
187 550 m 0,52,53
 187 520 187 520 199 496.5 c 128,-1,54
 211 473 211 473 231.5 455 c 128,-1,55
 252 437 252 437 279 422 c 128,-1,56
 306 407 306 407 336 394 c 1,57,58
 383 428 383 428 400.5 461.5 c 128,-1,59
 418 495 418 495 418 536 c 0,60,61
 418 598 418 598 388.5 631.5 c 128,-1,62
 359 665 359 665 305 665 c 0,63,64
 275 665 275 665 253 655 c 128,-1,65
 231 645 231 645 216.5 629 c 128,-1,66
 202 613 202 613 194.5 592.5 c 128,-1,67
 187 572 187 572 187 550 c 0,52,53
EndSplineSet
EndChar

StartChar: nine
Encoding: 57 57 28
Width: 600
Flags: W
LayerCount: 2
Fore
SplineSet
52 487 m 256,0,1
 52 536 52 536 69 577 c 128,-1,2
 86 618 86 618 118 648 c 128,-1,3
 150 678 150 678 197 695 c 128,-1,4
 244 712 244 712 304 712 c 0,5,6
 370 712 370 712 417.5 692.5 c 128,-1,7
 465 673 465 673 496.5 638 c 128,-1,8
 528 603 528 603 543 552.5 c 128,-1,9
 558 502 558 502 558 441 c 0,10,11
 558 348 558 348 526 269.5 c 128,-1,12
 494 191 494 191 439 131.5 c 128,-1,13
 384 72 384 72 310.5 35.5 c 128,-1,14
 237 -1 237 -1 153 -10 c 1,15,-1
 139 40 l 1,16,17
 271 66 271 66 346.5 146 c 128,-1,18
 422 226 422 226 440 339 c 1,19,20
 414 315 414 315 378.5 298.5 c 128,-1,21
 343 282 343 282 284 282 c 0,22,23
 233 282 233 282 190.5 295.5 c 128,-1,24
 148 309 148 309 117.5 335.5 c 128,-1,25
 87 362 87 362 69.5 400 c 128,-1,26
 52 438 52 438 52 487 c 256,0,1
164 488 m 0,27,28
 164 459 164 459 174 431.5 c 128,-1,29
 184 404 184 404 202.5 383 c 128,-1,30
 221 362 221 362 247.5 349 c 128,-1,31
 274 336 274 336 307 336 c 0,32,33
 359 336 359 336 394 352 c 128,-1,34
 429 368 429 368 446 393 c 1,35,36
 448 406 448 406 448.5 425 c 128,-1,37
 449 444 449 444 449 456 c 0,38,39
 449 492 449 492 441 529.5 c 128,-1,40
 433 567 433 567 415 597 c 128,-1,41
 397 627 397 627 368.5 646 c 128,-1,42
 340 665 340 665 300 665 c 0,43,44
 233 665 233 665 198.5 617.5 c 128,-1,45
 164 570 164 570 164 488 c 0,27,28
EndSplineSet
EndChar

StartChar: less
Encoding: 60 60 31
Width: 600
Flags: W
LayerCount: 2
Fore
SplineSet
52 324 m 1,0,-1
 52 355 l 1,1,-1
 483 590 l 1,2,-1
 513 531 l 1,3,-1
 162 345 l 1,4,-1
 519 159 l 1,5,-1
 482 103 l 1,6,-1
 52 324 l 1,0,-1
EndSplineSet
EndChar

StartChar: equal
Encoding: 61 61 32
Width: 600
Flags: W
LayerCount: 2
Fore
SplineSet
47 452 m 1,0,-1
 552 452 l 1,1,-1
 552 398 l 1,2,-1
 47 398 l 1,3,-1
 47 452 l 1,0,-1
47 290 m 1,4,-1
 552 290 l 1,5,-1
 552 236 l 1,6,-1
 47 236 l 1,7,-1
 47 290 l 1,4,-1
EndSplineSet
EndChar

StartChar: greater
Encoding: 62 62 33
Width: 600
Flags: W
LayerCount: 2
Fore
SplineSet
551 369 m 1,0,-1
 551 338 l 1,1,-1
 119 103 l 1,2,-1
 86 158 l 1,3,-1
 440 352 l 1,4,-1
 83 535 l 1,5,-1
 120 590 l 1,6,-1
 551 369 l 1,0,-1
EndSplineSet
EndChar

StartChar: question
Encoding: 63 63 34
Width: 531
Flags: W
LayerCount: 2
Fore
SplineSet
174 548 m 1,0,-1
 78 548 l 1,1,-1
 78 669 l 1,2,3
 120 692 120 692 166 702 c 128,-1,4
 212 712 212 712 266 712 c 0,5,6
 384 712 384 712 439 658.5 c 128,-1,7
 494 605 494 605 494 510 c 0,8,9
 494 466 494 466 478.5 428 c 128,-1,10
 463 390 463 390 433.5 360 c 128,-1,11
 404 330 404 330 362 309.5 c 128,-1,12
 320 289 320 289 266 282 c 1,13,-1
 266 182 l 1,14,-1
 202 182 l 1,15,-1
 202 324 l 1,16,17
 247 333 247 333 280.5 347 c 128,-1,18
 314 361 314 361 336.5 383 c 128,-1,19
 359 405 359 405 370.5 436.5 c 128,-1,20
 382 468 382 468 382 512 c 0,21,22
 382 539 382 539 375 565.5 c 128,-1,23
 368 592 368 592 353 613 c 128,-1,24
 338 634 338 634 314.5 647 c 128,-1,25
 291 660 291 660 258 660 c 0,26,27
 223 660 223 660 203.5 654.5 c 128,-1,28
 184 649 184 649 174 641 c 1,29,-1
 174 548 l 1,0,-1
155 58 m 0,30,31
 155 89 155 89 176 107 c 128,-1,32
 197 125 197 125 232 125 c 256,33,34
 267 125 267 125 289 107 c 128,-1,35
 311 89 311 89 311 58 c 0,36,37
 311 28 311 28 289 10 c 128,-1,38
 267 -8 267 -8 232 -8 c 256,39,40
 197 -8 197 -8 176 10 c 128,-1,41
 155 28 155 28 155 58 c 0,30,31
EndSplineSet
EndChar

StartChar: at
Encoding: 64 64 35
Width: 1111
Flags: W
LayerCount: 2
Fore
SplineSet
792 490 m 1,0,-1
 735 205 l 1,1,-1
 735 57 l 1,2,-1
 748 57 l 2,3,4
 793 57 793 57 831.5 76.5 c 128,-1,5
 870 96 870 96 897.5 131.5 c 128,-1,6
 925 167 925 167 941 216.5 c 128,-1,7
 957 266 957 266 957 326 c 0,8,9
 957 402 957 402 926.5 463.5 c 128,-1,10
 896 525 896 525 844 568.5 c 128,-1,11
 792 612 792 612 721.5 635 c 128,-1,12
 651 658 651 658 572 658 c 0,13,14
 477 658 477 658 400 626 c 128,-1,15
 323 594 323 594 268.5 537.5 c 128,-1,16
 214 481 214 481 184 405 c 128,-1,17
 154 329 154 329 154 242 c 0,18,19
 154 153 154 153 189 84.5 c 128,-1,20
 224 16 224 16 282 -30.5 c 128,-1,21
 340 -77 340 -77 414.5 -101.5 c 128,-1,22
 489 -126 489 -126 568 -126 c 0,23,24
 600 -126 600 -126 641.5 -119 c 128,-1,25
 683 -112 683 -112 717 -98 c 1,26,-1
 735 -144 l 1,27,28
 695 -164 695 -164 648 -172 c 128,-1,29
 601 -180 601 -180 544 -180 c 0,30,31
 493 -180 493 -180 439 -168.5 c 128,-1,32
 385 -157 385 -157 334.5 -134 c 128,-1,33
 284 -111 284 -111 239.5 -76 c 128,-1,34
 195 -41 195 -41 162 5 c 128,-1,35
 129 51 129 51 109.5 109 c 128,-1,36
 90 167 90 167 90 236 c 0,37,38
 90 345 90 345 129 433 c 128,-1,39
 168 521 168 521 234.5 583 c 128,-1,40
 301 645 301 645 389.5 678.5 c 128,-1,41
 478 712 478 712 577 712 c 0,42,43
 671 712 671 712 752.5 685.5 c 128,-1,44
 834 659 834 659 893.5 609.5 c 128,-1,45
 953 560 953 560 987 488.5 c 128,-1,46
 1021 417 1021 417 1021 326 c 0,47,48
 1021 267 1021 267 1004.5 208.5 c 128,-1,49
 988 150 988 150 951.5 104 c 128,-1,50
 915 58 915 58 857 29.5 c 128,-1,51
 799 1 799 1 716 1 c 0,52,53
 699 1 699 1 682.5 2.5 c 128,-1,54
 666 4 666 4 647 6 c 1,55,-1
 647 182 l 1,56,-1
 641 182 l 1,57,58
 628 150 628 150 606.5 119 c 128,-1,59
 585 88 585 88 557 62.5 c 128,-1,60
 529 37 529 37 497.5 21.5 c 128,-1,61
 466 6 466 6 433 6 c 0,62,63
 366 6 366 6 329.5 47.5 c 128,-1,64
 293 89 293 89 293 158 c 0,65,66
 293 221 293 221 316.5 282 c 128,-1,67
 340 343 340 343 380.5 391 c 128,-1,68
 421 439 421 439 474.5 468 c 128,-1,69
 528 497 528 497 588 497 c 0,70,71
 628 497 628 497 653 490.5 c 128,-1,72
 678 484 678 484 704 473 c 1,73,-1
 792 490 l 1,0,-1
685 425 m 1,74,75
 668 435 668 435 649 440 c 128,-1,76
 630 445 630 445 603 445 c 0,77,78
 560 445 560 445 522.5 418.5 c 128,-1,79
 485 392 485 392 457 351.5 c 128,-1,80
 429 311 429 311 412.5 262 c 128,-1,81
 396 213 396 213 396 169 c 0,82,83
 396 121 396 121 413 95 c 128,-1,84
 430 69 430 69 475 69 c 0,85,86
 496 69 496 69 520.5 87 c 128,-1,87
 545 105 545 105 569 134.5 c 128,-1,88
 593 164 593 164 615.5 200.5 c 128,-1,89
 638 237 638 237 656 275 c 1,90,-1
 685 425 l 1,74,75
EndSplineSet
Position2: "'case' Case-Sensitive Forms lookup 1 per glyph data 0" dx=0 dy=51 dh=0 dv=0
EndChar

StartChar: A
Encoding: 65 65 36
Width: 755
Flags: W
LayerCount: 2
Fore
SplineSet
245 0 m 1,0,-1
 0 0 l 1,1,-1
 0 56 l 1,2,-1
 78 56 l 1,3,-1
 337 700 l 1,4,-1
 443 700 l 1,5,-1
 680 56 l 1,6,-1
 755 56 l 1,7,-1
 755 0 l 1,8,-1
 469 0 l 1,9,-1
 469 56 l 1,10,-1
 558 56 l 1,11,-1
 493 232 l 1,12,-1
 227 232 l 1,13,-1
 159 56 l 1,14,-1
 245 56 l 1,15,-1
 245 0 l 1,0,-1
250 288 m 1,16,-1
 476 288 l 1,17,-1
 394 519 l 1,18,-1
 369 625 l 1,19,-1
 365 625 l 1,20,-1
 336 517 l 1,21,-1
 250 288 l 1,16,-1
EndSplineSet
Position2: "'cpsp' Capital Spacing lookup 0 subtable" dx=40 dy=0 dh=80 dv=0
EndChar

StartChar: B
Encoding: 66 66 37
Width: 690
Flags: W
LayerCount: 2
Fore
SplineSet
32 0 m 1,0,-1
 32 56 l 1,1,-1
 123 56 l 1,2,-1
 123 644 l 1,3,-1
 32 644 l 1,4,-1
 32 700 l 1,5,-1
 163 700 l 2,6,7
 184 700 184 700 203 701 c 128,-1,8
 222 702 222 702 243 703 c 128,-1,9
 264 704 264 704 288.5 705 c 128,-1,10
 313 706 313 706 343 706 c 0,11,12
 387 706 387 706 433 699.5 c 128,-1,13
 479 693 479 693 516 675 c 128,-1,14
 553 657 553 657 576.5 624.5 c 128,-1,15
 600 592 600 592 600 540 c 0,16,17
 600 513 600 513 590.5 487 c 128,-1,18
 581 461 581 461 562.5 439 c 128,-1,19
 544 417 544 417 516 400 c 128,-1,20
 488 383 488 383 451 375 c 1,21,-1
 451 371 l 1,22,23
 484 366 484 366 517 354 c 128,-1,24
 550 342 550 342 576.5 321.5 c 128,-1,25
 603 301 603 301 619 271 c 128,-1,26
 635 241 635 241 635 199 c 0,27,28
 635 145 635 145 608.5 106 c 128,-1,29
 582 67 582 67 539 42 c 128,-1,30
 496 17 496 17 441.5 5.5 c 128,-1,31
 387 -6 387 -6 331 -6 c 0,32,33
 292 -6 292 -6 243.5 -3 c 128,-1,34
 195 0 195 0 150 0 c 2,35,-1
 32 0 l 1,0,-1
339 50 m 0,36,37
 378 50 378 50 411.5 60.5 c 128,-1,38
 445 71 445 71 469 90 c 128,-1,39
 493 109 493 109 506.5 135.5 c 128,-1,40
 520 162 520 162 520 194 c 0,41,42
 520 234 520 234 503.5 260.5 c 128,-1,43
 487 287 487 287 459.5 302.5 c 128,-1,44
 432 318 432 318 395 324 c 128,-1,45
 358 330 358 330 317 330 c 2,46,-1
 235 330 l 1,47,-1
 235 59 l 1,48,49
 250 55 250 55 271.5 52.5 c 128,-1,50
 293 50 293 50 339 50 c 0,36,37
289 382 m 2,51,52
 309 382 309 382 333.5 383.5 c 128,-1,53
 358 385 358 385 375 387 c 1,54,55
 426 403 426 403 457 438.5 c 128,-1,56
 488 474 488 474 488 522 c 0,57,58
 488 588 488 588 446 619 c 128,-1,59
 404 650 404 650 332 650 c 0,60,61
 298 650 298 650 274.5 648.5 c 128,-1,62
 251 647 251 647 235 645 c 1,63,-1
 235 382 l 1,64,-1
 289 382 l 2,51,52
EndSplineSet
Position2: "'cpsp' Capital Spacing lookup 0 subtable" dx=40 dy=0 dh=80 dv=0
EndChar

StartChar: C
Encoding: 67 67 38
Width: 698
Flags: W
LayerCount: 2
Fore
SplineSet
569 184 m 1,0,-1
 633 184 l 1,1,-1
 633 27 l 1,2,3
 602 10 602 10 551 -1 c 128,-1,4
 500 -12 500 -12 450 -12 c 0,5,6
 358 -12 358 -12 285 9 c 128,-1,7
 212 30 212 30 161.5 74.5 c 128,-1,8
 111 119 111 119 84 187 c 128,-1,9
 57 255 57 255 57 350 c 0,10,11
 57 448 57 448 87 516.5 c 128,-1,12
 117 585 117 585 168 628.5 c 128,-1,13
 219 672 219 672 286 692 c 128,-1,14
 353 712 353 712 427 712 c 0,15,16
 463 712 463 712 492 709.5 c 128,-1,17
 521 707 521 707 544.5 702 c 128,-1,18
 568 697 568 697 588 690 c 128,-1,19
 608 683 608 683 627 675 c 1,20,-1
 627 504 l 1,21,-1
 563 504 l 1,22,-1
 563 609 l 1,23,-1
 549 629 l 1,24,25
 538 634 538 634 514.5 641 c 128,-1,26
 491 648 491 648 439 648 c 0,27,28
 385 648 385 648 338 631 c 128,-1,29
 291 614 291 614 256.5 578 c 128,-1,30
 222 542 222 542 202 485.5 c 128,-1,31
 182 429 182 429 182 350 c 0,32,33
 182 207 182 207 254.5 129.5 c 128,-1,34
 327 52 327 52 458 52 c 0,35,36
 494 52 494 52 518.5 57.5 c 128,-1,37
 543 63 543 63 555 72 c 1,38,-1
 569 91 l 1,39,-1
 569 184 l 1,0,-1
EndSplineSet
Position2: "'cpsp' Capital Spacing lookup 0 subtable" dx=40 dy=0 dh=80 dv=0
EndChar

StartChar: D
Encoding: 68 68 39
Width: 782
Flags: W
LayerCount: 2
Fore
SplineSet
32 0 m 1,0,-1
 32 56 l 1,1,-1
 123 56 l 1,2,-1
 123 644 l 1,3,-1
 32 644 l 1,4,-1
 32 700 l 1,5,-1
 155 700 l 2,6,7
 174 700 174 700 199.5 701 c 128,-1,8
 225 702 225 702 252 703.5 c 128,-1,9
 279 705 279 705 303.5 706.5 c 128,-1,10
 328 708 328 708 345 708 c 0,11,12
 438 708 438 708 509 684.5 c 128,-1,13
 580 661 580 661 628 616.5 c 128,-1,14
 676 572 676 572 700.5 507 c 128,-1,15
 725 442 725 442 725 359 c 0,16,17
 725 279 725 279 702 212 c 128,-1,18
 679 145 679 145 630 95.5 c 128,-1,19
 581 46 581 46 504.5 18.5 c 128,-1,20
 428 -9 428 -9 322 -9 c 0,21,22
 306 -9 306 -9 285 -7.5 c 128,-1,23
 264 -6 264 -6 240.5 -4.5 c 128,-1,24
 217 -3 217 -3 193 -1.5 c 128,-1,25
 169 0 169 0 148 0 c 2,26,-1
 32 0 l 1,0,-1
330 652 m 0,27,28
 302 652 302 652 276 651 c 128,-1,29
 250 650 250 650 235 647 c 1,30,-1
 235 51 l 1,31,32
 241 50 241 50 255 49.5 c 128,-1,33
 269 49 269 49 285.5 48.5 c 128,-1,34
 302 48 302 48 317 47.5 c 128,-1,35
 332 47 332 47 338 47 c 0,36,37
 413 47 413 47 463 72.5 c 128,-1,38
 513 98 513 98 543.5 140.5 c 128,-1,39
 574 183 574 183 587 239.5 c 128,-1,40
 600 296 600 296 600 359 c 0,41,42
 600 408 600 408 587.5 460 c 128,-1,43
 575 512 575 512 544 555 c 128,-1,44
 513 598 513 598 461 625 c 128,-1,45
 409 652 409 652 330 652 c 0,27,28
EndSplineSet
Position2: "'cpsp' Capital Spacing lookup 0 subtable" dx=40 dy=0 dh=80 dv=0
EndChar

StartChar: E
Encoding: 69 69 40
Width: 645
Flags: W
LayerCount: 2
Fore
SplineSet
564 700 m 1,0,-1
 564 536 l 1,1,-1
 500 536 l 1,2,-1
 500 622 l 1,3,-1
 480 644 l 1,4,-1
 235 644 l 1,5,-1
 235 385 l 1,6,-1
 404 385 l 1,7,-1
 419 400 l 1,8,-1
 419 442 l 1,9,-1
 483 442 l 1,10,-1
 483 271 l 1,11,-1
 419 271 l 1,12,-1
 419 313 l 1,13,-1
 404 329 l 1,14,-1
 235 329 l 1,15,-1
 235 56 l 1,16,-1
 497 56 l 1,17,-1
 517 76 l 1,18,-1
 517 174 l 1,19,-1
 581 174 l 1,20,-1
 581 0 l 1,21,-1
 32 0 l 1,22,-1
 32 56 l 1,23,-1
 123 56 l 1,24,-1
 123 644 l 1,25,-1
 32 644 l 1,26,-1
 32 700 l 1,27,-1
 564 700 l 1,0,-1
EndSplineSet
Position2: "'cpsp' Capital Spacing lookup 0 subtable" dx=40 dy=0 dh=80 dv=0
EndChar

StartChar: F
Encoding: 70 70 41
Width: 623
Flags: W
LayerCount: 2
Fore
SplineSet
235 56 m 1,0,-1
 342 56 l 1,1,-1
 342 0 l 1,2,-1
 32 0 l 1,3,-1
 32 56 l 1,4,-1
 123 56 l 1,5,-1
 123 644 l 1,6,-1
 32 644 l 1,7,-1
 32 700 l 1,8,-1
 573 700 l 1,9,-1
 573 536 l 1,10,-1
 509 536 l 1,11,-1
 509 622 l 1,12,-1
 489 644 l 1,13,-1
 235 644 l 1,14,-1
 235 370 l 1,15,-1
 416 370 l 1,16,-1
 431 385 l 1,17,-1
 431 433 l 1,18,-1
 495 433 l 1,19,-1
 495 250 l 1,20,-1
 431 250 l 1,21,-1
 431 298 l 1,22,-1
 416 314 l 1,23,-1
 235 314 l 1,24,-1
 235 56 l 1,0,-1
EndSplineSet
Position2: "'cpsp' Capital Spacing lookup 0 subtable" dx=40 dy=0 dh=80 dv=0
EndChar

StartChar: G
Encoding: 71 71 42
Width: 774
Flags: W
LayerCount: 2
Fore
SplineSet
669 48 m 1,0,1
 648 36 648 36 621 25 c 128,-1,2
 594 14 594 14 564.5 6 c 128,-1,3
 535 -2 535 -2 505 -7 c 128,-1,4
 475 -12 475 -12 447 -12 c 0,5,6
 354 -12 354 -12 281.5 9.5 c 128,-1,7
 209 31 209 31 159 75.5 c 128,-1,8
 109 120 109 120 83 188.5 c 128,-1,9
 57 257 57 257 57 350 c 0,10,11
 57 448 57 448 88.5 517 c 128,-1,12
 120 586 120 586 172 629.5 c 128,-1,13
 224 673 224 673 291.5 692.5 c 128,-1,14
 359 712 359 712 430 712 c 0,15,16
 504 712 504 712 552 702 c 128,-1,17
 600 692 600 692 638 675 c 1,18,-1
 638 504 l 1,19,-1
 574 504 l 1,20,-1
 574 609 l 1,21,-1
 560 629 l 1,22,23
 551 634 551 634 537 637.5 c 128,-1,24
 523 641 523 641 507.5 643.5 c 128,-1,25
 492 646 492 646 475.5 647 c 128,-1,26
 459 648 459 648 445 648 c 0,27,28
 390 648 390 648 342 631 c 128,-1,29
 294 614 294 614 258.5 578 c 128,-1,30
 223 542 223 542 202.5 485.5 c 128,-1,31
 182 429 182 429 182 350 c 0,32,33
 182 208 182 208 252.5 130 c 128,-1,34
 323 52 323 52 455 52 c 0,35,36
 488 52 488 52 511.5 56.5 c 128,-1,37
 535 61 535 61 553 68 c 1,38,-1
 568 86 l 1,39,-1
 568 275 l 1,40,-1
 462 275 l 1,41,-1
 462 331 l 1,42,-1
 739 331 l 1,43,-1
 739 275 l 1,44,-1
 669 275 l 1,45,-1
 669 48 l 1,0,1
EndSplineSet
Position2: "'cpsp' Capital Spacing lookup 0 subtable" dx=40 dy=0 dh=80 dv=0
EndChar

StartChar: H
Encoding: 72 72 43
Width: 820
Flags: W
LayerCount: 2
Fore
SplineSet
318 56 m 1,0,-1
 318 0 l 1,1,-1
 32 0 l 1,2,-1
 32 56 l 1,3,-1
 123 56 l 1,4,-1
 123 644 l 1,5,-1
 32 644 l 1,6,-1
 32 700 l 1,7,-1
 318 700 l 1,8,-1
 318 644 l 1,9,-1
 235 644 l 1,10,-1
 235 387 l 1,11,-1
 585 387 l 1,12,-1
 585 644 l 1,13,-1
 502 644 l 1,14,-1
 502 700 l 1,15,-1
 788 700 l 1,16,-1
 788 644 l 1,17,-1
 697 644 l 1,18,-1
 697 56 l 1,19,-1
 788 56 l 1,20,-1
 788 0 l 1,21,-1
 502 0 l 1,22,-1
 502 56 l 1,23,-1
 585 56 l 1,24,-1
 585 331 l 1,25,-1
 235 331 l 1,26,-1
 235 56 l 1,27,-1
 318 56 l 1,0,-1
EndSplineSet
Position2: "'cpsp' Capital Spacing lookup 0 subtable" dx=40 dy=0 dh=80 dv=0
EndChar

StartChar: I
Encoding: 73 73 44
Width: 398
Flags: W
LayerCount: 2
Fore
SplineSet
346 0 m 1,0,-1
 52 0 l 1,1,-1
 52 56 l 1,2,-1
 143 56 l 1,3,-1
 143 644 l 1,4,-1
 52 644 l 1,5,-1
 52 700 l 1,6,-1
 346 700 l 1,7,-1
 346 644 l 1,8,-1
 255 644 l 1,9,-1
 255 56 l 1,10,-1
 346 56 l 1,11,-1
 346 0 l 1,0,-1
EndSplineSet
Position2: "'cpsp' Capital Spacing lookup 0 subtable" dx=40 dy=0 dh=80 dv=0
EndChar

StartChar: J
Encoding: 74 74 45
Width: 380
Flags: W
LayerCount: 2
Fore
SplineSet
36 -113 m 1,0,1
 53 -105 53 -105 69 -93.5 c 128,-1,2
 85 -82 85 -82 97.5 -61.5 c 128,-1,3
 110 -41 110 -41 117.5 -8 c 128,-1,4
 125 25 125 25 125 78 c 2,5,-1
 125 644 l 1,6,-1
 42 644 l 1,7,-1
 42 700 l 1,8,-1
 328 700 l 1,9,-1
 328 644 l 1,10,-1
 237 644 l 1,11,-1
 237 88 l 2,12,13
 237 17 237 17 218.5 -28.5 c 128,-1,14
 200 -74 200 -74 173 -101.5 c 128,-1,15
 146 -129 146 -129 115 -142 c 128,-1,16
 84 -155 84 -155 59 -160 c 1,17,-1
 36 -113 l 1,0,1
EndSplineSet
Position2: "'cpsp' Capital Spacing lookup 0 subtable" dx=40 dy=0 dh=80 dv=0
EndChar

StartChar: K
Encoding: 75 75 46
Width: 712
Flags: W
LayerCount: 2
Fore
SplineSet
300 382 m 1,0,-1
 518 644 l 1,1,-1
 437 644 l 1,2,-1
 437 700 l 1,3,-1
 684 700 l 1,4,-1
 684 644 l 1,5,-1
 605 644 l 1,6,-1
 367 377 l 1,7,-1
 650 56 l 1,8,-1
 712 56 l 1,9,-1
 712 0 l 1,10,-1
 551 0 l 1,11,-1
 288 332 l 1,12,-1
 235 332 l 1,13,-1
 235 56 l 1,14,-1
 318 56 l 1,15,-1
 318 0 l 1,16,-1
 32 0 l 1,17,-1
 32 56 l 1,18,-1
 123 56 l 1,19,-1
 123 644 l 1,20,-1
 32 644 l 1,21,-1
 32 700 l 1,22,-1
 318 700 l 1,23,-1
 318 644 l 1,24,-1
 235 644 l 1,25,-1
 235 382 l 1,26,-1
 300 382 l 1,0,-1
EndSplineSet
Position2: "'cpsp' Capital Spacing lookup 0 subtable" dx=40 dy=0 dh=80 dv=0
EndChar

StartChar: L
Encoding: 76 76 47
Width: 609
Flags: W
LayerCount: 2
Fore
SplineSet
32 644 m 1,0,-1
 32 700 l 1,1,-1
 343 700 l 1,2,-1
 343 644 l 1,3,-1
 235 644 l 1,4,-1
 235 56 l 1,5,-1
 501 56 l 1,6,-1
 521 78 l 1,7,-1
 521 216 l 1,8,-1
 593 216 l 1,9,-1
 593 0 l 1,10,-1
 32 0 l 1,11,-1
 32 56 l 1,12,-1
 123 56 l 1,13,-1
 123 644 l 1,14,-1
 32 644 l 1,0,-1
EndSplineSet
Position2: "'cpsp' Capital Spacing lookup 0 subtable" dx=40 dy=0 dh=80 dv=0
EndChar

StartChar: M
Encoding: 77 77 48
Width: 984
Flags: W
LayerCount: 2
Fore
SplineSet
32 644 m 1,0,-1
 32 700 l 1,1,-1
 260 700 l 1,2,-1
 496 252 l 1,3,-1
 737 700 l 1,4,-1
 952 700 l 1,5,-1
 952 644 l 1,6,-1
 861 644 l 1,7,-1
 861 56 l 1,8,-1
 952 56 l 1,9,-1
 952 0 l 1,10,-1
 662 0 l 1,11,-1
 662 56 l 1,12,-1
 753 56 l 1,13,-1
 753 502 l 1,14,15
 754 507 754 507 754.5 525.5 c 128,-1,16
 755 544 755 544 756 565 c 0,17,18
 757 590 757 590 758 619 c 1,19,-1
 749 619 l 1,20,-1
 706 512 l 1,21,-1
 501 150 l 1,22,-1
 440 150 l 1,23,-1
 240 512 l 1,24,-1
 196 629 l 1,25,-1
 186 629 l 1,26,-1
 186 567 l 2,27,28
 186 544 186 544 186.5 523.5 c 128,-1,29
 187 503 187 503 187 502 c 2,30,-1
 187 56 l 1,31,-1
 272 56 l 1,32,-1
 272 0 l 1,33,-1
 32 0 l 1,34,-1
 32 56 l 1,35,-1
 123 56 l 1,36,-1
 123 644 l 1,37,-1
 32 644 l 1,0,-1
EndSplineSet
Position2: "'cpsp' Capital Spacing lookup 0 subtable" dx=40 dy=0 dh=80 dv=0
EndChar

StartChar: N
Encoding: 78 78 49
Width: 820
Flags: W
LayerCount: 2
Fore
SplineSet
542 700 m 1,0,-1
 788 700 l 1,1,-1
 788 644 l 1,2,-1
 697 644 l 1,3,-1
 697 -12 l 1,4,-1
 632 -12 l 1,5,-1
 225 537 l 1,6,-1
 181 614 l 1,7,-1
 177 614 l 1,8,-1
 187 536 l 1,9,-1
 187 56 l 1,10,-1
 278 56 l 1,11,-1
 278 0 l 1,12,-1
 32 0 l 1,13,-1
 32 56 l 1,14,-1
 123 56 l 1,15,-1
 123 644 l 1,16,-1
 32 644 l 1,17,-1
 32 700 l 1,18,-1
 232 700 l 1,19,-1
 582 229 l 1,20,-1
 634 143 l 1,21,-1
 639 143 l 1,22,-1
 633 229 l 1,23,-1
 633 644 l 1,24,-1
 542 644 l 1,25,-1
 542 700 l 1,0,-1
EndSplineSet
Position2: "'cpsp' Capital Spacing lookup 0 subtable" dx=40 dy=0 dh=80 dv=0
EndChar

StartChar: O
Encoding: 79 79 50
Width: 830
Flags: W
LayerCount: 2
Fore
SplineSet
57 350 m 256,0,1
 57 428 57 428 81 494.5 c 128,-1,2
 105 561 105 561 150.5 609.5 c 128,-1,3
 196 658 196 658 262.5 685 c 128,-1,4
 329 712 329 712 414 712 c 256,5,6
 499 712 499 712 566 685 c 128,-1,7
 633 658 633 658 679 609.5 c 128,-1,8
 725 561 725 561 749 494.5 c 128,-1,9
 773 428 773 428 773 350 c 256,10,11
 773 272 773 272 749 205.5 c 128,-1,12
 725 139 725 139 679 90.5 c 128,-1,13
 633 42 633 42 566 15 c 128,-1,14
 499 -12 499 -12 414 -12 c 256,15,16
 329 -12 329 -12 262.5 15 c 128,-1,17
 196 42 196 42 150.5 90.5 c 128,-1,18
 105 139 105 139 81 205.5 c 128,-1,19
 57 272 57 272 57 350 c 256,0,1
182 350 m 256,20,21
 182 286 182 286 196.5 230 c 128,-1,22
 211 174 211 174 241 133 c 128,-1,23
 271 92 271 92 316.5 68 c 128,-1,24
 362 44 362 44 424 44 c 0,25,26
 481 44 481 44 523 68 c 128,-1,27
 565 92 565 92 592.5 133 c 128,-1,28
 620 174 620 174 634 230 c 128,-1,29
 648 286 648 286 648 350 c 256,30,31
 648 414 648 414 633.5 470 c 128,-1,32
 619 526 619 526 589 567 c 128,-1,33
 559 608 559 608 513.5 632 c 128,-1,34
 468 656 468 656 405 656 c 0,35,36
 345 656 345 656 302.5 632 c 128,-1,37
 260 608 260 608 233 567 c 128,-1,38
 206 526 206 526 194 470 c 128,-1,39
 182 414 182 414 182 350 c 256,20,21
EndSplineSet
Position2: "'cpsp' Capital Spacing lookup 0 subtable" dx=40 dy=0 dh=80 dv=0
EndChar

StartChar: P
Encoding: 80 80 51
Width: 667
Flags: W
LayerCount: 2
Fore
SplineSet
32 644 m 1,0,-1
 32 700 l 1,1,-1
 136 700 l 2,2,3
 181 700 181 700 233.5 704 c 128,-1,4
 286 708 286 708 335 708 c 0,5,6
 390 708 390 708 443 697.5 c 128,-1,7
 496 687 496 687 537 662 c 128,-1,8
 578 637 578 637 603.5 595.5 c 128,-1,9
 629 554 629 554 629 492 c 0,10,11
 629 433 629 433 603 390.5 c 128,-1,12
 577 348 577 348 534.5 321 c 128,-1,13
 492 294 492 294 436.5 281 c 128,-1,14
 381 268 381 268 322 268 c 0,15,16
 316 268 316 268 304 268 c 128,-1,17
 292 268 292 268 278.5 268.5 c 128,-1,18
 265 269 265 269 253 270 c 128,-1,19
 241 271 241 271 235 272 c 1,20,-1
 235 56 l 1,21,-1
 335 56 l 1,22,-1
 335 0 l 1,23,-1
 32 0 l 1,24,-1
 32 56 l 1,25,-1
 123 56 l 1,26,-1
 123 644 l 1,27,-1
 32 644 l 1,0,-1
235 329 m 1,28,29
 240 327 240 327 250.5 326.5 c 128,-1,30
 261 326 261 326 273 325 c 128,-1,31
 285 324 285 324 296.5 324 c 128,-1,32
 308 324 308 324 314 324 c 0,33,34
 353 324 353 324 387.5 333.5 c 128,-1,35
 422 343 422 343 448 363 c 128,-1,36
 474 383 474 383 489 415 c 128,-1,37
 504 447 504 447 504 492 c 0,38,39
 504 574 504 574 452.5 613 c 128,-1,40
 401 652 401 652 312 652 c 0,41,42
 285 652 285 652 267 650.5 c 128,-1,43
 249 649 249 649 235 646 c 1,44,-1
 235 329 l 1,28,29
EndSplineSet
Position2: "'cpsp' Capital Spacing lookup 0 subtable" dx=40 dy=0 dh=80 dv=0
EndChar

StartChar: Q
Encoding: 81 81 52
Width: 830
Flags: W
LayerCount: 2
Fore
SplineSet
859 -131 m 1,0,1
 815 -168 815 -168 764.5 -185 c 128,-1,2
 714 -202 714 -202 660 -202 c 0,3,4
 614 -202 614 -202 560.5 -185 c 128,-1,5
 507 -168 507 -168 448 -146.5 c 128,-1,6
 389 -125 389 -125 326 -104.5 c 128,-1,7
 263 -84 263 -84 197 -77 c 1,8,-1
 205 -37 l 1,9,10
 229 -34 229 -34 252 -34 c 0,11,12
 309 -34 309 -34 365 -46.5 c 128,-1,13
 421 -59 421 -59 478 -74 c 128,-1,14
 535 -89 535 -89 593 -101.5 c 128,-1,15
 651 -114 651 -114 711 -114 c 0,16,17
 743 -114 743 -114 776 -109 c 128,-1,18
 809 -104 809 -104 843 -93 c 1,19,-1
 859 -131 l 1,0,1
57 350 m 256,20,21
 57 428 57 428 81 494.5 c 128,-1,22
 105 561 105 561 150.5 609.5 c 128,-1,23
 196 658 196 658 262.5 685 c 128,-1,24
 329 712 329 712 414 712 c 256,25,26
 499 712 499 712 566 685 c 128,-1,27
 633 658 633 658 679 609.5 c 128,-1,28
 725 561 725 561 749 494.5 c 128,-1,29
 773 428 773 428 773 350 c 256,30,31
 773 272 773 272 749 205.5 c 128,-1,32
 725 139 725 139 679 90.5 c 128,-1,33
 633 42 633 42 566 15 c 128,-1,34
 499 -12 499 -12 414 -12 c 256,35,36
 329 -12 329 -12 262.5 15 c 128,-1,37
 196 42 196 42 150.5 90.5 c 128,-1,38
 105 139 105 139 81 205.5 c 128,-1,39
 57 272 57 272 57 350 c 256,20,21
182 350 m 256,40,41
 182 286 182 286 196.5 230 c 128,-1,42
 211 174 211 174 241 133 c 128,-1,43
 271 92 271 92 316.5 68 c 128,-1,44
 362 44 362 44 424 44 c 0,45,46
 481 44 481 44 523 68 c 128,-1,47
 565 92 565 92 592.5 133 c 128,-1,48
 620 174 620 174 634 230 c 128,-1,49
 648 286 648 286 648 350 c 256,50,51
 648 414 648 414 633.5 470 c 128,-1,52
 619 526 619 526 589 567 c 128,-1,53
 559 608 559 608 513.5 632 c 128,-1,54
 468 656 468 656 405 656 c 0,55,56
 345 656 345 656 302.5 632 c 128,-1,57
 260 608 260 608 233 567 c 128,-1,58
 206 526 206 526 194 470 c 128,-1,59
 182 414 182 414 182 350 c 256,40,41
EndSplineSet
Position2: "'cpsp' Capital Spacing lookup 0 subtable" dx=40 dy=0 dh=80 dv=0
EndChar

StartChar: R
Encoding: 82 82 53
Width: 708
Flags: W
LayerCount: 2
Fore
SplineSet
235 56 m 1,0,-1
 321 56 l 1,1,-1
 321 0 l 1,2,-1
 32 0 l 1,3,-1
 32 56 l 1,4,-1
 123 56 l 1,5,-1
 123 644 l 1,6,-1
 32 644 l 1,7,-1
 32 700 l 1,8,-1
 133 700 l 2,9,10
 178 700 178 700 231 704 c 128,-1,11
 284 708 284 708 335 708 c 0,12,13
 390 708 390 708 438.5 696.5 c 128,-1,14
 487 685 487 685 522 661 c 128,-1,15
 557 637 557 637 577.5 599.5 c 128,-1,16
 598 562 598 562 598 510 c 0,17,18
 598 438 598 438 553.5 387.5 c 128,-1,19
 509 337 509 337 437 316 c 1,20,-1
 636 56 l 1,21,-1
 698 56 l 1,22,-1
 698 0 l 1,23,-1
 536 0 l 1,24,-1
 337 302 l 1,25,-1
 235 302 l 1,26,-1
 235 56 l 1,0,-1
314 354 m 2,27,28
 391 354 391 354 434.5 396 c 128,-1,29
 478 438 478 438 478 510 c 0,30,31
 478 584 478 584 432 618 c 128,-1,32
 386 652 386 652 310 652 c 0,33,34
 284 652 284 652 266.5 650 c 128,-1,35
 249 648 249 648 235 646 c 1,36,-1
 235 354 l 1,37,-1
 314 354 l 2,27,28
EndSplineSet
Position2: "'cpsp' Capital Spacing lookup 0 subtable" dx=40 dy=0 dh=80 dv=0
EndChar

StartChar: S
Encoding: 83 83 54
Width: 596
Flags: W
LayerCount: 2
Fore
SplineSet
126 98 m 1,0,-1
 144 74 l 1,1,2
 162 61 162 61 193.5 52.5 c 128,-1,3
 225 44 225 44 263 44 c 0,4,5
 299 44 299 44 329.5 51.5 c 128,-1,6
 360 59 360 59 383 74 c 128,-1,7
 406 89 406 89 419 112 c 128,-1,8
 432 135 432 135 432 167 c 0,9,10
 432 208 432 208 404.5 235 c 128,-1,11
 377 262 377 262 336 283 c 128,-1,12
 295 304 295 304 247 324 c 128,-1,13
 199 344 199 344 158 371 c 128,-1,14
 117 398 117 398 89.5 436 c 128,-1,15
 62 474 62 474 62 532 c 0,16,17
 62 617 62 617 126.5 664.5 c 128,-1,18
 191 712 191 712 301 712 c 0,19,20
 370 712 370 712 420 703 c 128,-1,21
 470 694 470 694 505 679 c 1,22,-1
 505 507 l 1,23,-1
 441 507 l 1,24,-1
 441 615 l 1,25,-1
 425 640 l 1,26,27
 406 648 406 648 370 652 c 128,-1,28
 334 656 334 656 299 656 c 0,29,30
 239 656 239 656 205 628.5 c 128,-1,31
 171 601 171 601 171 551 c 0,32,33
 171 510 171 510 198.5 482.5 c 128,-1,34
 226 455 226 455 267 433 c 128,-1,35
 308 411 308 411 356 390.5 c 128,-1,36
 404 370 404 370 445 343.5 c 128,-1,37
 486 317 486 317 513.5 280 c 128,-1,38
 541 243 541 243 541 188 c 0,39,40
 541 91 541 91 466 39.5 c 128,-1,41
 391 -12 391 -12 261 -12 c 0,42,43
 190 -12 190 -12 138 3 c 128,-1,44
 86 18 86 18 62 35 c 1,45,-1
 62 217 l 1,46,-1
 126 217 l 1,47,-1
 126 98 l 1,0,-1
EndSplineSet
Position2: "'cpsp' Capital Spacing lookup 0 subtable" dx=40 dy=0 dh=80 dv=0
EndChar

StartChar: T
Encoding: 84 84 55
Width: 698
Flags: W
LayerCount: 2
Fore
SplineSet
508 0 m 1,0,-1
 190 0 l 1,1,-1
 190 56 l 1,2,-1
 293 56 l 1,3,-1
 293 644 l 1,4,-1
 114 644 l 1,5,-1
 94 622 l 1,6,-1
 94 493 l 1,7,-1
 22 493 l 1,8,-1
 22 700 l 1,9,-1
 676 700 l 1,10,-1
 676 493 l 1,11,-1
 604 493 l 1,12,-1
 604 622 l 1,13,-1
 584 644 l 1,14,-1
 405 644 l 1,15,-1
 405 56 l 1,16,-1
 508 56 l 1,17,-1
 508 0 l 1,0,-1
EndSplineSet
Position2: "'cpsp' Capital Spacing lookup 0 subtable" dx=40 dy=0 dh=80 dv=0
EndChar

StartChar: U
Encoding: 85 85 56
Width: 762
Flags: W
LayerCount: 2
Fore
SplineSet
659 239 m 1,0,1
 659 175 659 175 640 128.5 c 128,-1,2
 621 82 621 82 586.5 51.5 c 128,-1,3
 552 21 552 21 503 6 c 128,-1,4
 454 -9 454 -9 394 -9 c 0,5,6
 252 -9 252 -9 177.5 47.5 c 128,-1,7
 103 104 103 104 103 222 c 2,8,-1
 103 644 l 1,9,-1
 12 644 l 1,10,-1
 12 700 l 1,11,-1
 296 700 l 1,12,-1
 296 644 l 1,13,-1
 215 644 l 1,14,-1
 215 243 l 2,15,16
 215 191 215 191 228 155.5 c 128,-1,17
 241 120 241 120 265.5 98.5 c 128,-1,18
 290 77 290 77 326 67.5 c 128,-1,19
 362 58 362 58 408 58 c 0,20,21
 496 58 496 58 545.5 102 c 128,-1,22
 595 146 595 146 595 246 c 2,23,-1
 595 644 l 1,24,-1
 514 644 l 1,25,-1
 514 700 l 1,26,-1
 750 700 l 1,27,-1
 750 644 l 1,28,-1
 659 644 l 1,29,-1
 659 239 l 1,30,-1
 659 239 l 1,0,1
EndSplineSet
Position2: "'cpsp' Capital Spacing lookup 0 subtable" dx=40 dy=0 dh=80 dv=0
EndChar

StartChar: V
Encoding: 86 86 57
Width: 771
Flags: W
LayerCount: 2
Fore
SplineSet
614 644 m 1,0,-1
 523 644 l 1,1,-1
 523 700 l 1,2,-1
 771 700 l 1,3,-1
 771 644 l 1,4,-1
 689 644 l 1,5,-1
 457 0 l 1,6,-1
 346 0 l 1,7,-1
 86 644 l 1,8,-1
 0 644 l 1,9,-1
 0 700 l 1,10,-1
 307 700 l 1,11,-1
 307 644 l 1,12,-1
 211 644 l 1,13,-1
 391 177 l 1,14,-1
 420 82 l 1,15,-1
 424 82 l 1,16,-1
 454 179 l 1,17,-1
 614 644 l 1,0,-1
EndSplineSet
Position2: "'cpsp' Capital Spacing lookup 0 subtable" dx=40 dy=0 dh=80 dv=0
EndChar

StartChar: W
Encoding: 87 87 58
Width: 1056
Flags: W
LayerCount: 2
Fore
SplineSet
897 644 m 1,0,-1
 810 644 l 1,1,-1
 810 700 l 1,2,-1
 1056 700 l 1,3,-1
 1056 644 l 1,4,-1
 973 644 l 1,5,-1
 806 0 l 1,6,-1
 690 0 l 1,7,-1
 534 554 l 1,8,-1
 377 0 l 1,9,-1
 261 0 l 1,10,-1
 86 644 l 1,11,-1
 0 644 l 1,12,-1
 0 700 l 1,13,-1
 299 700 l 1,14,-1
 299 644 l 1,15,-1
 204 644 l 1,16,-1
 311 216 l 1,17,-1
 337 83 l 1,18,-1
 341 83 l 1,19,-1
 380 218 l 2,20,21
 380 219 380 219 386 240.5 c 128,-1,22
 392 262 392 262 402 296 c 128,-1,23
 412 330 412 330 424 373.5 c 128,-1,24
 436 417 436 417 449 462 c 0,25,26
 479 568 479 568 517 700 c 1,27,-1
 591 700 l 1,28,-1
 733 218 l 1,29,-1
 764 85 l 1,30,-1
 769 85 l 1,31,-1
 799 220 l 1,32,-1
 897 644 l 1,0,-1
EndSplineSet
Position2: "'cpsp' Capital Spacing lookup 0 subtable" dx=40 dy=0 dh=80 dv=0
EndChar

StartChar: X
Encoding: 88 88 59
Width: 756
Flags: W
LayerCount: 2
Fore
SplineSet
449 700 m 1,0,-1
 701 700 l 1,1,-1
 701 644 l 1,2,-1
 619 644 l 1,3,-1
 423 375 l 1,4,-1
 653 56 l 1,5,-1
 744 56 l 1,6,-1
 744 0 l 1,7,-1
 453 0 l 1,8,-1
 453 56 l 1,9,-1
 526 56 l 1,10,-1
 350 303 l 1,11,-1
 184 56 l 1,12,-1
 261 56 l 1,13,-1
 261 0 l 1,14,-1
 10 0 l 1,15,-1
 10 56 l 1,16,-1
 94 56 l 1,17,-1
 313 352 l 1,18,-1
 103 644 l 1,19,-1
 14 644 l 1,20,-1
 14 700 l 1,21,-1
 312 700 l 1,22,-1
 312 644 l 1,23,-1
 232 644 l 1,24,-1
 387 421 l 1,25,-1
 537 644 l 1,26,-1
 449 644 l 1,27,-1
 449 700 l 1,0,-1
EndSplineSet
Position2: "'cpsp' Capital Spacing lookup 0 subtable" dx=40 dy=0 dh=80 dv=0
EndChar

StartChar: Y
Encoding: 89 89 60
Width: 727
Flags: W
LayerCount: 2
Fore
SplineSet
478 700 m 1,0,-1
 727 700 l 1,1,-1
 727 644 l 1,2,-1
 642 644 l 1,3,-1
 429 297 l 1,4,-1
 429 56 l 1,5,-1
 520 56 l 1,6,-1
 520 0 l 1,7,-1
 226 0 l 1,8,-1
 226 56 l 1,9,-1
 317 56 l 1,10,-1
 317 296 l 1,11,-1
 91 644 l 1,12,-1
 0 644 l 1,13,-1
 0 700 l 1,14,-1
 302 700 l 1,15,-1
 302 644 l 1,16,-1
 218 644 l 1,17,-1
 399 353 l 1,18,-1
 570 644 l 1,19,-1
 478 644 l 1,20,-1
 478 700 l 1,0,-1
EndSplineSet
Position2: "'cpsp' Capital Spacing lookup 0 subtable" dx=40 dy=0 dh=80 dv=0
EndChar

StartChar: Z
Encoding: 90 90 61
Width: 672
Flags: W
LayerCount: 2
Fore
SplineSet
40 56 m 1,0,-1
 498 644 l 1,1,-1
 157 644 l 1,2,-1
 137 622 l 1,3,-1
 137 497 l 1,4,-1
 65 497 l 1,5,-1
 65 700 l 1,6,-1
 626 700 l 1,7,-1
 626 644 l 1,8,-1
 168 56 l 1,9,-1
 540 56 l 1,10,-1
 560 78 l 1,11,-1
 560 203 l 1,12,-1
 632 203 l 1,13,-1
 632 0 l 1,14,-1
 40 0 l 1,15,-1
 40 56 l 1,0,-1
EndSplineSet
Position2: "'cpsp' Capital Spacing lookup 0 subtable" dx=40 dy=0 dh=80 dv=0
EndChar

StartChar: bracketleft
Encoding: 91 91 62
Width: 346
Flags: W
LayerCount: 2
Fore
SplineSet
92 700 m 1,0,-1
 307 700 l 1,1,-1
 307 658 l 1,2,-1
 192 658 l 1,3,-1
 192 -188 l 1,4,-1
 307 -188 l 1,5,-1
 307 -230 l 1,6,-1
 92 -230 l 1,7,-1
 92 700 l 1,0,-1
EndSplineSet
Position2: "'case' Case-Sensitive Forms lookup 1 per glyph data 3" dx=0 dy=100 dh=0 dv=0
EndChar

StartChar: backslash
Encoding: 92 92 63
Width: 428
Flags: W
LayerCount: 2
Fore
SplineSet
459 -107 m 1,0,-1
 401 -134 l 1,1,-1
 -54 689 l 1,2,-1
 4 718 l 1,3,-1
 459 -107 l 1,0,-1
EndSplineSet
EndChar

StartChar: asciicircum
Encoding: 94 94 65
Width: 600
Flags: W
LayerCount: 2
Fore
SplineSet
284 711 m 1,0,-1
 323 711 l 1,1,-1
 514 434 l 1,2,-1
 412 434 l 1,3,-1
 286 633 l 1,4,-1
 140 434 l 1,5,-1
 76 434 l 1,6,-1
 284 711 l 1,0,-1
EndSplineSet
EndChar

StartChar: grave
Encoding: 96 96 67
Width: 344
Flags: W
LayerCount: 2
Fore
SplineSet
284 615 m 1,0,-1
 256 592 l 1,1,-1
 60 709 l 1,2,-1
 60 750 l 1,3,-1
 186 750 l 1,4,-1
 284 615 l 1,0,-1
EndSplineSet
EndChar

StartChar: a
Encoding: 97 97 68
Width: 569
Flags: W
LayerCount: 2
Fore
SplineSet
464 139 m 0,0,1
 464 116 464 116 465 92.5 c 128,-1,2
 466 69 466 69 468 50 c 1,3,-1
 534 50 l 1,4,-1
 534 0 l 1,5,-1
 377 0 l 1,6,-1
 367 95 l 1,7,-1
 362 95 l 1,8,9
 357 75 357 75 343.5 56 c 128,-1,10
 330 37 330 37 309.5 22 c 128,-1,11
 289 7 289 7 261 -2 c 128,-1,12
 233 -11 233 -11 199 -11 c 256,13,14
 165 -11 165 -11 136.5 -1 c 128,-1,15
 108 9 108 9 87 27 c 128,-1,16
 66 45 66 45 54.5 70.5 c 128,-1,17
 43 96 43 96 43 128 c 0,18,19
 43 177 43 177 63.5 209 c 128,-1,20
 84 241 84 241 124 259.5 c 128,-1,21
 164 278 164 278 224 286 c 128,-1,22
 284 294 284 294 364 295 c 1,23,24
 366 311 366 311 366 325.5 c 128,-1,25
 366 340 366 340 366 354 c 0,26,27
 366 416 366 416 345 448.5 c 128,-1,28
 324 481 324 481 270 481 c 0,29,30
 250 481 250 481 227 479 c 128,-1,31
 204 477 204 477 185 467 c 1,32,-1
 185 375 l 1,33,-1
 95 375 l 1,34,-1
 95 486 l 1,35,36
 131 505 131 505 180 520 c 128,-1,37
 229 535 229 535 295 535 c 0,38,39
 352 535 352 535 386.5 520.5 c 128,-1,40
 421 506 421 506 439.5 482.5 c 128,-1,41
 458 459 458 459 463.5 429.5 c 128,-1,42
 469 400 469 400 469 371 c 0,43,44
 469 308 469 308 466.5 250.5 c 128,-1,45
 464 193 464 193 464 139 c 0,0,1
245 56 m 0,46,47
 269 56 269 56 288 63.5 c 128,-1,48
 307 71 307 71 321.5 82.5 c 128,-1,49
 336 94 336 94 346.5 108 c 128,-1,50
 357 122 357 122 364 135 c 1,51,-1
 364 254 l 1,52,53
 299 254 299 254 258.5 245.5 c 128,-1,54
 218 237 218 237 195 223 c 128,-1,55
 172 209 172 209 163.5 189.5 c 128,-1,56
 155 170 155 170 155 148 c 0,57,58
 155 103 155 103 179 79.5 c 128,-1,59
 203 56 203 56 245 56 c 0,46,47
EndSplineSet
Substitution2: "Single Substitution lookup 17 subtable" ordfeminine
EndChar

StartChar: b
Encoding: 98 98 69
Width: 614
Flags: W
LayerCount: 2
Fore
SplineSet
85 700 m 1,0,-1
 0 700 l 1,1,-1
 0 750 l 1,2,-1
 190 750 l 1,3,-1
 190 422 l 1,4,-1
 193 422 l 1,5,6
 212 475 212 475 257 505 c 128,-1,7
 302 535 302 535 358 535 c 0,8,9
 460 535 460 535 514.5 471 c 128,-1,10
 569 407 569 407 569 272 c 0,11,12
 569 133 569 133 493.5 61.5 c 128,-1,13
 418 -10 418 -10 278 -10 c 0,14,15
 250 -10 250 -10 221.5 -6.5 c 128,-1,16
 193 -3 193 -3 166.5 2.5 c 128,-1,17
 140 8 140 8 119 15 c 128,-1,18
 98 22 98 22 85 30 c 1,19,-1
 85 700 l 1,0,-1
325 468 m 0,20,21
 271 468 271 468 238.5 435.5 c 128,-1,22
 206 403 206 403 190 352 c 1,23,-1
 190 61 l 1,24,25
 210 50 210 50 238.5 43.5 c 128,-1,26
 267 37 267 37 300 37 c 0,27,28
 374 37 374 37 415 97 c 128,-1,29
 456 157 456 157 456 272 c 0,30,31
 456 313 456 313 449 349 c 128,-1,32
 442 385 442 385 426 411.5 c 128,-1,33
 410 438 410 438 385.5 453 c 128,-1,34
 361 468 361 468 325 468 c 0,20,21
EndSplineSet
EndChar

StartChar: c
Encoding: 99 99 70
Width: 523
Flags: W
LayerCount: 2
Fore
SplineSet
482 67 m 1,0,1
 461 38 461 38 415.5 13.5 c 128,-1,2
 370 -11 370 -11 308 -11 c 0,3,4
 242 -11 242 -11 192.5 8.5 c 128,-1,5
 143 28 143 28 110 63.5 c 128,-1,6
 77 99 77 99 61 149.5 c 128,-1,7
 45 200 45 200 45 262 c 0,8,9
 45 395 45 395 115.5 465 c 128,-1,10
 186 535 186 535 307 535 c 0,11,12
 362 535 362 535 398 528 c 128,-1,13
 434 521 434 521 464 506 c 1,14,-1
 464 376 l 1,15,-1
 374 376 l 1,16,-1
 374 472 l 1,17,18
 359 481 359 481 314 481 c 0,19,20
 276 481 276 481 247 470 c 128,-1,21
 218 459 218 459 198 434 c 128,-1,22
 178 409 178 409 168 367 c 128,-1,23
 158 325 158 325 158 264 c 0,24,25
 158 224 158 224 169 187.5 c 128,-1,26
 180 151 180 151 202 123.5 c 128,-1,27
 224 96 224 96 257.5 80 c 128,-1,28
 291 64 291 64 336 64 c 0,29,30
 360 64 360 64 378.5 69 c 128,-1,31
 397 74 397 74 411 79.5 c 128,-1,32
 425 85 425 85 436 92 c 128,-1,33
 447 99 447 99 457 107 c 1,34,-1
 482 67 l 1,0,1
EndSplineSet
EndChar

StartChar: d
Encoding: 100 100 71
Width: 625
Flags: W
LayerCount: 2
Fore
SplineSet
418 104 m 1,0,1
 412 81 412 81 398.5 60 c 128,-1,2
 385 39 385 39 365.5 23 c 128,-1,3
 346 7 346 7 321 -2 c 128,-1,4
 296 -11 296 -11 267 -11 c 0,5,6
 156 -11 156 -11 100.5 54.5 c 128,-1,7
 45 120 45 120 45 259 c 0,8,9
 45 326 45 326 63.5 377.5 c 128,-1,10
 82 429 82 429 116 464 c 128,-1,11
 150 499 150 499 198 517 c 128,-1,12
 246 535 246 535 305 535 c 0,13,14
 326 535 326 535 341 534 c 128,-1,15
 356 533 356 533 369 531 c 128,-1,16
 382 529 382 529 394 525.5 c 128,-1,17
 406 522 406 522 420 518 c 1,18,-1
 420 700 l 1,19,-1
 335 700 l 1,20,-1
 335 750 l 1,21,-1
 525 750 l 1,22,-1
 525 50 l 1,23,-1
 593 50 l 1,24,-1
 593 0 l 1,25,-1
 431 0 l 1,26,-1
 422 104 l 1,27,-1
 418 104 l 1,0,1
290 56 m 0,28,29
 345 56 345 56 376 87 c 128,-1,30
 407 118 407 118 420 173 c 1,31,-1
 420 468 l 1,32,33
 400 478 400 478 375.5 483 c 128,-1,34
 351 488 351 488 311 488 c 0,35,36
 274 488 274 488 245.5 472 c 128,-1,37
 217 456 217 456 197.5 426 c 128,-1,38
 178 396 178 396 168 353.5 c 128,-1,39
 158 311 158 311 158 259 c 0,40,41
 158 217 158 217 165.5 180 c 128,-1,42
 173 143 173 143 189 115.5 c 128,-1,43
 205 88 205 88 230 72 c 128,-1,44
 255 56 255 56 290 56 c 0,28,29
EndSplineSet
EndChar

StartChar: e
Encoding: 101 101 72
Width: 566
Flags: W
LayerCount: 2
Fore
SplineSet
499 69 m 1,0,1
 473 32 473 32 425.5 10.5 c 128,-1,2
 378 -11 378 -11 315 -11 c 0,3,4
 249 -11 249 -11 198.5 8.5 c 128,-1,5
 148 28 148 28 114 63.5 c 128,-1,6
 80 99 80 99 62.5 149.5 c 128,-1,7
 45 200 45 200 45 262 c 0,8,9
 45 396 45 396 112 465.5 c 128,-1,10
 179 535 179 535 300 535 c 0,11,12
 340 535 340 535 378.5 525 c 128,-1,13
 417 515 417 515 447 492 c 128,-1,14
 477 469 477 469 495.5 431 c 128,-1,15
 514 393 514 393 514 337 c 0,16,17
 514 320 514 320 512 301 c 128,-1,18
 510 282 510 282 506 261 c 1,19,-1
 158 261 l 1,20,21
 158 217 158 217 169.5 181 c 128,-1,22
 181 145 181 145 204.5 119 c 128,-1,23
 228 93 228 93 263 78.5 c 128,-1,24
 298 64 298 64 346 64 c 0,25,26
 385 64 385 64 418.5 77 c 128,-1,27
 452 90 452 90 472 107 c 1,28,-1
 499 69 l 1,0,1
296 488 m 0,29,30
 265 488 265 488 241.5 479 c 128,-1,31
 218 470 218 470 201 449 c 128,-1,32
 184 428 184 428 174 393.5 c 128,-1,33
 164 359 164 359 161 308 c 1,34,-1
 402 308 l 1,35,36
 403 317 403 317 403.5 326.5 c 128,-1,37
 404 336 404 336 404 344 c 0,38,39
 404 410 404 410 377.5 449 c 128,-1,40
 351 488 351 488 296 488 c 0,29,30
EndSplineSet
EndChar

StartChar: f
Encoding: 102 102 73
Width: 385
Flags: W
LayerCount: 2
Fore
SplineSet
347 750 m 0,0,1
 382 750 382 750 409.5 744 c 128,-1,2
 437 738 437 738 451 733 c 1,3,-1
 451 636 l 1,4,-1
 355 636 l 1,5,-1
 355 700 l 1,6,7
 322 700 322 700 297.5 694 c 128,-1,8
 273 688 273 688 257 671 c 128,-1,9
 241 654 241 654 233 624.5 c 128,-1,10
 225 595 225 595 225 547 c 2,11,-1
 225 525 l 1,12,-1
 353 525 l 1,13,-1
 353 461 l 1,14,-1
 225 461 l 1,15,-1
 225 50 l 1,16,-1
 332 50 l 1,17,-1
 332 0 l 1,18,-1
 46 0 l 1,19,-1
 46 50 l 1,20,-1
 120 50 l 1,21,-1
 120 461 l 1,22,-1
 35 461 l 1,23,-1
 35 525 l 1,24,-1
 120 525 l 1,25,-1
 120 541 l 2,26,27
 120 642 120 642 180.5 696 c 128,-1,28
 241 750 241 750 347 750 c 0,0,1
EndSplineSet
EndChar

StartChar: g
Encoding: 103 103 74
Width: 592
Flags: W
LayerCount: 2
Fore
SplineSet
582 525 m 1,0,-1
 582 461 l 1,1,-1
 465 461 l 1,2,3
 479 447 479 447 491 422 c 128,-1,4
 503 397 503 397 503 362 c 0,5,6
 503 288 503 288 445 243 c 128,-1,7
 387 198 387 198 278 198 c 0,8,9
 258 198 258 198 244 198.5 c 128,-1,10
 230 199 230 199 214 203 c 1,11,12
 209 193 209 193 201.5 181.5 c 128,-1,13
 194 170 194 170 194 157 c 0,14,15
 194 136 194 136 220 125.5 c 128,-1,16
 246 115 246 115 285 106.5 c 128,-1,17
 324 98 324 98 370 89.5 c 128,-1,18
 416 81 416 81 455.5 64.5 c 128,-1,19
 495 48 495 48 521 21 c 128,-1,20
 547 -6 547 -6 547 -50 c 0,21,22
 547 -88 547 -88 527.5 -116.5 c 128,-1,23
 508 -145 508 -145 472.5 -163.5 c 128,-1,24
 437 -182 437 -182 388 -191 c 128,-1,25
 339 -200 339 -200 281 -200 c 0,26,27
 156 -200 156 -200 94 -167 c 128,-1,28
 32 -134 32 -134 32 -76 c 0,29,30
 32 -20 32 -20 70 10 c 128,-1,31
 108 40 108 40 177 60 c 1,32,33
 151 71 151 71 135 84 c 128,-1,34
 119 97 119 97 119 123 c 0,35,36
 119 135 119 135 125 147.5 c 128,-1,37
 131 160 131 160 141 171.5 c 128,-1,38
 151 183 151 183 163 192.5 c 128,-1,39
 175 202 175 202 186 208 c 1,40,41
 122 225 122 225 87.5 266 c 128,-1,42
 53 307 53 307 53 364 c 0,43,44
 53 437 53 437 110 481 c 128,-1,45
 167 525 167 525 278 525 c 2,46,-1
 582 525 l 1,0,-1
442 -74 m 0,47,48
 442 -41 442 -41 418.5 -21.5 c 128,-1,49
 395 -2 395 -2 359.5 10.5 c 128,-1,50
 324 23 324 23 283 31 c 128,-1,51
 242 39 242 39 206 50 c 1,52,53
 164 25 164 25 150.5 -0.5 c 128,-1,54
 137 -26 137 -26 137 -55 c 0,55,56
 137 -97 137 -97 179 -125 c 128,-1,57
 221 -153 221 -153 301 -153 c 0,58,59
 342 -153 342 -153 369 -146.5 c 128,-1,60
 396 -140 396 -140 412.5 -129 c 128,-1,61
 429 -118 429 -118 435.5 -104 c 128,-1,62
 442 -90 442 -90 442 -74 c 0,47,48
158 364 m 0,63,64
 158 338 158 338 164 316 c 128,-1,65
 170 294 170 294 183.5 278.5 c 128,-1,66
 197 263 197 263 220 254 c 128,-1,67
 243 245 243 245 278 245 c 0,68,69
 342 245 342 245 370 277.5 c 128,-1,70
 398 310 398 310 398 364 c 0,71,72
 398 385 398 385 396.5 399 c 128,-1,73
 395 413 395 413 392.5 424 c 128,-1,74
 390 435 390 435 387 443.5 c 128,-1,75
 384 452 384 452 381 461 c 1,76,77
 358 471 358 471 332 474.5 c 128,-1,78
 306 478 306 478 278 478 c 0,79,80
 210 478 210 478 184 450 c 128,-1,81
 158 422 158 422 158 364 c 0,63,64
EndSplineSet
EndChar

StartChar: h
Encoding: 104 104 75
Width: 661
Flags: W
LayerCount: 2
Fore
SplineSet
642 0 m 1,0,-1
 397 0 l 1,1,-1
 397 50 l 1,2,-1
 463 50 l 1,3,-1
 463 296 l 2,4,5
 463 379 463 379 441 423.5 c 128,-1,6
 419 468 419 468 363 468 c 0,7,8
 333 468 333 468 307 458 c 128,-1,9
 281 448 281 448 261 432 c 128,-1,10
 241 416 241 416 226.5 396.5 c 128,-1,11
 212 377 212 377 205 358 c 1,12,-1
 205 50 l 1,13,-1
 271 50 l 1,14,-1
 271 0 l 1,15,-1
 26 0 l 1,16,-1
 26 50 l 1,17,-1
 100 50 l 1,18,-1
 100 700 l 1,19,-1
 15 700 l 1,20,-1
 15 750 l 1,21,-1
 205 750 l 1,22,-1
 205 419 l 1,23,-1
 206 419 l 1,24,25
 229 468 229 468 278.5 501.5 c 128,-1,26
 328 535 328 535 397 535 c 0,27,28
 436 535 436 535 468 525.5 c 128,-1,29
 500 516 500 516 522 491 c 128,-1,30
 544 466 544 466 556 424 c 128,-1,31
 568 382 568 382 568 317 c 2,32,-1
 568 50 l 1,33,-1
 642 50 l 1,34,-1
 642 0 l 1,0,-1
EndSplineSet
EndChar

StartChar: i
Encoding: 105 105 76
Width: 339
Flags: W
LayerCount: 2
Fore
SplineSet
298 0 m 1,0,-1
 45 0 l 1,1,-1
 45 50 l 1,2,-1
 119 50 l 1,3,-1
 119 475 l 1,4,-1
 45 475 l 1,5,-1
 45 525 l 1,6,-1
 224 525 l 1,7,-1
 224 50 l 1,8,-1
 298 50 l 1,9,-1
 298 0 l 1,0,-1
97 687 m 256,10,11
 97 716 97 716 117.5 733 c 128,-1,12
 138 750 138 750 170 750 c 0,13,14
 204 750 204 750 223.5 733 c 128,-1,15
 243 716 243 716 243 687 c 256,16,17
 243 658 243 658 223.5 641 c 128,-1,18
 204 624 204 624 170 624 c 0,19,20
 138 624 138 624 117.5 641 c 128,-1,21
 97 658 97 658 97 687 c 256,10,11
EndSplineSet
EndChar

StartChar: j
Encoding: 106 106 77
Width: 326
Flags: W
LayerCount: 2
Fore
SplineSet
119 475 m 1,0,-1
 45 475 l 1,1,-1
 45 525 l 1,2,-1
 224 525 l 1,3,-1
 224 62 l 2,4,5
 224 -13 224 -13 203.5 -62 c 128,-1,6
 183 -111 183 -111 155 -141.5 c 128,-1,7
 127 -172 127 -172 98.5 -186.5 c 128,-1,8
 70 -201 70 -201 54 -206 c 1,9,-1
 27 -163 l 1,10,11
 40 -157 40 -157 56 -144.5 c 128,-1,12
 72 -132 72 -132 86 -109 c 128,-1,13
 100 -86 100 -86 109.5 -49.5 c 128,-1,14
 119 -13 119 -13 119 42 c 2,15,-1
 119 475 l 1,0,-1
96 687 m 256,16,17
 96 716 96 716 116.5 733 c 128,-1,18
 137 750 137 750 169 750 c 0,19,20
 203 750 203 750 222.5 733 c 128,-1,21
 242 716 242 716 242 687 c 256,22,23
 242 658 242 658 222.5 641 c 128,-1,24
 203 624 203 624 169 624 c 0,25,26
 137 624 137 624 116.5 641 c 128,-1,27
 96 658 96 658 96 687 c 256,16,17
EndSplineSet
EndChar

StartChar: k
Encoding: 107 107 78
Width: 582
Flags: W
LayerCount: 2
Fore
SplineSet
317 525 m 1,0,-1
 537 525 l 1,1,-1
 537 475 l 1,2,-1
 473 475 l 1,3,-1
 318 296 l 1,4,-1
 522 50 l 1,5,-1
 572 50 l 1,6,-1
 572 0 l 1,7,-1
 428 0 l 1,8,-1
 242 249 l 1,9,-1
 205 249 l 1,10,-1
 205 50 l 1,11,-1
 279 50 l 1,12,-1
 279 0 l 1,13,-1
 26 0 l 1,14,-1
 26 50 l 1,15,-1
 100 50 l 1,16,-1
 100 700 l 1,17,-1
 15 700 l 1,18,-1
 15 750 l 1,19,-1
 205 750 l 1,20,-1
 205 289 l 1,21,-1
 240 289 l 1,22,-1
 393 475 l 1,23,-1
 317 475 l 1,24,-1
 317 525 l 1,0,-1
EndSplineSet
EndChar

StartChar: l
Encoding: 108 108 79
Width: 339
Flags: W
LayerCount: 2
Fore
SplineSet
298 0 m 1,0,-1
 45 0 l 1,1,-1
 45 50 l 1,2,-1
 119 50 l 1,3,-1
 119 700 l 1,4,-1
 34 700 l 1,5,-1
 34 750 l 1,6,-1
 224 750 l 1,7,-1
 224 50 l 1,8,-1
 298 50 l 1,9,-1
 298 0 l 1,0,-1
EndSplineSet
EndChar

StartChar: m
Encoding: 109 109 80
Width: 971
Flags: W
LayerCount: 2
Fore
SplineSet
617 0 m 1,0,-1
 375 0 l 1,1,-1
 375 50 l 1,2,-1
 440 50 l 1,3,-1
 440 293 l 2,4,5
 440 335 440 335 436.5 368 c 128,-1,6
 433 401 433 401 422.5 423 c 128,-1,7
 412 445 412 445 392 456.5 c 128,-1,8
 372 468 372 468 340 468 c 0,9,10
 316 468 316 468 296 459.5 c 128,-1,11
 276 451 276 451 260 436 c 128,-1,12
 244 421 244 421 232.5 401.5 c 128,-1,13
 221 382 221 382 214 360 c 1,14,-1
 214 50 l 1,15,-1
 279 50 l 1,16,-1
 279 0 l 1,17,-1
 35 0 l 1,18,-1
 35 50 l 1,19,-1
 109 50 l 1,20,-1
 109 475 l 1,21,-1
 35 475 l 1,22,-1
 35 525 l 1,23,-1
 214 525 l 1,24,-1
 214 419 l 1,25,-1
 215 419 l 1,26,27
 232 468 232 468 275.5 501.5 c 128,-1,28
 319 535 319 535 382 535 c 0,29,30
 408 535 408 535 433.5 530 c 128,-1,31
 459 525 459 525 480 511 c 128,-1,32
 501 497 501 497 516.5 472.5 c 128,-1,33
 532 448 532 448 538 408 c 1,34,35
 548 433 548 433 564.5 456 c 128,-1,36
 581 479 581 479 603.5 496.5 c 128,-1,37
 626 514 626 514 654 524.5 c 128,-1,38
 682 535 682 535 715 535 c 0,39,40
 756 535 756 535 786.5 525 c 128,-1,41
 817 515 817 515 837.5 490.5 c 128,-1,42
 858 466 858 466 868 423.5 c 128,-1,43
 878 381 878 381 878 315 c 2,44,-1
 878 50 l 1,45,-1
 952 50 l 1,46,-1
 952 0 l 1,47,-1
 708 0 l 1,48,-1
 708 50 l 1,49,-1
 773 50 l 1,50,-1
 773 312 l 2,51,52
 773 349 773 349 769 378.5 c 128,-1,53
 765 408 765 408 754 427.5 c 128,-1,54
 743 447 743 447 723 457.5 c 128,-1,55
 703 468 703 468 670 468 c 0,56,57
 617 468 617 468 587.5 435.5 c 128,-1,58
 558 403 558 403 545 350 c 1,59,-1
 545 50 l 1,60,-1
 617 50 l 1,61,-1
 617 0 l 1,0,-1
EndSplineSet
EndChar

StartChar: n
Encoding: 110 110 81
Width: 670
Flags: W
LayerCount: 2
Fore
SplineSet
651 0 m 1,0,-1
 406 0 l 1,1,-1
 406 50 l 1,2,-1
 472 50 l 1,3,-1
 472 301 l 2,4,5
 472 380 472 380 448 424 c 128,-1,6
 424 468 424 468 360 468 c 0,7,8
 332 468 332 468 308.5 459 c 128,-1,9
 285 450 285 450 266.5 435 c 128,-1,10
 248 420 248 420 234.5 400 c 128,-1,11
 221 380 221 380 214 358 c 1,12,-1
 214 50 l 1,13,-1
 280 50 l 1,14,-1
 280 0 l 1,15,-1
 35 0 l 1,16,-1
 35 50 l 1,17,-1
 109 50 l 1,18,-1
 109 475 l 1,19,-1
 35 475 l 1,20,-1
 35 525 l 1,21,-1
 214 525 l 1,22,-1
 214 421 l 1,23,-1
 215 421 l 1,24,25
 238 469 238 469 282.5 502 c 128,-1,26
 327 535 327 535 390 535 c 0,27,28
 435 535 435 535 470 525.5 c 128,-1,29
 505 516 505 516 528.5 491 c 128,-1,30
 552 466 552 466 564.5 424 c 128,-1,31
 577 382 577 382 577 317 c 2,32,-1
 577 50 l 1,33,-1
 651 50 l 1,34,-1
 651 0 l 1,0,-1
EndSplineSet
EndChar

StartChar: o
Encoding: 111 111 82
Width: 622
Flags: W
LayerCount: 2
Fore
SplineSet
45 262 m 0,0,1
 45 328 45 328 64 379 c 128,-1,2
 83 430 83 430 117.5 464.5 c 128,-1,3
 152 499 152 499 201.5 517 c 128,-1,4
 251 535 251 535 311 535 c 0,5,6
 381 535 381 535 431.5 515.5 c 128,-1,7
 482 496 482 496 514 460.5 c 128,-1,8
 546 425 546 425 561.5 374.5 c 128,-1,9
 577 324 577 324 577 262 c 0,10,11
 577 196 577 196 558.5 145.5 c 128,-1,12
 540 95 540 95 505.5 60.5 c 128,-1,13
 471 26 471 26 421.5 8 c 128,-1,14
 372 -10 372 -10 311 -10 c 0,15,16
 243 -10 243 -10 193 9.5 c 128,-1,17
 143 29 143 29 110 64.5 c 128,-1,18
 77 100 77 100 61 150 c 128,-1,19
 45 200 45 200 45 262 c 0,0,1
158 262 m 0,20,21
 158 214 158 214 167 173 c 128,-1,22
 176 132 176 132 196.5 102 c 128,-1,23
 217 72 217 72 249.5 54.5 c 128,-1,24
 282 37 282 37 329 37 c 0,25,26
 388 37 388 37 426 91 c 128,-1,27
 464 145 464 145 464 262 c 0,28,29
 464 310 464 310 455 351.5 c 128,-1,30
 446 393 446 393 426.5 423.5 c 128,-1,31
 407 454 407 454 376.5 471 c 128,-1,32
 346 488 346 488 302 488 c 0,33,34
 236 488 236 488 197 434 c 128,-1,35
 158 380 158 380 158 262 c 0,20,21
EndSplineSet
Substitution2: "Single Substitution lookup 17 subtable" ordmasculine
EndChar

StartChar: q
Encoding: 113 113 84
Width: 616
Flags: W
LayerCount: 2
Fore
SplineSet
417 93 m 1,0,1
 409 72 409 72 395 53.5 c 128,-1,2
 381 35 381 35 361.5 20.5 c 128,-1,3
 342 6 342 6 317 -2.5 c 128,-1,4
 292 -11 292 -11 261 -11 c 0,5,6
 155 -11 155 -11 100 55 c 128,-1,7
 45 121 45 121 45 258 c 256,8,9
 45 395 45 395 118 465 c 128,-1,10
 191 535 191 535 328 535 c 0,11,12
 358 535 358 535 388 532 c 128,-1,13
 418 529 418 529 444.5 524 c 128,-1,14
 471 519 471 519 492.5 513.5 c 128,-1,15
 514 508 514 508 526 502 c 1,16,-1
 526 -150 l 1,17,-1
 600 -150 l 1,18,-1
 600 -200 l 1,19,-1
 347 -200 l 1,20,-1
 347 -150 l 1,21,-1
 421 -150 l 1,22,-1
 421 93 l 1,23,-1
 417 93 l 1,0,1
290 56 m 0,24,25
 344 56 344 56 375.5 87 c 128,-1,26
 407 118 407 118 421 172 c 1,27,-1
 421 473 l 1,28,29
 401 478 401 478 373.5 483 c 128,-1,30
 346 488 346 488 311 488 c 0,31,32
 237 488 237 488 197.5 433.5 c 128,-1,33
 158 379 158 379 158 261 c 0,34,35
 158 217 158 217 165 179.5 c 128,-1,36
 172 142 172 142 187.5 114.5 c 128,-1,37
 203 87 203 87 228 71.5 c 128,-1,38
 253 56 253 56 290 56 c 0,24,25
EndSplineSet
EndChar

StartChar: r
Encoding: 114 114 85
Width: 433
Flags: W
LayerCount: 2
Fore
SplineSet
284 435 m 1,0,1
 261 423 261 423 246 407 c 128,-1,2
 231 391 231 391 214 361 c 1,3,-1
 214 50 l 1,4,-1
 302 50 l 1,5,-1
 302 0 l 1,6,-1
 35 0 l 1,7,-1
 35 50 l 1,8,-1
 109 50 l 1,9,-1
 109 475 l 1,10,-1
 35 475 l 1,11,-1
 35 525 l 1,12,-1
 214 525 l 1,13,-1
 214 424 l 1,14,-1
 218 424 l 1,15,16
 235 457 235 457 258 481.5 c 128,-1,17
 281 506 281 506 310 525 c 1,18,-1
 406 525 l 1,19,-1
 406 435 l 1,20,-1
 284 435 l 1,0,1
EndSplineSet
EndChar

StartChar: s
Encoding: 115 115 86
Width: 486
Flags: W
LayerCount: 2
Fore
SplineSet
332 119 m 0,0,1
 332 146 332 146 312 166.5 c 128,-1,2
 292 187 292 187 262 204.5 c 128,-1,3
 232 222 232 222 197 239.5 c 128,-1,4
 162 257 162 257 132 279.5 c 128,-1,5
 102 302 102 302 82 332.5 c 128,-1,6
 62 363 62 363 62 406 c 0,7,8
 62 435 62 435 76 458.5 c 128,-1,9
 90 482 90 482 113.5 499 c 128,-1,10
 137 516 137 516 169 525.5 c 128,-1,11
 201 535 201 535 237 535 c 0,12,13
 267 535 267 535 290 533 c 128,-1,14
 313 531 313 531 332 527.5 c 128,-1,15
 351 524 351 524 368 519 c 128,-1,16
 385 514 385 514 403 508 c 1,17,-1
 403 373 l 1,18,-1
 339 373 l 1,19,-1
 339 452 l 1,20,-1
 320 474 l 1,21,22
 307 477 307 477 292 479 c 128,-1,23
 277 481 277 481 260 481 c 0,24,25
 212 481 212 481 188.5 462.5 c 128,-1,26
 165 444 165 444 165 416 c 0,27,28
 165 389 165 389 185 369 c 128,-1,29
 205 349 205 349 235 331.5 c 128,-1,30
 265 314 265 314 300 297 c 128,-1,31
 335 280 335 280 365 258.5 c 128,-1,32
 395 237 395 237 415 209 c 128,-1,33
 435 181 435 181 435 142 c 0,34,35
 435 106 435 106 418.5 78 c 128,-1,36
 402 50 402 50 373.5 30.5 c 128,-1,37
 345 11 345 11 306.5 0.5 c 128,-1,38
 268 -10 268 -10 225 -10 c 0,39,40
 177 -10 177 -10 131.5 2.5 c 128,-1,41
 86 15 86 15 60 32 c 1,42,-1
 60 163 l 1,43,-1
 124 163 l 1,44,-1
 124 87 l 1,45,-1
 144 66 l 1,46,47
 157 56 157 56 175 50 c 128,-1,48
 193 44 193 44 222 44 c 0,49,50
 270 44 270 44 301 64 c 128,-1,51
 332 84 332 84 332 119 c 0,0,1
EndSplineSet
Substitution2: "'hist' Historical Forms lookup 16 subtable" longs
Substitution2: "'aalt' Access All Alternates lookup 0 subtable" longs
EndChar

StartChar: t
Encoding: 116 116 87
Width: 418
Flags: W
LayerCount: 2
Fore
SplineSet
17 525 m 1,0,-1
 106 525 l 1,1,-1
 106 650 l 1,2,-1
 211 650 l 1,3,-1
 211 525 l 1,4,-1
 377 525 l 1,5,-1
 377 461 l 1,6,-1
 211 461 l 1,7,-1
 211 169 l 2,8,9
 211 106 211 106 227 80 c 128,-1,10
 243 54 243 54 279 54 c 0,11,12
 310 54 310 54 332.5 65 c 128,-1,13
 355 76 355 76 374 89 c 1,14,-1
 399 50 l 1,15,16
 390 41 390 41 374.5 30.5 c 128,-1,17
 359 20 359 20 339 11 c 128,-1,18
 319 2 319 2 294.5 -4 c 128,-1,19
 270 -10 270 -10 244 -10 c 0,20,21
 177 -10 177 -10 141.5 24.5 c 128,-1,22
 106 59 106 59 106 139 c 2,23,-1
 106 461 l 1,24,-1
 17 461 l 1,25,-1
 17 525 l 1,0,-1
EndSplineSet
EndChar

StartChar: u
Encoding: 117 117 88
Width: 647
Flags: W
LayerCount: 2
Fore
SplineSet
87 208 m 0,0,1
 87 274 87 274 90 343 c 128,-1,2
 93 412 93 412 93 475 c 1,3,-1
 19 475 l 1,4,-1
 19 525 l 1,5,-1
 197 525 l 1,6,7
 195 447 195 447 193.5 375.5 c 128,-1,8
 192 304 192 304 192 227 c 0,9,10
 192 186 192 186 196.5 154.5 c 128,-1,11
 201 123 201 123 213.5 101 c 128,-1,12
 226 79 226 79 248 68 c 128,-1,13
 270 57 270 57 304 57 c 0,14,15
 354 57 354 57 388 89 c 128,-1,16
 422 121 422 121 440 175 c 1,17,-1
 440 475 l 1,18,-1
 367 475 l 1,19,-1
 367 525 l 1,20,-1
 545 525 l 1,21,-1
 545 50 l 1,22,-1
 619 50 l 1,23,-1
 619 0 l 1,24,-1
 452 0 l 1,25,-1
 445 114 l 1,26,-1
 440 114 l 1,27,28
 435 93 435 93 420.5 71 c 128,-1,29
 406 49 406 49 384 31 c 128,-1,30
 362 13 362 13 333 1.5 c 128,-1,31
 304 -10 304 -10 270 -10 c 0,32,33
 225 -10 225 -10 191 -0.5 c 128,-1,34
 157 9 157 9 134 34 c 128,-1,35
 111 59 111 59 99 101 c 128,-1,36
 87 143 87 143 87 208 c 0,0,1
EndSplineSet
EndChar

StartChar: v
Encoding: 118 118 89
Width: 571
Flags: W
LayerCount: 2
Fore
SplineSet
238 0 m 1,0,-1
 46 475 l 1,1,-1
 -11 475 l 1,2,-1
 -11 525 l 1,3,-1
 227 525 l 1,4,-1
 227 475 l 1,5,-1
 160 475 l 1,6,-1
 280 160 l 1,7,-1
 306 51 l 1,8,-1
 311 51 l 1,9,-1
 339 160 l 1,10,-1
 451 475 l 1,11,-1
 390 475 l 1,12,-1
 390 525 l 1,13,-1
 582 525 l 1,14,-1
 582 475 l 1,15,-1
 520 475 l 1,16,-1
 346 0 l 1,17,-1
 238 0 l 1,0,-1
EndSplineSet
EndChar

StartChar: w
Encoding: 119 119 90
Width: 820
Flags: W
LayerCount: 2
Fore
SplineSet
176 0 m 1,0,-1
 49 475 l 1,1,-1
 -11 475 l 1,2,-1
 -11 525 l 1,3,-1
 225 525 l 1,4,-1
 225 475 l 1,5,-1
 158 475 l 1,6,-1
 241 138 l 1,7,-1
 253 61 l 1,8,-1
 259 61 l 1,9,-1
 274 139 l 1,10,-1
 394 512 l 1,11,-1
 473 512 l 1,12,-1
 575 161 l 1,13,-1
 597 61 l 1,14,-1
 602 61 l 1,15,-1
 621 159 l 1,16,-1
 700 475 l 1,17,-1
 638 475 l 1,18,-1
 638 525 l 1,19,-1
 831 525 l 1,20,-1
 831 475 l 1,21,-1
 768 475 l 1,22,-1
 636 0 l 1,23,-1
 519 0 l 1,24,-1
 439 299 l 2,25,26
 438 300 438 300 435.5 313.5 c 128,-1,27
 433 327 433 327 429 344 c 0,28,29
 425 363 425 363 419 387 c 1,30,-1
 413 387 l 1,31,32
 406 362 406 362 401 344 c 0,33,34
 396 327 396 327 392 314 c 128,-1,35
 388 301 388 301 388 299 c 2,36,-1
 286 0 l 1,37,-1
 176 0 l 1,0,-1
EndSplineSet
EndChar

StartChar: x
Encoding: 120 120 91
Width: 586
Flags: W
LayerCount: 2
Fore
SplineSet
338 281 m 1,0,-1
 515 50 l 1,1,-1
 574 50 l 1,2,-1
 574 0 l 1,3,-1
 330 0 l 1,4,-1
 330 50 l 1,5,-1
 397 50 l 1,6,-1
 274 224 l 1,7,-1
 150 50 l 1,8,-1
 205 50 l 1,9,-1
 205 0 l 1,10,-1
 12 0 l 1,11,-1
 12 50 l 1,12,-1
 75 50 l 1,13,-1
 242 260 l 1,14,-1
 74 475 l 1,15,-1
 19 475 l 1,16,-1
 19 525 l 1,17,-1
 259 525 l 1,18,-1
 259 475 l 1,19,-1
 194 475 l 1,20,-1
 309 316 l 1,21,-1
 421 475 l 1,22,-1
 366 475 l 1,23,-1
 366 525 l 1,24,-1
 554 525 l 1,25,-1
 554 475 l 1,26,-1
 492 475 l 1,27,-1
 338 281 l 1,0,-1
EndSplineSet
EndChar

StartChar: y
Encoding: 121 121 92
Width: 568
Flags: W
LayerCount: 2
Fore
SplineSet
47 475 m 1,0,-1
 -12 475 l 1,1,-1
 -12 525 l 1,2,-1
 246 525 l 1,3,-1
 246 475 l 1,4,-1
 162 475 l 1,5,-1
 298 143 l 1,6,-1
 318 67 l 1,7,-1
 323 67 l 1,8,-1
 342 144 l 1,9,-1
 449 475 l 1,10,-1
 388 475 l 1,11,-1
 388 525 l 1,12,-1
 580 525 l 1,13,-1
 580 475 l 1,14,-1
 516 475 l 1,15,-1
 352 0 l 2,16,17
 338 -41 338 -41 321.5 -75.5 c 128,-1,18
 305 -110 305 -110 289.5 -136.5 c 128,-1,19
 274 -163 274 -163 259.5 -179.5 c 128,-1,20
 245 -196 245 -196 235 -200 c 1,21,-1
 134 -200 l 1,22,-1
 134 -110 l 1,23,-1
 236 -110 l 1,24,25
 243 -102 243 -102 249 -94 c 128,-1,26
 255 -86 255 -86 261 -74 c 128,-1,27
 267 -62 267 -62 274 -44.5 c 128,-1,28
 281 -27 281 -27 290 0 c 1,29,-1
 253 0 l 1,30,-1
 47 475 l 1,0,-1
EndSplineSet
EndChar

StartChar: z
Encoding: 122 122 93
Width: 549
Flags: W
LayerCount: 2
Fore
SplineSet
491 181 m 1,0,-1
 491 0 l 1,1,-1
 57 0 l 1,2,-1
 57 50 l 1,3,-1
 386 475 l 1,4,-1
 169 475 l 1,5,-1
 149 455 l 1,6,-1
 149 355 l 1,7,-1
 85 355 l 1,8,-1
 85 525 l 1,9,-1
 501 525 l 1,10,-1
 501 475 l 1,11,-1
 170 50 l 1,12,-1
 407 50 l 1,13,-1
 427 70 l 1,14,-1
 427 181 l 1,15,-1
 491 181 l 1,0,-1
EndSplineSet
EndChar

StartChar: braceleft
Encoding: 123 123 94
Width: 391
Flags: W
LayerCount: 2
Fore
SplineSet
150 110 m 2,0,1
 150 161 150 161 127 190 c 128,-1,2
 104 219 104 219 60 219 c 1,3,-1
 60 251 l 1,4,5
 104 251 104 251 127 281.5 c 128,-1,6
 150 312 150 312 150 356 c 2,7,-1
 150 594 l 2,8,9
 150 642 150 642 177 671 c 128,-1,10
 204 700 204 700 258 700 c 2,11,-1
 361 700 l 1,12,-1
 361 658 l 1,13,-1
 308 658 l 2,14,15
 278 658 278 658 264 644 c 128,-1,16
 250 630 250 630 250 598 c 2,17,-1
 250 365 l 2,18,19
 250 332 250 332 238 309 c 128,-1,20
 226 286 226 286 208 271.5 c 128,-1,21
 190 257 190 257 168 249.5 c 128,-1,22
 146 242 146 242 126 240 c 1,23,-1
 126 234 l 1,24,25
 145 232 145 232 167 224 c 128,-1,26
 189 216 189 216 207.5 200 c 128,-1,27
 226 184 226 184 238 160.5 c 128,-1,28
 250 137 250 137 250 105 c 2,29,-1
 250 -128 l 2,30,31
 250 -159 250 -159 264 -173.5 c 128,-1,32
 278 -188 278 -188 310 -188 c 2,33,-1
 361 -188 l 1,34,-1
 361 -230 l 1,35,-1
 258 -230 l 2,36,37
 208 -230 208 -230 179 -203.5 c 128,-1,38
 150 -177 150 -177 150 -125 c 2,39,-1
 150 110 l 2,0,1
EndSplineSet
Position2: "'case' Case-Sensitive Forms lookup 1 per glyph data 3" dx=0 dy=100 dh=0 dv=0
EndChar

StartChar: bar
Encoding: 124 124 95
Width: 266
Flags: W
LayerCount: 2
Fore
SplineSet
103 700 m 1,0,-1
 162 700 l 1,1,-1
 162 -130 l 1,2,-1
 103 -130 l 1,3,-1
 103 700 l 1,0,-1
EndSplineSet
EndChar

StartChar: braceright
Encoding: 125 125 96
Width: 391
Flags: W
LayerCount: 2
Fore
SplineSet
241 361 m 2,0,1
 241 310 241 310 264.5 281 c 128,-1,2
 288 252 288 252 331 252 c 1,3,-1
 331 220 l 1,4,5
 288 220 288 220 264.5 189.5 c 128,-1,6
 241 159 241 159 241 115 c 2,7,-1
 241 -124 l 2,8,9
 241 -172 241 -172 214 -201 c 128,-1,10
 187 -230 187 -230 132 -230 c 2,11,-1
 30 -230 l 1,12,-1
 30 -188 l 1,13,-1
 83 -188 l 2,14,15
 113 -188 113 -188 127 -174 c 128,-1,16
 141 -160 141 -160 141 -128 c 2,17,-1
 141 106 l 2,18,19
 141 139 141 139 151 162 c 128,-1,20
 161 185 161 185 177.5 199.5 c 128,-1,21
 194 214 194 214 214 221.5 c 128,-1,22
 234 229 234 229 254 231 c 1,23,-1
 254 237 l 1,24,25
 234 239 234 239 214 247 c 128,-1,26
 194 255 194 255 178 271 c 128,-1,27
 162 287 162 287 151.5 310.5 c 128,-1,28
 141 334 141 334 141 366 c 2,29,-1
 141 598 l 2,30,31
 141 629 141 629 127.5 643.5 c 128,-1,32
 114 658 114 658 82 658 c 2,33,-1
 30 658 l 1,34,-1
 30 700 l 1,35,-1
 133 700 l 2,36,37
 183 700 183 700 212 673.5 c 128,-1,38
 241 647 241 647 241 595 c 2,39,-1
 241 361 l 2,0,1
EndSplineSet
Position2: "'case' Case-Sensitive Forms lookup 1 per glyph data 3" dx=0 dy=100 dh=0 dv=0
EndChar

StartChar: asciitilde
Encoding: 126 126 97
Width: 600
Flags: W
LayerCount: 2
Fore
SplineSet
61 331 m 1,0,1
 102 385 102 385 143 401.5 c 128,-1,2
 184 418 184 418 219 418 c 0,3,4
 248 418 248 418 274.5 407.5 c 128,-1,5
 301 397 301 397 327 384 c 128,-1,6
 353 371 353 371 379 360.5 c 128,-1,7
 405 350 405 350 433 350 c 0,8,9
 454 350 454 350 475.5 357.5 c 128,-1,10
 497 365 497 365 520 384 c 1,11,-1
 539 352 l 1,12,13
 507 310 507 310 473.5 297.5 c 128,-1,14
 440 285 440 285 408 285 c 0,15,16
 379 285 379 285 351.5 295.5 c 128,-1,17
 324 306 324 306 297 319 c 128,-1,18
 270 332 270 332 243 342.5 c 128,-1,19
 216 353 216 353 189 353 c 0,20,21
 164 353 164 353 139.5 342.5 c 128,-1,22
 115 332 115 332 89 301 c 1,23,-1
 61 331 l 1,0,1
EndSplineSet
EndChar

StartChar: cent
Encoding: 162 162 100
Width: 600
Flags: W
LayerCount: 2
Fore
SplineSet
547 78 m 1,0,1
 537 60 537 60 519.5 44 c 128,-1,2
 502 28 502 28 478.5 15.5 c 128,-1,3
 455 3 455 3 427.5 -4.5 c 128,-1,4
 400 -12 400 -12 369 -12 c 1,5,-1
 369 -170 l 1,6,-1
 305 -170 l 1,7,-1
 305 -8 l 1,8,9
 252 -2 252 -2 208.5 19 c 128,-1,10
 165 40 165 40 133.5 73.5 c 128,-1,11
 102 107 102 107 85 152 c 128,-1,12
 68 197 68 197 68 250 c 0,13,14
 68 312 68 312 85 361 c 128,-1,15
 102 410 102 410 133.5 445 c 128,-1,16
 165 480 165 480 208.5 501.5 c 128,-1,17
 252 523 252 523 305 531 c 1,18,-1
 305 660 l 1,19,-1
 369 660 l 1,20,-1
 369 535 l 1,21,22
 423 535 423 535 456.5 527 c 128,-1,23
 490 519 490 519 520 505 c 1,24,-1
 520 338 l 1,25,-1
 456 338 l 1,26,-1
 456 475 l 1,27,28
 453 477 453 477 444.5 479.5 c 128,-1,29
 436 482 436 482 425 484.5 c 128,-1,30
 414 487 414 487 402 488.5 c 128,-1,31
 390 490 390 490 378 490 c 2,32,-1
 367 490 l 1,33,-1
 367 50 l 1,34,35
 371 50 371 50 375 49.5 c 128,-1,36
 379 49 379 49 383 49 c 0,37,38
 421 49 421 49 455 63 c 128,-1,39
 489 77 489 77 522 109 c 1,40,-1
 547 78 l 1,0,1
181 269 m 0,41,42
 181 198 181 198 213 145.5 c 128,-1,43
 245 93 245 93 309 68 c 1,44,-1
 309 482 l 1,45,46
 252 466 252 466 216.5 411.5 c 128,-1,47
 181 357 181 357 181 269 c 0,41,42
EndSplineSet
EndChar

StartChar: sterling
Encoding: 163 163 101
Width: 600
Flags: W
LayerCount: 2
Fore
SplineSet
34 381 m 1,0,-1
 129 381 l 1,1,2
 112 413 112 413 99 448 c 128,-1,3
 86 483 86 483 86 534 c 0,4,5
 86 575 86 575 103 608 c 128,-1,6
 120 641 120 641 150.5 664 c 128,-1,7
 181 687 181 687 223.5 699.5 c 128,-1,8
 266 712 266 712 318 712 c 0,9,10
 387 712 387 712 439 702.5 c 128,-1,11
 491 693 491 693 523 679 c 1,12,-1
 523 507 l 1,13,-1
 459 507 l 1,14,-1
 459 622 l 1,15,-1
 439 646 l 1,16,17
 428 649 428 649 418 651.5 c 128,-1,18
 408 654 408 654 394.5 655.5 c 128,-1,19
 381 657 381 657 362.5 657.5 c 128,-1,20
 344 658 344 658 317 658 c 0,21,22
 293 658 293 658 270.5 651 c 128,-1,23
 248 644 248 644 231 630 c 128,-1,24
 214 616 214 616 204 595.5 c 128,-1,25
 194 575 194 575 194 548 c 0,26,27
 194 497 194 497 209 457.5 c 128,-1,28
 224 418 224 418 238 381 c 1,29,-1
 411 381 l 1,30,-1
 411 329 l 1,31,-1
 258 329 l 1,32,33
 266 304 266 304 268 279 c 128,-1,34
 270 254 270 254 270 226 c 0,35,36
 270 210 270 210 267.5 194.5 c 128,-1,37
 265 179 265 179 256 162 c 128,-1,38
 247 145 247 145 230 126 c 128,-1,39
 213 107 213 107 185 83 c 1,40,-1
 464 83 l 1,41,-1
 484 103 l 1,42,-1
 484 196 l 1,43,-1
 548 196 l 1,44,-1
 548 0 l 1,45,-1
 37 0 l 1,46,-1
 37 33 l 1,47,48
 109 60 109 60 144.5 99 c 128,-1,49
 180 138 180 138 180 198 c 0,50,51
 180 230 180 230 174.5 260.5 c 128,-1,52
 169 291 169 291 155 329 c 1,53,-1
 34 329 l 1,54,-1
 34 381 l 1,0,-1
EndSplineSet
EndChar

StartChar: yen
Encoding: 165 165 103
Width: 600
Flags: W
LayerCount: 2
Fore
SplineSet
404 700 m 1,0,-1
 651 700 l 1,1,-1
 651 650 l 1,2,-1
 565 650 l 1,3,-1
 388 335 l 1,4,-1
 547 335 l 1,5,-1
 547 283 l 1,6,-1
 366 283 l 1,7,-1
 366 220 l 1,8,-1
 547 220 l 1,9,-1
 547 168 l 1,10,-1
 366 168 l 1,11,-1
 366 50 l 1,12,-1
 457 50 l 1,13,-1
 457 0 l 1,14,-1
 163 0 l 1,15,-1
 163 50 l 1,16,-1
 254 50 l 1,17,-1
 254 168 l 1,18,-1
 73 168 l 1,19,-1
 73 220 l 1,20,-1
 254 220 l 1,21,-1
 254 283 l 1,22,-1
 73 283 l 1,23,-1
 73 335 l 1,24,-1
 231 335 l 1,25,-1
 38 650 l 1,26,-1
 -53 650 l 1,27,-1
 -53 700 l 1,28,-1
 250 700 l 1,29,-1
 250 650 l 1,30,-1
 164 650 l 1,31,-1
 335 351 l 1,32,-1
 495 650 l 1,33,-1
 404 650 l 1,34,-1
 404 700 l 1,0,-1
EndSplineSet
EndChar

StartChar: brokenbar
Encoding: 166 166 104
Width: 266
Flags: W
LayerCount: 2
Fore
SplineSet
103 190 m 1,0,-1
 162 190 l 1,1,-1
 162 -130 l 1,2,-1
 103 -130 l 1,3,-1
 103 190 l 1,0,-1
162 380 m 1,4,-1
 103 380 l 1,5,-1
 103 700 l 1,6,-1
 162 700 l 1,7,-1
 162 380 l 1,4,-1
EndSplineSet
EndChar

StartChar: section
Encoding: 167 167 105
Width: 595
Flags: W
LayerCount: 2
Fore
SplineSet
390 43 m 0,0,1
 390 73 390 73 366 91 c 128,-1,2
 342 109 342 109 306 122.5 c 128,-1,3
 270 136 270 136 228 148.5 c 128,-1,4
 186 161 186 161 150 180 c 128,-1,5
 114 199 114 199 90 228 c 128,-1,6
 66 257 66 257 66 304 c 0,7,8
 66 329 66 329 77.5 350.5 c 128,-1,9
 89 372 89 372 109 390 c 128,-1,10
 129 408 129 408 155.5 422.5 c 128,-1,11
 182 437 182 437 213 449 c 1,12,13
 190 459 190 459 169.5 471 c 128,-1,14
 149 483 149 483 134 499.5 c 128,-1,15
 119 516 119 516 110 537.5 c 128,-1,16
 101 559 101 559 101 587 c 0,17,18
 101 614 101 614 114.5 637 c 128,-1,19
 128 660 128 660 152.5 676.5 c 128,-1,20
 177 693 177 693 211.5 702.5 c 128,-1,21
 246 712 246 712 288 712 c 0,22,23
 348 712 348 712 391.5 706 c 128,-1,24
 435 700 435 700 471 689 c 1,25,-1
 471 587 l 1,26,-1
 399 587 l 1,27,-1
 399 650 l 1,28,29
 387 655 387 655 364 661.5 c 128,-1,30
 341 668 341 668 315 668 c 0,31,32
 285 668 285 668 264 661.5 c 128,-1,33
 243 655 243 655 229.5 645 c 128,-1,34
 216 635 216 635 210 622 c 128,-1,35
 204 609 204 609 204 596 c 0,36,37
 204 566 204 566 228 547 c 128,-1,38
 252 528 252 528 288 513 c 128,-1,39
 324 498 324 498 366 484 c 128,-1,40
 408 470 408 470 444 451.5 c 128,-1,41
 480 433 480 433 504 405.5 c 128,-1,42
 528 378 528 378 528 337 c 0,43,44
 528 308 528 308 514.5 284.5 c 128,-1,45
 501 261 501 261 480 242.5 c 128,-1,46
 459 224 459 224 433.5 209 c 128,-1,47
 408 194 408 194 384 184 c 1,48,49
 406 175 406 175 426 164.5 c 128,-1,50
 446 154 446 154 461 140 c 128,-1,51
 476 126 476 126 484.5 108.5 c 128,-1,52
 493 91 493 91 493 68 c 0,53,54
 493 33 493 33 477.5 5.5 c 128,-1,55
 462 -22 462 -22 433 -41.5 c 128,-1,56
 404 -61 404 -61 363 -71.5 c 128,-1,57
 322 -82 322 -82 272 -82 c 0,58,59
 175 -82 175 -82 90 -52 c 1,60,-1
 90 53 l 1,61,-1
 162 53 l 1,62,-1
 162 -10 l 1,63,64
 174 -18 174 -18 203 -28 c 128,-1,65
 232 -38 232 -38 270 -38 c 0,66,67
 324 -38 324 -38 357 -14 c 128,-1,68
 390 10 390 10 390 43 c 0,0,1
425 312 m 0,69,70
 425 336 425 336 411.5 353 c 128,-1,71
 398 370 398 370 375.5 383 c 128,-1,72
 353 396 353 396 324 406.5 c 128,-1,73
 295 417 295 417 265 428 c 1,74,75
 247 420 247 420 229.5 409 c 128,-1,76
 212 398 212 398 198.5 385 c 128,-1,77
 185 372 185 372 177 357 c 128,-1,78
 169 342 169 342 169 326 c 0,79,80
 169 300 169 300 183 281 c 128,-1,81
 197 262 197 262 220 248 c 128,-1,82
 243 234 243 234 272.5 223.5 c 128,-1,83
 302 213 302 213 333 203 c 1,84,85
 351 213 351 213 367.5 226.5 c 128,-1,86
 384 240 384 240 397 254.5 c 128,-1,87
 410 269 410 269 417.5 283.5 c 128,-1,88
 425 298 425 298 425 312 c 0,69,70
EndSplineSet
EndChar

StartChar: dieresis
Encoding: 168 168 106
Width: 494
Flags: W
LayerCount: 2
Fore
SplineSet
60 688 m 0,0,1
 60 717 60 717 77.5 734.5 c 128,-1,2
 95 752 95 752 124 752 c 256,3,4
 153 752 153 752 170.5 734.5 c 128,-1,5
 188 717 188 717 188 688 c 0,6,7
 188 661 188 661 170.5 643.5 c 128,-1,8
 153 626 153 626 124 626 c 256,9,10
 95 626 95 626 77.5 643.5 c 128,-1,11
 60 661 60 661 60 688 c 0,0,1
306 688 m 0,12,13
 306 717 306 717 324.5 734.5 c 128,-1,14
 343 752 343 752 371 752 c 0,15,16
 400 752 400 752 417 734.5 c 128,-1,17
 434 717 434 717 434 688 c 0,18,19
 434 661 434 661 417 643.5 c 128,-1,20
 400 626 400 626 371 626 c 0,21,22
 343 626 343 626 324.5 643.5 c 128,-1,23
 306 661 306 661 306 688 c 0,12,13
EndSplineSet
EndChar

StartChar: copyright
Encoding: 169 169 107
Width: 907
Flags: W
LayerCount: 2
Fore
SplineSet
78 290 m 256,0,1
 78 373 78 373 109 438.5 c 128,-1,2
 140 504 140 504 192 549 c 128,-1,3
 244 594 244 594 312 618 c 128,-1,4
 380 642 380 642 453 642 c 256,5,6
 526 642 526 642 592.5 618 c 128,-1,7
 659 594 659 594 709.5 549 c 128,-1,8
 760 504 760 504 789.5 438.5 c 128,-1,9
 819 373 819 373 819 290 c 256,10,11
 819 207 819 207 789.5 141.5 c 128,-1,12
 760 76 760 76 709.5 31 c 128,-1,13
 659 -14 659 -14 592.5 -38 c 128,-1,14
 526 -62 526 -62 453 -62 c 0,15,16
 372 -62 372 -62 303.5 -38 c 128,-1,17
 235 -14 235 -14 184.5 31 c 128,-1,18
 134 76 134 76 106 141.5 c 128,-1,19
 78 207 78 207 78 290 c 256,0,1
132 290 m 256,20,21
 132 221 132 221 156 165 c 128,-1,22
 180 109 180 109 223 69.5 c 128,-1,23
 266 30 266 30 325 8 c 128,-1,24
 384 -14 384 -14 453 -14 c 0,25,26
 523 -14 523 -14 580.5 8 c 128,-1,27
 638 30 638 30 679 69.5 c 128,-1,28
 720 109 720 109 742.5 165 c 128,-1,29
 765 221 765 221 765 290 c 256,30,31
 765 359 765 359 741 415 c 128,-1,32
 717 471 717 471 675 511 c 128,-1,33
 633 551 633 551 576 572.5 c 128,-1,34
 519 594 519 594 453 594 c 0,35,36
 379 594 379 594 320 572 c 128,-1,37
 261 550 261 550 219 510.5 c 128,-1,38
 177 471 177 471 154.5 415 c 128,-1,39
 132 359 132 359 132 290 c 256,20,21
545 207 m 1,40,-1
 591 207 l 1,41,-1
 591 107 l 1,42,43
 571 93 571 93 542 87.5 c 128,-1,44
 513 82 513 82 481 82 c 0,45,46
 427 82 427 82 381.5 95.5 c 128,-1,47
 336 109 336 109 303 135.5 c 128,-1,48
 270 162 270 162 251.5 201 c 128,-1,49
 233 240 233 240 233 291 c 0,50,51
 233 343 233 343 253.5 382 c 128,-1,52
 274 421 274 421 307 447 c 128,-1,53
 340 473 340 473 382 486.5 c 128,-1,54
 424 500 424 500 467 500 c 0,55,56
 512 500 512 500 542 494.5 c 128,-1,57
 572 489 572 489 595 478 c 1,58,-1
 595 369 l 1,59,-1
 545 369 l 1,60,-1
 545 447 l 1,61,62
 542 449 542 449 533.5 451 c 128,-1,63
 525 453 525 453 515 454.5 c 128,-1,64
 505 456 505 456 494 457 c 128,-1,65
 483 458 483 458 475 458 c 0,66,67
 412 458 412 458 376.5 413.5 c 128,-1,68
 341 369 341 369 341 291 c 0,69,70
 341 258 341 258 349 227.5 c 128,-1,71
 357 197 357 197 374.5 174 c 128,-1,72
 392 151 392 151 420 137.5 c 128,-1,73
 448 124 448 124 487 124 c 0,74,75
 508 124 508 124 524 129 c 128,-1,76
 540 134 540 134 545 138 c 1,77,-1
 545 207 l 1,40,-1
EndSplineSet
EndChar

StartChar: ordfeminine
Encoding: 170 170 108
Width: 484
Flags: W
LayerCount: 2
Fore
SplineSet
96 600 m 1,0,-1
 90 673 l 1,1,2
 104 679 104 679 119.5 685 c 128,-1,3
 135 691 135 691 155.5 695 c 128,-1,4
 176 699 176 699 202.5 701.5 c 128,-1,5
 229 704 229 704 265 704 c 0,6,7
 337 704 337 704 364 678 c 128,-1,8
 391 652 391 652 391 603 c 0,9,10
 391 584 391 584 390.5 560.5 c 128,-1,11
 390 537 390 537 389.5 513 c 128,-1,12
 389 489 389 489 388.5 467.5 c 128,-1,13
 388 446 388 446 388 430 c 1,14,-1
 444 430 l 1,15,-1
 444 380 l 1,16,-1
 321 380 l 1,17,-1
 311 439 l 1,18,-1
 306 439 l 1,19,20
 300 430 300 430 290 418 c 128,-1,21
 280 406 280 406 264.5 396 c 128,-1,22
 249 386 249 386 226 379 c 128,-1,23
 203 372 203 372 172 372 c 0,24,25
 120 372 120 372 87.5 396.5 c 128,-1,26
 55 421 55 421 55 465 c 0,27,28
 55 496 55 496 72.5 515.5 c 128,-1,29
 90 535 90 535 120 546 c 128,-1,30
 150 557 150 557 190 561.5 c 128,-1,31
 230 566 230 566 274 566 c 0,32,33
 282 566 282 566 289.5 565.5 c 128,-1,34
 297 565 297 565 305 565 c 1,35,36
 306 571 306 571 306 582.5 c 128,-1,37
 306 594 306 594 306 599 c 0,38,39
 306 612 306 612 303 624 c 128,-1,40
 300 636 300 636 291 645.5 c 128,-1,41
 282 655 282 655 266.5 660.5 c 128,-1,42
 251 666 251 666 227 666 c 0,43,44
 214 666 214 666 198.5 663.5 c 128,-1,45
 183 661 183 661 167 656 c 1,46,-1
 167 600 l 1,47,-1
 96 600 l 1,0,-1
206 419 m 0,48,49
 229 419 229 419 245.5 425.5 c 128,-1,50
 262 432 262 432 274 441 c 128,-1,51
 286 450 286 450 293 460.5 c 128,-1,52
 300 471 300 471 305 480 c 1,53,-1
 305 532 l 1,54,55
 294 533 294 533 282 533 c 128,-1,56
 270 533 270 533 259 533 c 0,57,58
 237 533 237 533 216.5 529.5 c 128,-1,59
 196 526 196 526 180.5 518.5 c 128,-1,60
 165 511 165 511 156 499 c 128,-1,61
 147 487 147 487 147 471 c 0,62,63
 147 451 147 451 162 435 c 128,-1,64
 177 419 177 419 206 419 c 0,48,49
EndSplineSet
EndChar

StartChar: guillemotleft
Encoding: 171 171 109
Width: 530
Flags: W
LayerCount: 2
Fore
SplineSet
246 259 m 1,0,-1
 437 465 l 1,1,-1
 466 445 l 1,2,-1
 347 266 l 1,3,-1
 472 77 l 1,4,-1
 445 56 l 1,5,-1
 246 259 l 1,0,-1
27 259 m 1,6,-1
 268 467 l 1,7,-1
 297 446 l 1,8,-1
 142 265 l 1,9,-1
 304 76 l 1,10,-1
 274 54 l 1,11,-1
 27 259 l 1,6,-1
EndSplineSet
Position2: "'case' Case-Sensitive Forms lookup 1 per glyph data 3" dx=0 dy=100 dh=0 dv=0
EndChar

StartChar: logicalnot
Encoding: 172 172 110
Width: 600
Flags: W
LayerCount: 2
Fore
SplineSet
67 388 m 1,0,-1
 545 388 l 1,1,-1
 545 198 l 1,2,-1
 474 198 l 1,3,-1
 474 324 l 1,4,-1
 67 324 l 1,5,-1
 67 388 l 1,0,-1
EndSplineSet
EndChar

StartChar: registered
Encoding: 174 174 112
Width: 785
Flags: W
LayerCount: 2
Fore
SplineSet
109 451 m 0,0,1
 109 515 109 515 132 565 c 128,-1,2
 155 615 155 615 194 649 c 128,-1,3
 233 683 233 683 284.5 700.5 c 128,-1,4
 336 718 336 718 393 718 c 0,5,6
 452 718 452 718 504 700.5 c 128,-1,7
 556 683 556 683 594.5 649 c 128,-1,8
 633 615 633 615 655.5 565 c 128,-1,9
 678 515 678 515 678 451 c 0,10,11
 678 386 678 386 655 336.5 c 128,-1,12
 632 287 632 287 592.5 253 c 128,-1,13
 553 219 553 219 501.5 201.5 c 128,-1,14
 450 184 450 184 393 184 c 0,15,16
 337 184 337 184 286 201.5 c 128,-1,17
 235 219 235 219 195.5 253 c 128,-1,18
 156 287 156 287 132.5 336.5 c 128,-1,19
 109 386 109 386 109 451 c 0,0,1
157 451 m 256,20,21
 157 399 157 399 176.5 357.5 c 128,-1,22
 196 316 196 316 228.5 286.5 c 128,-1,23
 261 257 261 257 303.5 241.5 c 128,-1,24
 346 226 346 226 393 226 c 0,25,26
 442 226 442 226 485 241.5 c 128,-1,27
 528 257 528 257 560.5 286 c 128,-1,28
 593 315 593 315 611.5 356.5 c 128,-1,29
 630 398 630 398 630 451 c 0,30,31
 630 503 630 503 610.5 544.5 c 128,-1,32
 591 586 591 586 558.5 615 c 128,-1,33
 526 644 526 644 483 660 c 128,-1,34
 440 676 440 676 393 676 c 0,35,36
 343 676 343 676 300 660 c 128,-1,37
 257 644 257 644 225 615 c 128,-1,38
 193 586 193 586 175 544.5 c 128,-1,39
 157 503 157 503 157 451 c 256,20,21
356 343 m 1,40,-1
 396 343 l 1,41,-1
 396 309 l 1,42,-1
 256 309 l 1,43,-1
 256 343 l 1,44,-1
 295 343 l 1,45,-1
 295 574 l 1,46,-1
 256 574 l 1,47,-1
 256 608 l 1,48,-1
 300 608 l 2,49,50
 320 608 320 608 348 610 c 128,-1,51
 376 612 376 612 394 612 c 0,52,53
 419 612 419 612 442.5 607.5 c 128,-1,54
 466 603 466 603 483.5 592.5 c 128,-1,55
 501 582 501 582 511.5 566 c 128,-1,56
 522 550 522 550 522 528 c 0,57,58
 522 497 522 497 500.5 476.5 c 128,-1,59
 479 456 479 456 448 447 c 1,60,-1
 521 343 l 1,61,-1
 548 343 l 1,62,-1
 548 309 l 1,63,-1
 471 309 l 1,64,-1
 395 443 l 1,65,-1
 356 443 l 1,66,-1
 356 343 l 1,40,-1
389 579 m 0,67,68
 376 579 376 579 369.5 578.5 c 128,-1,69
 363 578 363 578 356 576 c 1,70,-1
 356 473 l 1,71,-1
 391 473 l 2,72,73
 456 473 456 473 456 528 c 0,74,75
 456 554 456 554 437 566.5 c 128,-1,76
 418 579 418 579 389 579 c 0,67,68
EndSplineSet
EndChar

StartChar: macron
Encoding: 175 175 113
Width: 408
Flags: W
LayerCount: 2
Fore
SplineSet
60 668 m 1,0,-1
 60 723 l 1,1,-1
 348 723 l 1,2,-1
 348 668 l 1,3,-1
 60 668 l 1,0,-1
EndSplineSet
EndChar

StartChar: degree
Encoding: 176 176 114
Width: 474
Flags: W
LayerCount: 2
Fore
SplineSet
101 571 m 0,0,1
 101 602 101 602 112 628 c 128,-1,2
 123 654 123 654 143 672.5 c 128,-1,3
 163 691 163 691 190.5 701.5 c 128,-1,4
 218 712 218 712 251 712 c 0,5,6
 317 712 317 712 359.5 676.5 c 128,-1,7
 402 641 402 641 402 571 c 0,8,9
 402 505 402 505 359.5 467.5 c 128,-1,10
 317 430 317 430 251 430 c 0,11,12
 218 430 218 430 190.5 439.5 c 128,-1,13
 163 449 163 449 143 467.5 c 128,-1,14
 123 486 123 486 112 512 c 128,-1,15
 101 538 101 538 101 571 c 0,0,1
161 571 m 0,16,17
 161 531 161 531 187 505.5 c 128,-1,18
 213 480 213 480 251 480 c 0,19,20
 294 480 294 480 318 503.5 c 128,-1,21
 342 527 342 527 342 571 c 0,22,23
 342 613 342 613 317.5 637.5 c 128,-1,24
 293 662 293 662 251 662 c 0,25,26
 208 662 208 662 184.5 637.5 c 128,-1,27
 161 613 161 613 161 571 c 0,16,17
EndSplineSet
EndChar

StartChar: plusminus
Encoding: 177 177 115
Width: 600
Flags: W
LayerCount: 2
Fore
SplineSet
48 491 m 1,0,-1
 270 491 l 1,1,-1
 270 700 l 1,2,-1
 330 700 l 1,3,-1
 330 491 l 1,4,-1
 552 491 l 1,5,-1
 552 437 l 1,6,-1
 330 437 l 1,7,-1
 330 284 l 1,8,-1
 270 284 l 1,9,-1
 270 437 l 1,10,-1
 48 437 l 1,11,-1
 48 491 l 1,0,-1
48 231 m 1,12,-1
 552 231 l 1,13,-1
 552 177 l 1,14,-1
 48 177 l 1,15,-1
 48 231 l 1,12,-1
EndSplineSet
EndChar

StartChar: acute
Encoding: 180 180 118
Width: 344
Flags: W
LayerCount: 2
Fore
SplineSet
158 750 m 1,0,-1
 284 750 l 1,1,-1
 284 709 l 1,2,-1
 88 592 l 1,3,-1
 60 615 l 1,4,-1
 158 750 l 1,0,-1
EndSplineSet
EndChar

StartChar: mu
Encoding: 181 181 119
AltUni2: 0003bc.ffffffff.0
Width: 653
Flags: W
LayerCount: 2
Fore
SplineSet
177 -200 m 1,0,-1
 93 -200 l 1,1,-1
 93 475 l 1,2,-1
 19 475 l 1,3,-1
 19 525 l 1,4,-1
 198 525 l 1,5,-1
 198 227 l 2,6,7
 198 186 198 186 202.5 154 c 128,-1,8
 207 122 207 122 219.5 99.5 c 128,-1,9
 232 77 232 77 254 65.5 c 128,-1,10
 276 54 276 54 310 54 c 0,11,12
 360 54 360 54 394 87.5 c 128,-1,13
 428 121 428 121 446 175 c 1,14,-1
 446 475 l 1,15,-1
 372 475 l 1,16,-1
 372 525 l 1,17,-1
 551 525 l 1,18,-1
 551 50 l 1,19,-1
 625 50 l 1,20,-1
 625 0 l 1,21,-1
 450 0 l 1,22,-1
 450 114 l 1,23,-1
 445 114 l 1,24,25
 440 93 440 93 426 70.5 c 128,-1,26
 412 48 412 48 390 29.5 c 128,-1,27
 368 11 368 11 339.5 -1 c 128,-1,28
 311 -13 311 -13 278 -13 c 0,29,30
 243 -13 243 -13 220.5 -5 c 128,-1,31
 198 3 198 3 177 19 c 1,32,-1
 177 -200 l 1,0,-1
EndSplineSet
EndChar

StartChar: paragraph
Encoding: 182 182 120
Width: 592
Flags: W
LayerCount: 2
Fore
SplineSet
444 94 m 2,0,1
 444 27 444 27 432 -15.5 c 128,-1,2
 420 -58 420 -58 399 -83.5 c 128,-1,3
 378 -109 378 -109 349.5 -121.5 c 128,-1,4
 321 -134 321 -134 288 -140 c 1,5,6
 265 -172 265 -172 235 -188 c 128,-1,7
 205 -204 205 -204 176 -212 c 1,8,-1
 153 -179 l 1,9,10
 178 -170 178 -170 199 -156.5 c 128,-1,11
 220 -143 220 -143 235 -120.5 c 128,-1,12
 250 -98 250 -98 258.5 -63 c 128,-1,13
 267 -28 267 -28 267 24 c 2,14,-1
 267 310 l 1,15,16
 231 310 231 310 195.5 320 c 128,-1,17
 160 330 160 330 131.5 352.5 c 128,-1,18
 103 375 103 375 85 411.5 c 128,-1,19
 67 448 67 448 67 500 c 0,20,21
 67 542 67 542 81 578.5 c 128,-1,22
 95 615 95 615 123 642 c 128,-1,23
 151 669 151 669 193.5 684.5 c 128,-1,24
 236 700 236 700 293 700 c 2,25,-1
 528 700 l 1,26,-1
 528 650 l 1,27,-1
 444 650 l 1,28,-1
 444 94 l 2,0,1
310 -94 m 1,29,30
 345 -81 345 -81 362.5 -38 c 128,-1,31
 380 5 380 5 380 94 c 2,32,-1
 380 650 l 1,33,-1
 331 650 l 1,34,-1
 331 24 l 2,35,36
 331 -16 331 -16 327 -44.5 c 128,-1,37
 323 -73 323 -73 310 -94 c 1,29,30
EndSplineSet
EndChar

StartChar: cedilla
Encoding: 184 184 122
Width: 306
Flags: W
LayerCount: 2
Fore
SplineSet
125 -61 m 1,0,1
 188 -63 188 -63 217 -78.5 c 128,-1,2
 246 -94 246 -94 246 -127 c 0,3,4
 246 -159 246 -159 228.5 -178 c 128,-1,5
 211 -197 211 -197 184 -207 c 128,-1,6
 157 -217 157 -217 124 -220.5 c 128,-1,7
 91 -224 91 -224 60 -224 c 1,8,-1
 60 -192 l 1,9,10
 81 -191 81 -191 98.5 -189 c 128,-1,11
 116 -187 116 -187 128 -182 c 128,-1,12
 140 -177 140 -177 146.5 -168 c 128,-1,13
 153 -159 153 -159 153 -143 c 0,14,15
 153 -117 153 -117 130 -111 c 128,-1,16
 107 -105 107 -105 61 -101 c 1,17,-1
 103 1 l 1,18,-1
 154 1 l 1,19,-1
 125 -61 l 1,0,1
EndSplineSet
EndChar

StartChar: ordmasculine
Encoding: 186 186 124
Width: 490
Flags: W
LayerCount: 2
Fore
SplineSet
48 542 m 0,0,1
 48 581 48 581 63 612 c 128,-1,2
 78 643 78 643 104 665.5 c 128,-1,3
 130 688 130 688 166.5 700 c 128,-1,4
 203 712 203 712 245 712 c 0,5,6
 288 712 288 712 324 701.5 c 128,-1,7
 360 691 360 691 386 670 c 128,-1,8
 412 649 412 649 426.5 617 c 128,-1,9
 441 585 441 585 441 542 c 0,10,11
 441 503 441 503 426.5 471.5 c 128,-1,12
 412 440 412 440 386 418 c 128,-1,13
 360 396 360 396 324 384 c 128,-1,14
 288 372 288 372 245 372 c 0,15,16
 203 372 203 372 166.5 382.5 c 128,-1,17
 130 393 130 393 104 414 c 128,-1,18
 78 435 78 435 63 467 c 128,-1,19
 48 499 48 499 48 542 c 0,0,1
144 542 m 0,20,21
 144 482 144 482 170 446 c 128,-1,22
 196 410 196 410 245 410 c 0,23,24
 345 410 345 410 345 542 c 256,25,26
 345 674 345 674 245 674 c 0,27,28
 196 674 196 674 170 641 c 128,-1,29
 144 608 144 608 144 542 c 0,20,21
EndSplineSet
EndChar

StartChar: guillemotright
Encoding: 187 187 125
Width: 530
Flags: W
LayerCount: 2
Fore
SplineSet
88 56 m 1,0,-1
 59 77 l 1,1,-1
 184 261 l 1,2,-1
 65 445 l 1,3,-1
 94 465 l 1,4,-1
 285 259 l 1,5,-1
 88 56 l 1,0,-1
257 54 m 1,6,-1
 226 76 l 1,7,-1
 390 260 l 1,8,-1
 233 446 l 1,9,-1
 262 467 l 1,10,-1
 504 259 l 1,11,-1
 257 54 l 1,6,-1
EndSplineSet
Position2: "'case' Case-Sensitive Forms lookup 1 per glyph data 3" dx=0 dy=100 dh=0 dv=0
EndChar

StartChar: Ccedilla
Encoding: 199 199 137
Width: 698
Flags: W
LayerCount: 2
Fore
SplineSet
569 184 m 1,0,-1
 633 184 l 1,1,-1
 633 27 l 1,2,3
 602 10 602 10 551 -1 c 128,-1,4
 500 -12 500 -12 450 -12 c 2,5,-1
 443 -12 l 1,6,-1
 416 -64 l 1,7,8
 484 -66 484 -66 517 -82.5 c 128,-1,9
 550 -99 550 -99 550 -135 c 0,10,11
 550 -165 550 -165 530 -184 c 128,-1,12
 510 -203 510 -203 479.5 -213.5 c 128,-1,13
 449 -224 449 -224 413 -228 c 128,-1,14
 377 -232 377 -232 345 -232 c 1,15,-1
 345 -199 l 1,16,17
 367 -198 367 -198 385.5 -195.5 c 128,-1,18
 404 -193 404 -193 418 -188 c 128,-1,19
 432 -183 432 -183 440 -174.5 c 128,-1,20
 448 -166 448 -166 448 -152 c 0,21,22
 448 -125 448 -125 423 -117 c 128,-1,23
 398 -109 398 -109 348 -107 c 1,24,-1
 388 -9 l 1,25,26
 310 -3 310 -3 248.5 21.5 c 128,-1,27
 187 46 187 46 144.5 90.5 c 128,-1,28
 102 135 102 135 79.5 199.5 c 128,-1,29
 57 264 57 264 57 350 c 0,30,31
 57 448 57 448 87 516.5 c 128,-1,32
 117 585 117 585 168 628.5 c 128,-1,33
 219 672 219 672 286 692 c 128,-1,34
 353 712 353 712 427 712 c 0,35,36
 463 712 463 712 492 709.5 c 128,-1,37
 521 707 521 707 544.5 702 c 128,-1,38
 568 697 568 697 588 690 c 128,-1,39
 608 683 608 683 627 675 c 1,40,-1
 627 504 l 1,41,-1
 563 504 l 1,42,-1
 563 609 l 1,43,-1
 549 629 l 1,44,45
 538 634 538 634 514.5 641 c 128,-1,46
 491 648 491 648 439 648 c 0,47,48
 385 648 385 648 338 631 c 128,-1,49
 291 614 291 614 256.5 578 c 128,-1,50
 222 542 222 542 202 485.5 c 128,-1,51
 182 429 182 429 182 350 c 0,52,53
 182 207 182 207 254.5 129.5 c 128,-1,54
 327 52 327 52 458 52 c 0,55,56
 494 52 494 52 518.5 57.5 c 128,-1,57
 543 63 543 63 555 72 c 1,58,-1
 569 91 l 1,59,-1
 569 184 l 1,0,-1
EndSplineSet
Position2: "'cpsp' Capital Spacing lookup 0 subtable" dx=40 dy=0 dh=80 dv=0
EndChar

StartChar: Eth
Encoding: 208 208 146
Width: 782
Flags: W
LayerCount: 2
Fore
SplineSet
32 0 m 1,0,-1
 32 56 l 1,1,-1
 123 56 l 1,2,-1
 123 331 l 1,3,-1
 23 331 l 1,4,-1
 23 385 l 1,5,-1
 123 385 l 1,6,-1
 123 644 l 1,7,-1
 32 644 l 1,8,-1
 32 700 l 1,9,-1
 155 700 l 2,10,11
 174 700 174 700 199.5 701 c 128,-1,12
 225 702 225 702 252 703.5 c 128,-1,13
 279 705 279 705 303.5 706.5 c 128,-1,14
 328 708 328 708 345 708 c 0,15,16
 438 708 438 708 509 684.5 c 128,-1,17
 580 661 580 661 628 616.5 c 128,-1,18
 676 572 676 572 700.5 507 c 128,-1,19
 725 442 725 442 725 359 c 0,20,21
 725 279 725 279 702 212 c 128,-1,22
 679 145 679 145 630 95.5 c 128,-1,23
 581 46 581 46 504.5 18.5 c 128,-1,24
 428 -9 428 -9 322 -9 c 0,25,26
 306 -9 306 -9 285 -7.5 c 128,-1,27
 264 -6 264 -6 240.5 -4.5 c 128,-1,28
 217 -3 217 -3 193 -1.5 c 128,-1,29
 169 0 169 0 148 0 c 2,30,-1
 32 0 l 1,0,-1
330 652 m 0,31,32
 302 652 302 652 276 651 c 128,-1,33
 250 650 250 650 235 647 c 1,34,-1
 235 385 l 1,35,-1
 414 385 l 1,36,-1
 414 331 l 1,37,-1
 235 331 l 1,38,-1
 235 51 l 1,39,40
 241 50 241 50 255 49.5 c 128,-1,41
 269 49 269 49 285.5 48.5 c 128,-1,42
 302 48 302 48 317 47.5 c 128,-1,43
 332 47 332 47 338 47 c 0,44,45
 413 47 413 47 463 72.5 c 128,-1,46
 513 98 513 98 543.5 140.5 c 128,-1,47
 574 183 574 183 587 239.5 c 128,-1,48
 600 296 600 296 600 359 c 0,49,50
 600 408 600 408 587.5 460 c 128,-1,51
 575 512 575 512 544 555 c 128,-1,52
 513 598 513 598 461 625 c 128,-1,53
 409 652 409 652 330 652 c 0,31,32
EndSplineSet
Position2: "'cpsp' Capital Spacing lookup 0 subtable" dx=40 dy=0 dh=80 dv=0
EndChar

StartChar: multiply
Encoding: 215 215 153
Width: 600
Flags: W
LayerCount: 2
Fore
SplineSet
98 205 m 1,0,-1
 254 344 l 1,1,-1
 100 482 l 1,2,-1
 144 521 l 1,3,-1
 299 383 l 1,4,-1
 455 523 l 1,5,-1
 499 484 l 1,6,-1
 341 345 l 1,7,-1
 501 203 l 1,8,-1
 457 163 l 1,9,-1
 298 306 l 1,10,-1
 142 166 l 1,11,-1
 98 205 l 1,0,-1
EndSplineSet
EndChar

StartChar: Oslash
Encoding: 216 216 154
Width: 830
Flags: W
LayerCount: 2
Fore
SplineSet
57 350 m 0,0,1
 57 428 57 428 81 494.5 c 128,-1,2
 105 561 105 561 150.5 609.5 c 128,-1,3
 196 658 196 658 262.5 685 c 128,-1,4
 329 712 329 712 414 712 c 0,5,6
 468 712 468 712 514.5 700.5 c 128,-1,7
 561 689 561 689 600 669 c 1,8,-1
 652 743 l 1,9,-1
 704 708 l 1,10,-1
 652 634 l 1,11,12
 711 585 711 585 742 512 c 128,-1,13
 773 439 773 439 773 350 c 0,14,15
 773 272 773 272 749 205.5 c 128,-1,16
 725 139 725 139 679 90.5 c 128,-1,17
 633 42 633 42 566 15 c 128,-1,18
 499 -12 499 -12 414 -12 c 0,19,20
 307 -12 307 -12 227 31 c 1,21,-1
 165 -57 l 1,22,-1
 115 -21 l 1,23,-1
 176 66 l 1,24,25
 118 115 118 115 87.5 187.5 c 128,-1,26
 57 260 57 260 57 350 c 0,0,1
648 350 m 0,27,28
 648 410 648 410 635.5 462.5 c 128,-1,29
 623 515 623 515 597 556 c 1,30,-1
 273 96 l 1,31,32
 302 70 302 70 339 56 c 128,-1,33
 376 42 376 42 424 42 c 0,34,35
 481 42 481 42 523 66 c 128,-1,36
 565 90 565 90 592.5 132 c 128,-1,37
 620 174 620 174 634 230 c 128,-1,38
 648 286 648 286 648 350 c 0,27,28
182 350 m 0,39,40
 182 290 182 290 194 238 c 128,-1,41
 206 186 206 186 232 145 c 1,42,-1
 555 605 l 1,43,44
 526 630 526 630 489 644 c 128,-1,45
 452 658 452 658 405 658 c 0,46,47
 345 658 345 658 302.5 634 c 128,-1,48
 260 610 260 610 233 568 c 128,-1,49
 206 526 206 526 194 470 c 128,-1,50
 182 414 182 414 182 350 c 0,39,40
EndSplineSet
Position2: "'cpsp' Capital Spacing lookup 0 subtable" dx=40 dy=0 dh=80 dv=0
EndChar

StartChar: Thorn
Encoding: 222 222 160
Width: 666
Flags: W
LayerCount: 2
Fore
SplineSet
32 644 m 1,0,-1
 32 700 l 1,1,-1
 324 700 l 1,2,-1
 324 644 l 1,3,-1
 235 644 l 1,4,-1
 235 597 l 1,5,6
 260 599 260 599 285.5 600 c 128,-1,7
 311 601 311 601 336 601 c 0,8,9
 391 601 391 601 443.5 590.5 c 128,-1,10
 496 580 496 580 537 556 c 128,-1,11
 578 532 578 532 603 491.5 c 128,-1,12
 628 451 628 451 628 391 c 0,13,14
 628 334 628 334 602 293.5 c 128,-1,15
 576 253 576 253 533.5 226.5 c 128,-1,16
 491 200 491 200 435.5 187.5 c 128,-1,17
 380 175 380 175 321 175 c 0,18,19
 315 175 315 175 303 175 c 128,-1,20
 291 175 291 175 278 175.5 c 128,-1,21
 265 176 265 176 253 176.5 c 128,-1,22
 241 177 241 177 235 178 c 1,23,-1
 235 56 l 1,24,-1
 344 56 l 1,25,-1
 344 0 l 1,26,-1
 32 0 l 1,27,-1
 32 56 l 1,28,-1
 123 56 l 1,29,-1
 123 644 l 1,30,-1
 32 644 l 1,0,-1
311 545 m 0,31,32
 284 545 284 545 266.5 543.5 c 128,-1,33
 249 542 249 542 235 539 c 1,34,-1
 235 236 l 1,35,36
 240 234 240 234 250.5 233.5 c 128,-1,37
 261 233 261 233 273 232 c 128,-1,38
 285 231 285 231 296 231 c 128,-1,39
 307 231 307 231 313 231 c 0,40,41
 352 231 352 231 386.5 240 c 128,-1,42
 421 249 421 249 447 268.5 c 128,-1,43
 473 288 473 288 488 318 c 128,-1,44
 503 348 503 348 503 391 c 0,45,46
 503 469 503 469 451.5 507 c 128,-1,47
 400 545 400 545 311 545 c 0,31,32
EndSplineSet
Position2: "'cpsp' Capital Spacing lookup 0 subtable" dx=40 dy=0 dh=80 dv=0
EndChar

StartChar: germandbls
Encoding: 223 223 161
Width: 719
Flags: W
LayerCount: 2
Fore
SplineSet
487 589 m 1,0,1
 486 636 486 636 453 666 c 128,-1,2
 420 696 420 696 373 696 c 0,3,4
 339 696 339 696 311.5 689.5 c 128,-1,5
 284 683 284 683 264.5 664 c 128,-1,6
 245 645 245 645 234.5 611.5 c 128,-1,7
 224 578 224 578 224 523 c 2,8,-1
 224 0 l 1,9,-1
 45 0 l 1,10,-1
 45 50 l 1,11,-1
 119 50 l 1,12,-1
 119 475 l 1,13,-1
 35 475 l 1,14,-1
 35 525 l 1,15,-1
 119 525 l 1,16,-1
 119 541 l 2,17,18
 119 601 119 601 144 641 c 128,-1,19
 169 681 169 681 206 705 c 128,-1,20
 243 729 243 729 286 739.5 c 128,-1,21
 329 750 329 750 366 750 c 0,22,23
 427 750 427 750 469.5 735.5 c 128,-1,24
 512 721 512 721 538.5 697 c 128,-1,25
 565 673 565 673 577 641 c 128,-1,26
 589 609 589 609 590 573 c 1,27,28
 506 562 506 562 458 535.5 c 128,-1,29
 410 509 410 509 410 461 c 0,30,31
 410 429 410 429 430 405 c 128,-1,32
 450 381 450 381 479.5 360.5 c 128,-1,33
 509 340 509 340 544 320 c 128,-1,34
 579 300 579 300 608.5 275.5 c 128,-1,35
 638 251 638 251 658 219.5 c 128,-1,36
 678 188 678 188 678 145 c 0,37,38
 678 71 678 71 623 30.5 c 128,-1,39
 568 -10 568 -10 468 -10 c 0,40,41
 444 -10 444 -10 420 -5.5 c 128,-1,42
 396 -1 396 -1 374.5 6 c 128,-1,43
 353 13 353 13 335.5 22.5 c 128,-1,44
 318 32 318 32 307 41 c 1,45,-1
 307 133 l 1,46,-1
 379 133 l 1,47,-1
 379 75 l 1,48,49
 391 64 391 64 416 54 c 128,-1,50
 441 44 441 44 465 44 c 0,51,52
 519 44 519 44 547 65 c 128,-1,53
 575 86 575 86 575 129 c 0,54,55
 575 157 575 157 555 179 c 128,-1,56
 535 201 535 201 505.5 221 c 128,-1,57
 476 241 476 241 441 260.5 c 128,-1,58
 406 280 406 280 376.5 303.5 c 128,-1,59
 347 327 347 327 327 357 c 128,-1,60
 307 387 307 387 307 427 c 0,61,62
 307 476 307 476 348 519 c 128,-1,63
 389 562 389 562 487 589 c 1,0,1
EndSplineSet
EndChar

StartChar: ccedilla
Encoding: 231 231 169
Width: 523
Flags: W
LayerCount: 2
Fore
SplineSet
482 64 m 1,0,1
 461 35 461 35 416 12 c 128,-1,2
 371 -11 371 -11 311 -11 c 2,3,-1
 307 -11 l 1,4,-1
 284 -61 l 1,5,6
 347 -63 347 -63 376 -78 c 128,-1,7
 405 -93 405 -93 405 -127 c 0,8,9
 405 -159 405 -159 387.5 -178 c 128,-1,10
 370 -197 370 -197 343 -207.5 c 128,-1,11
 316 -218 316 -218 283 -221 c 128,-1,12
 250 -224 250 -224 219 -224 c 1,13,-1
 219 -192 l 1,14,15
 240 -191 240 -191 257.5 -189 c 128,-1,16
 275 -187 275 -187 287 -182 c 128,-1,17
 299 -177 299 -177 305.5 -168 c 128,-1,18
 312 -159 312 -159 312 -143 c 0,19,20
 312 -117 312 -117 289 -111 c 128,-1,21
 266 -105 266 -105 220 -101 c 1,22,-1
 258 -8 l 1,23,24
 150 6 150 6 97.5 78 c 128,-1,25
 45 150 45 150 45 262 c 0,26,27
 45 395 45 395 115.5 465 c 128,-1,28
 186 535 186 535 307 535 c 0,29,30
 362 535 362 535 398 528 c 128,-1,31
 434 521 434 521 464 506 c 1,32,-1
 464 376 l 1,33,-1
 374 376 l 1,34,-1
 374 472 l 1,35,36
 359 481 359 481 314 481 c 0,37,38
 276 481 276 481 247 470 c 128,-1,39
 218 459 218 459 198 434 c 128,-1,40
 178 409 178 409 168 367 c 128,-1,41
 158 325 158 325 158 264 c 0,42,43
 158 224 158 224 169 187.5 c 128,-1,44
 180 151 180 151 202 123.5 c 128,-1,45
 224 96 224 96 257.5 80 c 128,-1,46
 291 64 291 64 336 64 c 0,47,48
 360 64 360 64 378.5 67.5 c 128,-1,49
 397 71 397 71 411 76.5 c 128,-1,50
 425 82 425 82 436 89 c 128,-1,51
 447 96 447 96 457 104 c 1,52,-1
 482 64 l 1,0,1
EndSplineSet
EndChar

StartChar: eth
Encoding: 240 240 178
Width: 603
Flags: W
LayerCount: 2
Fore
SplineSet
233 600 m 1,0,-1
 322 653 l 1,1,2
 277 692 277 692 198 718 c 1,3,-1
 220 762 l 1,4,5
 265 754 265 754 307.5 732.5 c 128,-1,6
 350 711 350 711 379 690 c 1,7,-1
 480 754 l 1,8,-1
 508 713 l 1,9,-1
 417 655 l 1,10,11
 445 626 445 626 471 589.5 c 128,-1,12
 497 553 497 553 516.5 508.5 c 128,-1,13
 536 464 536 464 548 412.5 c 128,-1,14
 560 361 560 361 560 303 c 0,15,16
 560 235 560 235 543.5 177 c 128,-1,17
 527 119 527 119 494 77 c 128,-1,18
 461 35 461 35 411.5 11 c 128,-1,19
 362 -13 362 -13 295 -13 c 0,20,21
 233 -13 233 -13 184 7 c 128,-1,22
 135 27 135 27 101 62 c 128,-1,23
 67 97 67 97 48.5 146 c 128,-1,24
 30 195 30 195 30 254 c 0,25,26
 30 321 30 321 51.5 370 c 128,-1,27
 73 419 73 419 107.5 451.5 c 128,-1,28
 142 484 142 484 185.5 499.5 c 128,-1,29
 229 515 229 515 274 515 c 0,30,31
 334 515 334 515 373 504 c 128,-1,32
 412 493 412 493 437 478 c 1,33,34
 423 517 423 517 405 551.5 c 128,-1,35
 387 586 387 586 355 615 c 1,36,-1
 263 559 l 1,37,-1
 233 600 l 1,0,-1
143 254 m 0,38,39
 143 211 143 211 153.5 172 c 128,-1,40
 164 133 164 133 184 103 c 128,-1,41
 204 73 204 73 234 55 c 128,-1,42
 264 37 264 37 302 37 c 0,43,44
 375 37 375 37 415 104.5 c 128,-1,45
 455 172 455 172 455 288 c 0,46,47
 455 343 455 343 450.5 376 c 128,-1,48
 446 409 446 409 442 423 c 1,49,50
 423 437 423 437 386 448 c 128,-1,51
 349 459 349 459 298 459 c 0,52,53
 264 459 264 459 235.5 447 c 128,-1,54
 207 435 207 435 186.5 410 c 128,-1,55
 166 385 166 385 154.5 346 c 128,-1,56
 143 307 143 307 143 254 c 0,38,39
EndSplineSet
EndChar

StartChar: divide
Encoding: 247 247 185
Width: 600
Flags: W
LayerCount: 2
Fore
SplineSet
47 373 m 1,0,-1
 552 373 l 1,1,-1
 552 319 l 1,2,-1
 47 319 l 1,3,-1
 47 373 l 1,0,-1
222 536 m 0,4,5
 222 567 222 567 243 585 c 128,-1,6
 264 603 264 603 299 603 c 256,7,8
 334 603 334 603 356 585 c 128,-1,9
 378 567 378 567 378 536 c 0,10,11
 378 506 378 506 356 488 c 128,-1,12
 334 470 334 470 299 470 c 256,13,14
 264 470 264 470 243 488 c 128,-1,15
 222 506 222 506 222 536 c 0,4,5
222 155 m 0,16,17
 222 186 222 186 243 204 c 128,-1,18
 264 222 264 222 299 222 c 256,19,20
 334 222 334 222 356 204 c 128,-1,21
 378 186 378 186 378 155 c 0,22,23
 378 125 378 125 356 107 c 128,-1,24
 334 89 334 89 299 89 c 256,25,26
 264 89 264 89 243 107 c 128,-1,27
 222 125 222 125 222 155 c 0,16,17
EndSplineSet
EndChar

StartChar: oslash
Encoding: 248 248 186
Width: 622
Flags: W
LayerCount: 2
Fore
SplineSet
130 43 m 1,0,1
 87 80 87 80 66 136 c 128,-1,2
 45 192 45 192 45 262 c 0,3,4
 45 328 45 328 64 379 c 128,-1,5
 83 430 83 430 117.5 464.5 c 128,-1,6
 152 499 152 499 201.5 517 c 128,-1,7
 251 535 251 535 311 535 c 0,8,9
 354 535 354 535 390 528.5 c 128,-1,10
 426 522 426 522 454 507 c 1,11,-1
 505 581 l 1,12,-1
 550 552 l 1,13,-1
 497 479 l 1,14,15
 539 441 539 441 558 386.5 c 128,-1,16
 577 332 577 332 577 262 c 0,17,18
 577 196 577 196 558.5 145.5 c 128,-1,19
 540 95 540 95 505.5 60.5 c 128,-1,20
 471 26 471 26 421.5 8 c 128,-1,21
 372 -10 372 -10 311 -10 c 0,22,23
 271 -10 271 -10 236.5 -4 c 128,-1,24
 202 2 202 2 174 16 c 1,25,-1
 118 -64 l 1,26,-1
 75 -36 l 1,27,-1
 130 43 l 1,0,1
158 262 m 0,28,29
 158 222 158 222 164.5 187 c 128,-1,30
 171 152 171 152 186 123 c 1,31,-1
 410 445 l 1,32,33
 390 468 390 468 363.5 478 c 128,-1,34
 337 488 337 488 302 488 c 0,35,36
 236 488 236 488 197 434 c 128,-1,37
 158 380 158 380 158 262 c 0,28,29
464 262 m 0,38,39
 464 300 464 300 458 334 c 128,-1,40
 452 368 452 368 439 396 c 1,41,-1
 216 76 l 1,42,43
 236 55 236 55 264 46 c 128,-1,44
 292 37 292 37 330 37 c 0,45,46
 389 37 389 37 426.5 91 c 128,-1,47
 464 145 464 145 464 262 c 0,38,39
EndSplineSet
EndChar

StartChar: thorn
Encoding: 254 254 192
Width: 636
Flags: W
LayerCount: 2
Fore
SplineSet
287 -200 m 1,0,-1
 34 -200 l 1,1,-1
 34 -150 l 1,2,-1
 108 -150 l 1,3,-1
 108 700 l 1,4,-1
 34 700 l 1,5,-1
 34 750 l 1,6,-1
 213 750 l 1,7,-1
 213 420 l 1,8,-1
 214 420 l 1,9,10
 236 473 236 473 276.5 504 c 128,-1,11
 317 535 317 535 383 535 c 0,12,13
 482 535 482 535 536.5 474 c 128,-1,14
 591 413 591 413 591 274 c 0,15,16
 591 208 591 208 572.5 155 c 128,-1,17
 554 102 554 102 519.5 65 c 128,-1,18
 485 28 485 28 436.5 8.5 c 128,-1,19
 388 -11 388 -11 328 -11 c 0,20,21
 308 -11 308 -11 292.5 -10 c 128,-1,22
 277 -9 277 -9 264 -7 c 128,-1,23
 251 -5 251 -5 238.5 -1 c 128,-1,24
 226 3 226 3 213 8 c 1,25,-1
 213 -150 l 1,26,-1
 287 -150 l 1,27,-1
 287 -200 l 1,0,-1
344 468 m 0,28,29
 290 468 290 468 258.5 437.5 c 128,-1,30
 227 407 227 407 213 351 c 1,31,-1
 213 58 l 1,32,33
 233 45 233 45 257.5 40.5 c 128,-1,34
 282 36 282 36 323 36 c 0,35,36
 360 36 360 36 389 53.5 c 128,-1,37
 418 71 418 71 438 102.5 c 128,-1,38
 458 134 458 134 468.5 177.5 c 128,-1,39
 479 221 479 221 479 274 c 0,40,41
 479 317 479 317 472 352.5 c 128,-1,42
 465 388 465 388 449.5 413.5 c 128,-1,43
 434 439 434 439 408 453.5 c 128,-1,44
 382 468 382 468 344 468 c 0,28,29
EndSplineSet
EndChar

StartChar: Aogonek
Encoding: 260 260 198
Width: 755
Flags: W
LayerCount: 2
Fore
SplineSet
245 0 m 1,0,-1
 0 0 l 1,1,-1
 0 56 l 1,2,-1
 78 56 l 1,3,-1
 337 700 l 1,4,-1
 443 700 l 1,5,-1
 680 56 l 1,6,-1
 755 56 l 1,7,-1
 755 0 l 1,8,-1
 699 0 l 1,9,10
 653 -19 653 -19 626.5 -43.5 c 128,-1,11
 600 -68 600 -68 600 -110 c 0,12,13
 600 -137 600 -137 620 -147.5 c 128,-1,14
 640 -158 640 -158 673 -158 c 0,15,16
 707 -158 707 -158 736 -152 c 1,17,-1
 736 -183 l 1,18,19
 720 -194 720 -194 695 -202.5 c 128,-1,20
 670 -211 670 -211 633 -211 c 0,21,22
 607 -211 607 -211 583.5 -206 c 128,-1,23
 560 -201 560 -201 542.5 -191 c 128,-1,24
 525 -181 525 -181 514.5 -165.5 c 128,-1,25
 504 -150 504 -150 504 -128 c 0,26,27
 504 -82 504 -82 538.5 -50.5 c 128,-1,28
 573 -19 573 -19 624 0 c 1,29,-1
 469 0 l 1,30,-1
 469 56 l 1,31,-1
 558 56 l 1,32,-1
 493 232 l 1,33,-1
 227 232 l 1,34,-1
 159 56 l 1,35,-1
 245 56 l 1,36,-1
 245 0 l 1,0,-1
250 288 m 1,37,-1
 476 288 l 1,38,-1
 394 519 l 1,39,-1
 369 625 l 1,40,-1
 365 625 l 1,41,-1
 336 517 l 1,42,-1
 250 288 l 1,37,-1
EndSplineSet
Position2: "'cpsp' Capital Spacing lookup 0 subtable" dx=40 dy=0 dh=80 dv=0
EndChar

StartChar: aogonek
Encoding: 261 261 199
Width: 569
Flags: W
LayerCount: 2
Fore
SplineSet
464 139 m 0,0,1
 464 116 464 116 465 92.5 c 128,-1,2
 466 69 466 69 468 50 c 1,3,-1
 534 50 l 1,4,-1
 534 0 l 1,5,-1
 522 0 l 1,6,7
 473 -9 473 -9 440 -31.5 c 128,-1,8
 407 -54 407 -54 407 -100 c 0,9,10
 407 -120 407 -120 421.5 -136.5 c 128,-1,11
 436 -153 436 -153 471 -153 c 0,12,13
 501 -153 501 -153 530 -143 c 1,14,-1
 530 -179 l 1,15,16
 514 -188 514 -188 489.5 -194 c 128,-1,17
 465 -200 465 -200 445 -200 c 0,18,19
 379 -200 379 -200 345 -178.5 c 128,-1,20
 311 -157 311 -157 311 -117 c 0,21,22
 311 -90 311 -90 325.5 -70 c 128,-1,23
 340 -50 340 -50 361 -36 c 128,-1,24
 382 -22 382 -22 406.5 -13.5 c 128,-1,25
 431 -5 431 -5 451 0 c 1,26,-1
 377 0 l 1,27,-1
 367 95 l 1,28,-1
 362 95 l 1,29,30
 357 75 357 75 343.5 56 c 128,-1,31
 330 37 330 37 309.5 22 c 128,-1,32
 289 7 289 7 261 -2 c 128,-1,33
 233 -11 233 -11 199 -11 c 256,34,35
 165 -11 165 -11 136.5 -1 c 128,-1,36
 108 9 108 9 87 27 c 128,-1,37
 66 45 66 45 54.5 70.5 c 128,-1,38
 43 96 43 96 43 128 c 0,39,40
 43 177 43 177 63.5 209 c 128,-1,41
 84 241 84 241 124 259.5 c 128,-1,42
 164 278 164 278 224 286 c 128,-1,43
 284 294 284 294 364 295 c 1,44,45
 367 326 367 326 367 354 c 0,46,47
 367 416 367 416 345.5 448.5 c 128,-1,48
 324 481 324 481 270 481 c 0,49,50
 250 481 250 481 227 479 c 128,-1,51
 204 477 204 477 185 467 c 1,52,-1
 185 375 l 1,53,-1
 95 375 l 1,54,-1
 95 486 l 1,55,56
 131 505 131 505 180 520 c 128,-1,57
 229 535 229 535 295 535 c 0,58,59
 352 535 352 535 386.5 520.5 c 128,-1,60
 421 506 421 506 439.5 482.5 c 128,-1,61
 458 459 458 459 463.5 429.5 c 128,-1,62
 469 400 469 400 469 371 c 0,63,64
 469 308 469 308 466.5 250.5 c 128,-1,65
 464 193 464 193 464 139 c 0,0,1
245 56 m 0,66,67
 269 56 269 56 288 63.5 c 128,-1,68
 307 71 307 71 321.5 82.5 c 128,-1,69
 336 94 336 94 346.5 108 c 128,-1,70
 357 122 357 122 364 135 c 1,71,-1
 364 254 l 1,72,73
 300 254 300 254 259.5 245.5 c 128,-1,74
 219 237 219 237 195.5 223 c 128,-1,75
 172 209 172 209 163.5 189.5 c 128,-1,76
 155 170 155 170 155 148 c 0,77,78
 155 103 155 103 179 79.5 c 128,-1,79
 203 56 203 56 245 56 c 0,66,67
EndSplineSet
EndChar

StartChar: dcroat
Encoding: 273 273 209
Width: 625
Flags: W
LayerCount: 2
Fore
SplineSet
251 653 m 1,0,-1
 420 653 l 1,1,-1
 420 700 l 1,2,-1
 336 700 l 1,3,-1
 336 750 l 1,4,-1
 525 750 l 1,5,-1
 525 653 l 1,6,-1
 627 653 l 1,7,-1
 627 598 l 1,8,-1
 525 598 l 1,9,-1
 525 50 l 1,10,-1
 593 50 l 1,11,-1
 593 0 l 1,12,-1
 431 0 l 1,13,-1
 421 104 l 1,14,-1
 417 104 l 1,15,16
 411 81 411 81 397.5 60 c 128,-1,17
 384 39 384 39 364.5 23 c 128,-1,18
 345 7 345 7 320.5 -2 c 128,-1,19
 296 -11 296 -11 267 -11 c 0,20,21
 156 -11 156 -11 100.5 54.5 c 128,-1,22
 45 120 45 120 45 259 c 0,23,24
 45 326 45 326 63.5 377.5 c 128,-1,25
 82 429 82 429 116 464 c 128,-1,26
 150 499 150 499 198 517 c 128,-1,27
 246 535 246 535 305 535 c 0,28,29
 326 535 326 535 341 534 c 128,-1,30
 356 533 356 533 369 531 c 128,-1,31
 382 529 382 529 394 525.5 c 128,-1,32
 406 522 406 522 420 518 c 1,33,-1
 420 598 l 1,34,-1
 251 598 l 1,35,-1
 251 653 l 1,0,-1
290 56 m 0,36,37
 345 56 345 56 376 87 c 128,-1,38
 407 118 407 118 420 173 c 1,39,-1
 420 468 l 1,40,41
 400 478 400 478 375.5 483 c 128,-1,42
 351 488 351 488 311 488 c 0,43,44
 274 488 274 488 245.5 472 c 128,-1,45
 217 456 217 456 197.5 426 c 128,-1,46
 178 396 178 396 168 353.5 c 128,-1,47
 158 311 158 311 158 259 c 0,48,49
 158 217 158 217 165.5 180 c 128,-1,50
 173 143 173 143 189 115.5 c 128,-1,51
 205 88 205 88 230 72 c 128,-1,52
 255 56 255 56 290 56 c 0,36,37
EndSplineSet
EndChar

StartChar: Eogonek
Encoding: 280 280 214
Width: 645
Flags: W
LayerCount: 2
Fore
SplineSet
564 700 m 1,0,-1
 564 536 l 1,1,-1
 500 536 l 1,2,-1
 500 622 l 1,3,-1
 480 644 l 1,4,-1
 235 644 l 1,5,-1
 235 385 l 1,6,-1
 404 385 l 1,7,-1
 419 400 l 1,8,-1
 419 442 l 1,9,-1
 483 442 l 1,10,-1
 483 271 l 1,11,-1
 419 271 l 1,12,-1
 419 313 l 1,13,-1
 404 329 l 1,14,-1
 235 329 l 1,15,-1
 235 56 l 1,16,-1
 497 56 l 1,17,-1
 517 76 l 1,18,-1
 517 174 l 1,19,-1
 581 174 l 1,20,-1
 581 0 l 1,21,-1
 525 0 l 1,22,23
 479 -19 479 -19 452.5 -43.5 c 128,-1,24
 426 -68 426 -68 426 -110 c 0,25,26
 426 -137 426 -137 446 -147.5 c 128,-1,27
 466 -158 466 -158 499 -158 c 0,28,29
 533 -158 533 -158 562 -152 c 1,30,-1
 562 -183 l 1,31,32
 546 -194 546 -194 521 -202.5 c 128,-1,33
 496 -211 496 -211 459 -211 c 0,34,35
 433 -211 433 -211 409.5 -206 c 128,-1,36
 386 -201 386 -201 368.5 -191 c 128,-1,37
 351 -181 351 -181 340.5 -165.5 c 128,-1,38
 330 -150 330 -150 330 -128 c 0,39,40
 330 -82 330 -82 364.5 -50.5 c 128,-1,41
 399 -19 399 -19 450 0 c 1,42,-1
 32 0 l 1,43,-1
 32 56 l 1,44,-1
 123 56 l 1,45,-1
 123 644 l 1,46,-1
 32 644 l 1,47,-1
 32 700 l 1,48,-1
 564 700 l 1,0,-1
EndSplineSet
Position2: "'cpsp' Capital Spacing lookup 0 subtable" dx=40 dy=0 dh=80 dv=0
EndChar

StartChar: eogonek
Encoding: 281 281 215
Width: 566
Flags: W
LayerCount: 2
Fore
SplineSet
499 69 m 1,0,1
 466 22 466 22 405 3 c 1,2,3
 367 -16 367 -16 342.5 -38 c 128,-1,4
 318 -60 318 -60 318 -100 c 0,5,6
 318 -120 318 -120 332.5 -136.5 c 128,-1,7
 347 -153 347 -153 382 -153 c 0,8,9
 412 -153 412 -153 441 -143 c 1,10,-1
 441 -179 l 1,11,12
 425 -188 425 -188 400.5 -194 c 128,-1,13
 376 -200 376 -200 356 -200 c 0,14,15
 290 -200 290 -200 256 -178.5 c 128,-1,16
 222 -157 222 -157 222 -117 c 0,17,18
 222 -78 222 -78 247 -53.5 c 128,-1,19
 272 -29 272 -29 314 -11 c 1,20,21
 248 -11 248 -11 197.5 8.5 c 128,-1,22
 147 28 147 28 113.5 63.5 c 128,-1,23
 80 99 80 99 62.5 149.5 c 128,-1,24
 45 200 45 200 45 262 c 0,25,26
 45 396 45 396 112 465.5 c 128,-1,27
 179 535 179 535 300 535 c 0,28,29
 340 535 340 535 378.5 525 c 128,-1,30
 417 515 417 515 447 492 c 128,-1,31
 477 469 477 469 495.5 431 c 128,-1,32
 514 393 514 393 514 337 c 0,33,34
 514 320 514 320 512 301 c 128,-1,35
 510 282 510 282 506 261 c 1,36,-1
 158 261 l 1,37,38
 158 217 158 217 169.5 181 c 128,-1,39
 181 145 181 145 204.5 119 c 128,-1,40
 228 93 228 93 263 78.5 c 128,-1,41
 298 64 298 64 346 64 c 0,42,43
 385 64 385 64 418.5 77 c 128,-1,44
 452 90 452 90 472 107 c 1,45,-1
 499 69 l 1,0,1
296 488 m 0,46,47
 265 488 265 488 241.5 479 c 128,-1,48
 218 470 218 470 201 449 c 128,-1,49
 184 428 184 428 174 393.5 c 128,-1,50
 164 359 164 359 161 308 c 1,51,-1
 402 308 l 1,52,53
 403 317 403 317 403.5 326.5 c 128,-1,54
 404 336 404 336 404 344 c 0,55,56
 404 410 404 410 377.5 449 c 128,-1,57
 351 488 351 488 296 488 c 0,46,47
EndSplineSet
EndChar

StartChar: Hbar
Encoding: 294 294 226
Width: 820
Flags: W
LayerCount: 2
Fore
SplineSet
34 560 m 1,0,-1
 123 560 l 1,1,-1
 123 644 l 1,2,-1
 32 644 l 1,3,-1
 32 700 l 1,4,-1
 318 700 l 1,5,-1
 318 644 l 1,6,-1
 235 644 l 1,7,-1
 235 560 l 1,8,-1
 585 560 l 1,9,-1
 585 644 l 1,10,-1
 502 644 l 1,11,-1
 502 700 l 1,12,-1
 788 700 l 1,13,-1
 788 644 l 1,14,-1
 697 644 l 1,15,-1
 697 560 l 1,16,-1
 786 560 l 1,17,-1
 786 506 l 1,18,-1
 697 506 l 1,19,-1
 697 56 l 1,20,-1
 788 56 l 1,21,-1
 788 0 l 1,22,-1
 502 0 l 1,23,-1
 502 56 l 1,24,-1
 585 56 l 1,25,-1
 585 331 l 1,26,-1
 235 331 l 1,27,-1
 235 56 l 1,28,-1
 318 56 l 1,29,-1
 318 0 l 1,30,-1
 32 0 l 1,31,-1
 32 56 l 1,32,-1
 123 56 l 1,33,-1
 123 506 l 1,34,-1
 34 506 l 1,35,-1
 34 560 l 1,0,-1
585 387 m 1,36,-1
 585 506 l 1,37,-1
 235 506 l 1,38,-1
 235 387 l 1,39,-1
 585 387 l 1,36,-1
EndSplineSet
Position2: "'cpsp' Capital Spacing lookup 0 subtable" dx=40 dy=0 dh=80 dv=0
EndChar

StartChar: hbar
Encoding: 295 295 227
Width: 661
Flags: W
LayerCount: 2
Fore
SplineSet
5 653 m 1,0,-1
 100 653 l 1,1,-1
 100 700 l 1,2,-1
 15 700 l 1,3,-1
 15 750 l 1,4,-1
 205 750 l 1,5,-1
 205 653 l 1,6,-1
 381 653 l 1,7,-1
 381 598 l 1,8,-1
 205 598 l 1,9,-1
 205 419 l 1,10,-1
 206 419 l 1,11,12
 229 468 229 468 278.5 501.5 c 128,-1,13
 328 535 328 535 397 535 c 0,14,15
 436 535 436 535 468 525.5 c 128,-1,16
 500 516 500 516 522 491 c 128,-1,17
 544 466 544 466 556 424 c 128,-1,18
 568 382 568 382 568 317 c 2,19,-1
 568 50 l 1,20,-1
 642 50 l 1,21,-1
 642 0 l 1,22,-1
 397 0 l 1,23,-1
 397 50 l 1,24,-1
 463 50 l 1,25,-1
 463 296 l 2,26,27
 463 379 463 379 441 423.5 c 128,-1,28
 419 468 419 468 363 468 c 0,29,30
 333 468 333 468 307 458 c 128,-1,31
 281 448 281 448 261 432 c 128,-1,32
 241 416 241 416 226.5 396.5 c 128,-1,33
 212 377 212 377 205 358 c 1,34,-1
 205 50 l 1,35,-1
 271 50 l 1,36,-1
 271 0 l 1,37,-1
 26 0 l 1,38,-1
 26 50 l 1,39,-1
 100 50 l 1,40,-1
 100 598 l 1,41,-1
 5 598 l 1,42,-1
 5 653 l 1,0,-1
EndSplineSet
EndChar

StartChar: Iogonek
Encoding: 302 302 230
Width: 398
Flags: W
LayerCount: 2
Fore
SplineSet
346 0 m 1,0,-1
 290 0 l 1,1,2
 244 -19 244 -19 217.5 -43.5 c 128,-1,3
 191 -68 191 -68 191 -110 c 0,4,5
 191 -137 191 -137 211 -147.5 c 128,-1,6
 231 -158 231 -158 264 -158 c 0,7,8
 298 -158 298 -158 327 -152 c 1,9,-1
 327 -183 l 1,10,11
 311 -194 311 -194 286 -202.5 c 128,-1,12
 261 -211 261 -211 224 -211 c 0,13,14
 198 -211 198 -211 174.5 -206 c 128,-1,15
 151 -201 151 -201 133.5 -191 c 128,-1,16
 116 -181 116 -181 105.5 -165.5 c 128,-1,17
 95 -150 95 -150 95 -128 c 0,18,19
 95 -82 95 -82 129.5 -50.5 c 128,-1,20
 164 -19 164 -19 215 0 c 1,21,-1
 52 0 l 1,22,-1
 52 56 l 1,23,-1
 143 56 l 1,24,-1
 143 644 l 1,25,-1
 52 644 l 1,26,-1
 52 700 l 1,27,-1
 346 700 l 1,28,-1
 346 644 l 1,29,-1
 255 644 l 1,30,-1
 255 56 l 1,31,-1
 346 56 l 1,32,-1
 346 0 l 1,0,-1
EndSplineSet
Position2: "'cpsp' Capital Spacing lookup 0 subtable" dx=40 dy=0 dh=80 dv=0
EndChar

StartChar: iogonek
Encoding: 303 303 231
Width: 339
Flags: W
LayerCount: 2
Fore
SplineSet
298 0 m 1,0,-1
 282 0 l 1,1,2
 258 -6 258 -6 237.5 -17 c 128,-1,3
 217 -28 217 -28 202 -41.5 c 128,-1,4
 187 -55 187 -55 178.5 -70 c 128,-1,5
 170 -85 170 -85 170 -100 c 0,6,7
 170 -120 170 -120 184.5 -136.5 c 128,-1,8
 199 -153 199 -153 234 -153 c 0,9,10
 264 -153 264 -153 293 -143 c 1,11,-1
 293 -179 l 1,12,13
 277 -188 277 -188 252.5 -194 c 128,-1,14
 228 -200 228 -200 208 -200 c 0,15,16
 142 -200 142 -200 108 -178.5 c 128,-1,17
 74 -157 74 -157 74 -117 c 0,18,19
 74 -76 74 -76 108.5 -50.5 c 128,-1,20
 143 -25 143 -25 215 0 c 1,21,-1
 45 0 l 1,22,-1
 45 50 l 1,23,-1
 119 50 l 1,24,-1
 119 475 l 1,25,-1
 45 475 l 1,26,-1
 45 525 l 1,27,-1
 224 525 l 1,28,-1
 224 50 l 1,29,-1
 298 50 l 1,30,-1
 298 0 l 1,0,-1
97 687 m 256,31,32
 97 716 97 716 117.5 733 c 128,-1,33
 138 750 138 750 170 750 c 0,34,35
 204 750 204 750 223.5 733 c 128,-1,36
 243 716 243 716 243 687 c 256,37,38
 243 658 243 658 223.5 641 c 128,-1,39
 204 624 204 624 170 624 c 0,40,41
 138 624 138 624 117.5 641 c 128,-1,42
 97 658 97 658 97 687 c 256,31,32
EndSplineSet
EndChar

StartChar: Lslash
Encoding: 321 321 244
Width: 609
Flags: W
LayerCount: 2
Fore
SplineSet
32 644 m 1,0,-1
 32 700 l 1,1,-1
 343 700 l 1,2,-1
 343 644 l 1,3,-1
 235 644 l 1,4,-1
 235 404 l 1,5,-1
 385 487 l 1,6,-1
 385 410 l 1,7,-1
 235 327 l 1,8,-1
 235 56 l 1,9,-1
 501 56 l 1,10,-1
 521 78 l 1,11,-1
 521 216 l 1,12,-1
 593 216 l 1,13,-1
 593 0 l 1,14,-1
 32 0 l 1,15,-1
 32 56 l 1,16,-1
 123 56 l 1,17,-1
 123 266 l 1,18,-1
 19 209 l 1,19,-1
 19 285 l 1,20,-1
 123 342 l 1,21,-1
 123 644 l 1,22,-1
 32 644 l 1,0,-1
EndSplineSet
Position2: "'cpsp' Capital Spacing lookup 0 subtable" dx=40 dy=0 dh=80 dv=0
EndChar

StartChar: lslash
Encoding: 322 322 245
Width: 360
Flags: W
LayerCount: 2
Fore
SplineSet
27 310 m 1,0,-1
 133 371 l 1,1,-1
 133 700 l 1,2,-1
 48 700 l 1,3,-1
 48 750 l 1,4,-1
 238 750 l 1,5,-1
 238 431 l 1,6,-1
 339 490 l 1,7,-1
 339 421 l 1,8,-1
 238 362 l 1,9,-1
 238 50 l 1,10,-1
 312 50 l 1,11,-1
 312 0 l 1,12,-1
 59 0 l 1,13,-1
 59 50 l 1,14,-1
 133 50 l 1,15,-1
 133 301 l 1,16,-1
 27 240 l 1,17,-1
 27 310 l 1,0,-1
EndSplineSet
EndChar

StartChar: OE
Encoding: 338 338 256
Width: 1064
Flags: W
LayerCount: 2
Fore
SplineSet
414 712 m 0,0,1
 440 712 440 712 475 709 c 128,-1,2
 510 706 510 706 542 700 c 1,3,-1
 980 700 l 1,4,-1
 980 536 l 1,5,-1
 916 536 l 1,6,-1
 916 622 l 1,7,-1
 896 644 l 1,8,-1
 654 644 l 1,9,-1
 654 385 l 1,10,-1
 823 385 l 1,11,-1
 838 400 l 1,12,-1
 838 442 l 1,13,-1
 902 442 l 1,14,-1
 902 271 l 1,15,-1
 838 271 l 1,16,-1
 838 313 l 1,17,-1
 823 329 l 1,18,-1
 654 329 l 1,19,-1
 654 56 l 1,20,-1
 916 56 l 1,21,-1
 936 76 l 1,22,-1
 936 174 l 1,23,-1
 1000 174 l 1,24,-1
 1000 0 l 1,25,-1
 543 0 l 1,26,27
 514 -5 514 -5 479.5 -8.5 c 128,-1,28
 445 -12 445 -12 414 -12 c 0,29,30
 329 -12 329 -12 262.5 15 c 128,-1,31
 196 42 196 42 150.5 90.5 c 128,-1,32
 105 139 105 139 81 205.5 c 128,-1,33
 57 272 57 272 57 350 c 256,34,35
 57 428 57 428 81 494.5 c 128,-1,36
 105 561 105 561 150.5 609.5 c 128,-1,37
 196 658 196 658 262.5 685 c 128,-1,38
 329 712 329 712 414 712 c 0,0,1
424 42 m 0,39,40
 453 42 453 42 483.5 46.5 c 128,-1,41
 514 51 514 51 542 62 c 1,42,-1
 542 633 l 1,43,44
 513 644 513 644 478 651 c 128,-1,45
 443 658 443 658 405 658 c 0,46,47
 345 658 345 658 302.5 634 c 128,-1,48
 260 610 260 610 233 568 c 128,-1,49
 206 526 206 526 194 470 c 128,-1,50
 182 414 182 414 182 350 c 256,51,52
 182 286 182 286 196.5 230 c 128,-1,53
 211 174 211 174 241 132 c 128,-1,54
 271 90 271 90 316.5 66 c 128,-1,55
 362 42 362 42 424 42 c 0,39,40
EndSplineSet
Position2: "'cpsp' Capital Spacing lookup 0 subtable" dx=40 dy=0 dh=80 dv=0
EndChar

StartChar: oe
Encoding: 339 339 257
Width: 984
Flags: W
LayerCount: 2
Fore
SplineSet
158 262 m 0,0,1
 158 214 158 214 167 173 c 128,-1,2
 176 132 176 132 196.5 102 c 128,-1,3
 217 72 217 72 250 54.5 c 128,-1,4
 283 37 283 37 330 37 c 0,5,6
 389 37 389 37 427 91 c 128,-1,7
 465 145 465 145 465 262 c 0,8,9
 465 310 465 310 456 351.5 c 128,-1,10
 447 393 447 393 427.5 423.5 c 128,-1,11
 408 454 408 454 377 471 c 128,-1,12
 346 488 346 488 302 488 c 0,13,14
 236 488 236 488 197 434 c 128,-1,15
 158 380 158 380 158 262 c 0,0,1
521 79 m 1,16,17
 501 54 501 54 476.5 37 c 128,-1,18
 452 20 452 20 424.5 9.5 c 128,-1,19
 397 -1 397 -1 368 -5.5 c 128,-1,20
 339 -10 339 -10 311 -10 c 0,21,22
 243 -10 243 -10 193 9.5 c 128,-1,23
 143 29 143 29 110 64.5 c 128,-1,24
 77 100 77 100 61 150 c 128,-1,25
 45 200 45 200 45 262 c 0,26,27
 45 328 45 328 64 379 c 128,-1,28
 83 430 83 430 117.5 464.5 c 128,-1,29
 152 499 152 499 201.5 517 c 128,-1,30
 251 535 251 535 311 535 c 0,31,32
 341 535 341 535 371.5 530.5 c 128,-1,33
 402 526 402 526 429 515.5 c 128,-1,34
 456 505 456 505 479 488.5 c 128,-1,35
 502 472 502 472 519 448 c 1,36,37
 533 470 533 470 555.5 486.5 c 128,-1,38
 578 503 578 503 605 514 c 128,-1,39
 632 525 632 525 661 530 c 128,-1,40
 690 535 690 535 719 535 c 0,41,42
 759 535 759 535 797 525.5 c 128,-1,43
 835 516 835 516 865 493 c 128,-1,44
 895 470 895 470 913.5 432 c 128,-1,45
 932 394 932 394 932 337 c 0,46,47
 932 320 932 320 930 301 c 128,-1,48
 928 282 928 282 924 261 c 1,49,-1
 576 261 l 1,50,51
 576 217 576 217 587.5 179.5 c 128,-1,52
 599 142 599 142 622.5 115 c 128,-1,53
 646 88 646 88 681.5 72.5 c 128,-1,54
 717 57 717 57 765 57 c 0,55,56
 803 57 803 57 836.5 73 c 128,-1,57
 870 89 870 89 892 113 c 1,58,-1
 922 78 l 1,59,60
 913 60 913 60 893.5 44 c 128,-1,61
 874 28 874 28 849 16 c 128,-1,62
 824 4 824 4 794 -3 c 128,-1,63
 764 -10 764 -10 734 -10 c 0,64,65
 703 -10 703 -10 670.5 -4 c 128,-1,66
 638 2 638 2 608.5 13.5 c 128,-1,67
 579 25 579 25 556 41.5 c 128,-1,68
 533 58 533 58 521 79 c 1,16,17
715 488 m 0,69,70
 684 488 684 488 660 479 c 128,-1,71
 636 470 636 470 619 449 c 128,-1,72
 602 428 602 428 592 393.5 c 128,-1,73
 582 359 582 359 579 308 c 1,74,-1
 821 308 l 1,75,76
 822 317 822 317 822 326 c 128,-1,77
 822 335 822 335 822 343 c 0,78,79
 822 410 822 410 796 449 c 128,-1,80
 770 488 770 488 715 488 c 0,69,70
EndSplineSet
EndChar

StartChar: Scedilla
Encoding: 350 350 268
Width: 596
Flags: W
LayerCount: 2
Fore
SplineSet
126 98 m 1,0,-1
 144 74 l 1,1,2
 162 61 162 61 193.5 52.5 c 128,-1,3
 225 44 225 44 263 44 c 0,4,5
 299 44 299 44 329.5 51.5 c 128,-1,6
 360 59 360 59 383 74 c 128,-1,7
 406 89 406 89 419 112 c 128,-1,8
 432 135 432 135 432 167 c 0,9,10
 432 208 432 208 404.5 235 c 128,-1,11
 377 262 377 262 336 283 c 128,-1,12
 295 304 295 304 247 324 c 128,-1,13
 199 344 199 344 158 371 c 128,-1,14
 117 398 117 398 89.5 436 c 128,-1,15
 62 474 62 474 62 532 c 0,16,17
 62 617 62 617 126.5 664.5 c 128,-1,18
 191 712 191 712 301 712 c 0,19,20
 370 712 370 712 420 703 c 128,-1,21
 470 694 470 694 505 679 c 1,22,-1
 505 507 l 1,23,-1
 441 507 l 1,24,-1
 441 615 l 1,25,-1
 425 640 l 1,26,27
 406 648 406 648 370 652 c 128,-1,28
 334 656 334 656 299 656 c 0,29,30
 239 656 239 656 205 628.5 c 128,-1,31
 171 601 171 601 171 551 c 0,32,33
 171 510 171 510 198.5 482.5 c 128,-1,34
 226 455 226 455 267 433 c 128,-1,35
 308 411 308 411 356 390.5 c 128,-1,36
 404 370 404 370 445 343.5 c 128,-1,37
 486 317 486 317 513.5 280 c 128,-1,38
 541 243 541 243 541 188 c 0,39,40
 541 100 541 100 479 49 c 128,-1,41
 417 -2 417 -2 307 -10 c 1,42,-1
 280 -64 l 1,43,44
 348 -66 348 -66 381 -82.5 c 128,-1,45
 414 -99 414 -99 414 -135 c 0,46,47
 414 -165 414 -165 394 -184 c 128,-1,48
 374 -203 374 -203 343.5 -213.5 c 128,-1,49
 313 -224 313 -224 277 -228 c 128,-1,50
 241 -232 241 -232 209 -232 c 1,51,-1
 209 -199 l 1,52,53
 231 -198 231 -198 249.5 -195.5 c 128,-1,54
 268 -193 268 -193 282 -188 c 128,-1,55
 296 -183 296 -183 304 -174.5 c 128,-1,56
 312 -166 312 -166 312 -152 c 0,57,58
 312 -125 312 -125 287 -117 c 128,-1,59
 262 -109 262 -109 212 -107 c 1,60,-1
 251 -12 l 1,61,62
 184 -10 184 -10 134.5 4.5 c 128,-1,63
 85 19 85 19 62 35 c 1,64,-1
 62 217 l 1,65,-1
 126 217 l 1,66,-1
 126 98 l 1,0,-1
EndSplineSet
Substitution2: "'locl' Localized Forms in Latin lookup 9 subtable" Scommaaccent
Position2: "'cpsp' Capital Spacing lookup 0 subtable" dx=40 dy=0 dh=80 dv=0
EndChar

StartChar: scedilla
Encoding: 351 351 269
Width: 486
Flags: W
LayerCount: 2
Fore
SplineSet
332 119 m 0,0,1
 332 146 332 146 312 166.5 c 128,-1,2
 292 187 292 187 262 204.5 c 128,-1,3
 232 222 232 222 197 239.5 c 128,-1,4
 162 257 162 257 132 279.5 c 128,-1,5
 102 302 102 302 82 332.5 c 128,-1,6
 62 363 62 363 62 406 c 0,7,8
 62 435 62 435 76 458.5 c 128,-1,9
 90 482 90 482 113.5 499 c 128,-1,10
 137 516 137 516 169 525.5 c 128,-1,11
 201 535 201 535 237 535 c 0,12,13
 267 535 267 535 290 533 c 128,-1,14
 313 531 313 531 332 527.5 c 128,-1,15
 351 524 351 524 368 519 c 128,-1,16
 385 514 385 514 403 508 c 1,17,-1
 403 373 l 1,18,-1
 339 373 l 1,19,-1
 339 452 l 1,20,-1
 320 474 l 1,21,22
 307 477 307 477 292 479 c 128,-1,23
 277 481 277 481 260 481 c 0,24,25
 212 481 212 481 188.5 462.5 c 128,-1,26
 165 444 165 444 165 416 c 0,27,28
 165 389 165 389 185 369 c 128,-1,29
 205 349 205 349 235 331.5 c 128,-1,30
 265 314 265 314 300 297 c 128,-1,31
 335 280 335 280 365 258.5 c 128,-1,32
 395 237 395 237 415 209 c 128,-1,33
 435 181 435 181 435 142 c 0,34,35
 435 109 435 109 420.5 82 c 128,-1,36
 406 55 406 55 380.5 35.5 c 128,-1,37
 355 16 355 16 321 4.5 c 128,-1,38
 287 -7 287 -7 248 -10 c 1,39,-1
 224 -61 l 1,40,41
 287 -63 287 -63 316 -78 c 128,-1,42
 345 -93 345 -93 345 -127 c 0,43,44
 345 -158 345 -158 327.5 -177 c 128,-1,45
 310 -196 310 -196 283 -206.5 c 128,-1,46
 256 -217 256 -217 223 -220.5 c 128,-1,47
 190 -224 190 -224 159 -224 c 1,48,-1
 159 -192 l 1,49,50
 180 -191 180 -191 197.5 -189 c 128,-1,51
 215 -187 215 -187 227 -182 c 128,-1,52
 239 -177 239 -177 245.5 -168 c 128,-1,53
 252 -159 252 -159 252 -143 c 0,54,55
 252 -117 252 -117 229 -111 c 128,-1,56
 206 -105 206 -105 160 -101 c 1,57,-1
 198 -10 l 1,58,59
 156 -6 156 -6 119 5.5 c 128,-1,60
 82 17 82 17 60 32 c 1,61,-1
 60 163 l 1,62,-1
 124 163 l 1,63,-1
 124 87 l 1,64,-1
 144 66 l 1,65,66
 157 56 157 56 175 50 c 128,-1,67
 193 44 193 44 222 44 c 0,68,69
 270 44 270 44 301 64 c 128,-1,70
 332 84 332 84 332 119 c 0,0,1
EndSplineSet
Substitution2: "'locl' Localized Forms in Latin lookup 9 subtable" scommaaccent
EndChar

StartChar: Tcedilla
Encoding: 354 354 272
Width: 698
Flags: W
LayerCount: 2
Fore
SplineSet
508 0 m 1,0,-1
 377 0 l 1,1,-1
 344 -64 l 1,2,3
 412 -66 412 -66 445 -82.5 c 128,-1,4
 478 -99 478 -99 478 -135 c 0,5,6
 478 -165 478 -165 458 -184 c 128,-1,7
 438 -203 438 -203 407.5 -213.5 c 128,-1,8
 377 -224 377 -224 341 -228 c 128,-1,9
 305 -232 305 -232 273 -232 c 1,10,-1
 273 -199 l 1,11,12
 295 -198 295 -198 313.5 -195.5 c 128,-1,13
 332 -193 332 -193 346 -188 c 128,-1,14
 360 -183 360 -183 368 -174.5 c 128,-1,15
 376 -166 376 -166 376 -152 c 0,16,17
 376 -125 376 -125 351 -117 c 128,-1,18
 326 -109 326 -109 276 -107 c 1,19,-1
 320 0 l 1,20,-1
 190 0 l 1,21,-1
 190 56 l 1,22,-1
 293 56 l 1,23,-1
 293 644 l 1,24,-1
 114 644 l 1,25,-1
 94 622 l 1,26,-1
 94 493 l 1,27,-1
 22 493 l 1,28,-1
 22 700 l 1,29,-1
 676 700 l 1,30,-1
 676 493 l 1,31,-1
 604 493 l 1,32,-1
 604 622 l 1,33,-1
 584 644 l 1,34,-1
 405 644 l 1,35,-1
 405 56 l 1,36,-1
 508 56 l 1,37,-1
 508 0 l 1,0,-1
EndSplineSet
Substitution2: "'locl' Localized Forms in Latin lookup 9 subtable" Tcommaaccent
Position2: "'cpsp' Capital Spacing lookup 0 subtable" dx=40 dy=0 dh=80 dv=0
EndChar

StartChar: tcedilla
Encoding: 355 355 273
Width: 418
Flags: W
LayerCount: 2
Fore
SplineSet
17 525 m 1,0,-1
 106 525 l 1,1,-1
 106 650 l 1,2,-1
 211 650 l 1,3,-1
 211 525 l 1,4,-1
 377 525 l 1,5,-1
 377 461 l 1,6,-1
 211 461 l 1,7,-1
 211 169 l 2,8,9
 211 106 211 106 227 80 c 128,-1,10
 243 54 243 54 279 54 c 0,11,12
 310 54 310 54 332.5 65 c 128,-1,13
 355 76 355 76 374 89 c 1,14,-1
 399 50 l 1,15,16
 390 41 390 41 375 31 c 128,-1,17
 360 21 360 21 340.5 12 c 128,-1,18
 321 3 321 3 297 -3 c 128,-1,19
 273 -9 273 -9 248 -10 c 1,20,-1
 224 -61 l 1,21,22
 287 -63 287 -63 316 -78 c 128,-1,23
 345 -93 345 -93 345 -127 c 0,24,25
 345 -159 345 -159 327.5 -178 c 128,-1,26
 310 -197 310 -197 283 -207 c 128,-1,27
 256 -217 256 -217 223 -220.5 c 128,-1,28
 190 -224 190 -224 159 -224 c 1,29,-1
 159 -192 l 1,30,31
 180 -191 180 -191 197.5 -189 c 128,-1,32
 215 -187 215 -187 227 -182 c 128,-1,33
 239 -177 239 -177 245.5 -168 c 128,-1,34
 252 -159 252 -159 252 -143 c 0,35,36
 252 -117 252 -117 229 -111 c 128,-1,37
 206 -105 206 -105 160 -101 c 1,38,-1
 199 -5 l 1,39,40
 154 5 154 5 130 39 c 128,-1,41
 106 73 106 73 106 139 c 2,42,-1
 106 461 l 1,43,-1
 17 461 l 1,44,-1
 17 525 l 1,0,-1
EndSplineSet
Substitution2: "'locl' Localized Forms in Latin lookup 9 subtable" tcommaaccent
EndChar

StartChar: Uogonek
Encoding: 370 370 284
Width: 762
Flags: W
LayerCount: 2
Fore
SplineSet
659 239 m 1,0,1
 659 137 659 137 613 79 c 128,-1,2
 567 21 567 21 486 1 c 1,3,4
 439 -17 439 -17 412.5 -42.5 c 128,-1,5
 386 -68 386 -68 386 -110 c 0,6,7
 386 -137 386 -137 406 -147.5 c 128,-1,8
 426 -158 426 -158 459 -158 c 0,9,10
 493 -158 493 -158 522 -152 c 1,11,-1
 522 -183 l 1,12,13
 506 -194 506 -194 481 -202.5 c 128,-1,14
 456 -211 456 -211 419 -211 c 0,15,16
 393 -211 393 -211 369.5 -206 c 128,-1,17
 346 -201 346 -201 328.5 -191 c 128,-1,18
 311 -181 311 -181 300.5 -165.5 c 128,-1,19
 290 -150 290 -150 290 -128 c 0,20,21
 290 -87 290 -87 317.5 -58 c 128,-1,22
 345 -29 345 -29 388 -9 c 1,23,24
 249 -7 249 -7 176 49 c 128,-1,25
 103 105 103 105 103 222 c 2,26,-1
 103 644 l 1,27,-1
 12 644 l 1,28,-1
 12 700 l 1,29,-1
 296 700 l 1,30,-1
 296 644 l 1,31,-1
 215 644 l 1,32,-1
 215 243 l 2,33,34
 215 191 215 191 228 155.5 c 128,-1,35
 241 120 241 120 265.5 98.5 c 128,-1,36
 290 77 290 77 326 67.5 c 128,-1,37
 362 58 362 58 408 58 c 0,38,39
 496 58 496 58 545.5 102 c 128,-1,40
 595 146 595 146 595 246 c 2,41,-1
 595 644 l 1,42,-1
 514 644 l 1,43,-1
 514 700 l 1,44,-1
 750 700 l 1,45,-1
 750 644 l 1,46,-1
 659 644 l 1,47,-1
 659 239 l 1,48,-1
 659 239 l 1,0,1
EndSplineSet
Position2: "'cpsp' Capital Spacing lookup 0 subtable" dx=40 dy=0 dh=80 dv=0
EndChar

StartChar: uogonek
Encoding: 371 371 285
Width: 647
Flags: W
LayerCount: 2
Fore
SplineSet
87 208 m 0,0,1
 87 274 87 274 90 343 c 128,-1,2
 93 412 93 412 93 475 c 1,3,-1
 19 475 l 1,4,-1
 19 525 l 1,5,-1
 197 525 l 1,6,7
 195 447 195 447 193.5 375.5 c 128,-1,8
 192 304 192 304 192 227 c 0,9,10
 192 186 192 186 196.5 154.5 c 128,-1,11
 201 123 201 123 213.5 101 c 128,-1,12
 226 79 226 79 248 68 c 128,-1,13
 270 57 270 57 304 57 c 0,14,15
 354 57 354 57 388 89 c 128,-1,16
 422 121 422 121 440 175 c 1,17,-1
 440 475 l 1,18,-1
 367 475 l 1,19,-1
 367 525 l 1,20,-1
 545 525 l 1,21,-1
 545 50 l 1,22,-1
 619 50 l 1,23,-1
 619 0 l 1,24,-1
 606 0 l 1,25,26
 557 -9 557 -9 524 -31.5 c 128,-1,27
 491 -54 491 -54 491 -100 c 0,28,29
 491 -120 491 -120 505.5 -136.5 c 128,-1,30
 520 -153 520 -153 555 -153 c 0,31,32
 585 -153 585 -153 614 -143 c 1,33,-1
 614 -179 l 1,34,35
 598 -188 598 -188 573.5 -194 c 128,-1,36
 549 -200 549 -200 529 -200 c 0,37,38
 463 -200 463 -200 429 -178.5 c 128,-1,39
 395 -157 395 -157 395 -117 c 0,40,41
 395 -90 395 -90 409.5 -70 c 128,-1,42
 424 -50 424 -50 445 -36 c 128,-1,43
 466 -22 466 -22 490.5 -13.5 c 128,-1,44
 515 -5 515 -5 535 0 c 1,45,-1
 452 0 l 1,46,-1
 445 114 l 1,47,-1
 440 114 l 1,48,49
 435 93 435 93 420.5 71 c 128,-1,50
 406 49 406 49 384 31 c 128,-1,51
 362 13 362 13 333 1.5 c 128,-1,52
 304 -10 304 -10 270 -10 c 0,53,54
 225 -10 225 -10 191 -0.5 c 128,-1,55
 157 9 157 9 134 34 c 128,-1,56
 111 59 111 59 99 101 c 128,-1,57
 87 143 87 143 87 208 c 0,0,1
EndSplineSet
EndChar

StartChar: longs
Encoding: 383 383 293
Width: 385
Flags: W
LayerCount: 2
Fore
SplineSet
307 750 m 0,0,1
 324 750 324 750 342.5 747.5 c 128,-1,2
 361 745 361 745 377.5 740.5 c 128,-1,3
 394 736 394 736 407.5 730.5 c 128,-1,4
 421 725 421 725 429 719 c 1,5,-1
 429 626 l 1,6,-1
 333 626 l 1,7,-1
 333 692 l 1,8,9
 322 694 322 694 315 695 c 128,-1,10
 308 696 308 696 298 696 c 0,11,12
 254 696 254 696 239.5 660.5 c 128,-1,13
 225 625 225 625 225 547 c 2,14,-1
 225 50 l 1,15,-1
 332 50 l 1,16,-1
 332 0 l 1,17,-1
 46 0 l 1,18,-1
 46 50 l 1,19,-1
 120 50 l 1,20,-1
 120 475 l 1,21,-1
 35 475 l 1,22,-1
 35 525 l 1,23,-1
 120 525 l 1,24,-1
 120 541 l 2,25,26
 120 601 120 601 136 641 c 128,-1,27
 152 681 152 681 178 705 c 128,-1,28
 204 729 204 729 238 739.5 c 128,-1,29
 272 750 272 750 307 750 c 0,0,1
EndSplineSet
EndChar

StartChar: florin
Encoding: 402 402 294
Width: 600
Flags: W
LayerCount: 2
Fore
SplineSet
219 475 m 1,0,-1
 139 475 l 1,1,-1
 139 525 l 1,2,-1
 232 525 l 1,3,-1
 235 539 l 2,4,5
 257 642 257 642 317 696 c 128,-1,6
 377 750 377 750 470 750 c 0,7,8
 479 750 479 750 491.5 748.5 c 128,-1,9
 504 747 504 747 516.5 745 c 128,-1,10
 529 743 529 743 540.5 740 c 128,-1,11
 552 737 552 737 561 733 c 1,12,-1
 561 650 l 1,13,-1
 463 650 l 1,14,-1
 463 696 l 1,15,16
 432 696 432 696 411.5 688 c 128,-1,17
 391 680 391 680 377 662.5 c 128,-1,18
 363 645 363 645 353 616.5 c 128,-1,19
 343 588 343 588 333 546 c 2,20,-1
 328 525 l 1,21,-1
 441 525 l 1,22,-1
 441 475 l 1,23,-1
 317 475 l 1,24,-1
 246 45 l 2,25,26
 234 -29 234 -29 205 -76 c 128,-1,27
 176 -123 176 -123 142.5 -150.5 c 128,-1,28
 109 -178 109 -178 77 -190 c 128,-1,29
 45 -202 45 -202 27 -207 c 1,30,-1
 16 -179 l 1,31,32
 30 -173 30 -173 48.5 -159.5 c 128,-1,33
 67 -146 67 -146 86 -122.5 c 128,-1,34
 105 -99 105 -99 121.5 -63 c 128,-1,35
 138 -27 138 -27 147 25 c 2,36,-1
 219 475 l 1,0,-1
EndSplineSet
EndChar

StartChar: uni0237
Encoding: 567 567 301
Width: 326
Flags: W
LayerCount: 2
Fore
SplineSet
119 475 m 1,0,-1
 45 475 l 1,1,-1
 45 525 l 1,2,-1
 224 525 l 1,3,-1
 224 62 l 2,4,5
 224 -13 224 -13 203.5 -62 c 128,-1,6
 183 -111 183 -111 155 -141.5 c 128,-1,7
 127 -172 127 -172 98.5 -186.5 c 128,-1,8
 70 -201 70 -201 54 -206 c 1,9,-1
 27 -163 l 1,10,11
 40 -157 40 -157 56 -144.5 c 128,-1,12
 72 -132 72 -132 86 -109 c 128,-1,13
 100 -86 100 -86 109.5 -49.5 c 128,-1,14
 119 -13 119 -13 119 42 c 2,15,-1
 119 475 l 1,0,-1
EndSplineSet
EndChar

StartChar: circumflex
Encoding: 710 710 303
Width: 400
Flags: W
LayerCount: 2
Fore
SplineSet
92 619 m 1,0,-1
 60 636 l 1,1,-1
 185 832 l 1,2,-1
 214 832 l 1,3,-1
 340 637 l 1,4,-1
 308 619 l 1,5,-1
 195 731 l 1,6,-1
 92 619 l 1,0,-1
EndSplineSet
EndChar

StartChar: caron
Encoding: 711 711 304
Width: 425
Flags: W
LayerCount: 2
Fore
SplineSet
333 806 m 1,0,-1
 365 789 l 1,1,-1
 226 594 l 1,2,-1
 197 594 l 1,3,-1
 60 788 l 1,4,-1
 100 806 l 1,5,-1
 219 696 l 1,6,-1
 333 806 l 1,0,-1
EndSplineSet
AlternateSubs2: "'aalt' Access All Alternates lookup 1 subtable" caron.l caron.L
EndChar

StartChar: breve
Encoding: 728 728 305
Width: 427
Flags: W
LayerCount: 2
Fore
SplineSet
367 756 m 1,0,1
 357 732 357 732 342.5 709 c 128,-1,2
 328 686 328 686 309.5 668 c 128,-1,3
 291 650 291 650 267.5 638.5 c 128,-1,4
 244 627 244 627 216 627 c 0,5,6
 156 627 156 627 118 664 c 128,-1,7
 80 701 80 701 60 758 c 1,8,-1
 92 772 l 1,9,10
 101 757 101 757 116 744.5 c 128,-1,11
 131 732 131 732 148.5 723 c 128,-1,12
 166 714 166 714 184.5 708.5 c 128,-1,13
 203 703 203 703 220 703 c 0,14,15
 256 703 256 703 287 719.5 c 128,-1,16
 318 736 318 736 340 768 c 1,17,-1
 367 756 l 1,0,1
EndSplineSet
EndChar

StartChar: dotaccent
Encoding: 729 729 306
Width: 333
Flags: W
LayerCount: 2
Fore
SplineSet
97 687 m 256,0,1
 97 716 97 716 117.5 733 c 128,-1,2
 138 750 138 750 170 750 c 0,3,4
 204 750 204 750 223.5 733 c 128,-1,5
 243 716 243 716 243 687 c 256,6,7
 243 658 243 658 223.5 641 c 128,-1,8
 204 624 204 624 170 624 c 0,9,10
 138 624 138 624 117.5 641 c 128,-1,11
 97 658 97 658 97 687 c 256,0,1
EndSplineSet
EndChar

StartChar: ring
Encoding: 730 730 307
Width: 339
Flags: W
LayerCount: 2
Fore
SplineSet
60 717 m 0,0,1
 60 760 60 760 92 789.5 c 128,-1,2
 124 819 124 819 173 819 c 0,3,4
 218 819 218 819 248.5 792.5 c 128,-1,5
 279 766 279 766 279 720 c 0,6,7
 279 699 279 699 270 681 c 128,-1,8
 261 663 261 663 246.5 650 c 128,-1,9
 232 637 232 637 212.5 629.5 c 128,-1,10
 193 622 193 622 172 622 c 0,11,12
 121 622 121 622 90.5 647.5 c 128,-1,13
 60 673 60 673 60 717 c 0,0,1
120 719 m 256,14,15
 120 693 120 693 135 679.5 c 128,-1,16
 150 666 150 666 168 666 c 0,17,18
 190 666 190 666 204.5 678 c 128,-1,19
 219 690 219 690 219 716 c 0,20,21
 219 745 219 745 205 760 c 128,-1,22
 191 775 191 775 169 775 c 0,23,24
 143 775 143 775 131.5 760 c 128,-1,25
 120 745 120 745 120 719 c 256,14,15
EndSplineSet
EndChar

StartChar: ogonek
Encoding: 731 731 308
Width: 470
Flags: W
LayerCount: 2
Fore
SplineSet
418 21 m 1,0,1
 391 9 391 9 368 -2.5 c 128,-1,2
 345 -14 345 -14 328 -27.5 c 128,-1,3
 311 -41 311 -41 301 -58.5 c 128,-1,4
 291 -76 291 -76 291 -100 c 0,5,6
 291 -120 291 -120 305.5 -136.5 c 128,-1,7
 320 -153 320 -153 355 -153 c 0,8,9
 385 -153 385 -153 414 -143 c 1,10,-1
 414 -179 l 1,11,12
 398 -188 398 -188 373.5 -194 c 128,-1,13
 349 -200 349 -200 329 -200 c 0,14,15
 263 -200 263 -200 229 -178.5 c 128,-1,16
 195 -157 195 -157 195 -117 c 0,17,18
 195 -89 195 -89 209 -68.5 c 128,-1,19
 223 -48 223 -48 247 -32.5 c 128,-1,20
 271 -17 271 -17 304 -4.5 c 128,-1,21
 337 8 337 8 375 21 c 1,22,-1
 418 21 l 1,0,1
EndSplineSet
EndChar

StartChar: tilde
Encoding: 732 732 309
Width: 466
Flags: W
LayerCount: 2
Fore
SplineSet
406 705 m 1,0,1
 370 671 370 671 339.5 658.5 c 128,-1,2
 309 646 309 646 284 646 c 0,3,4
 264 646 264 646 246 651.5 c 128,-1,5
 228 657 228 657 211 663.5 c 128,-1,6
 194 670 194 670 178 675.5 c 128,-1,7
 162 681 162 681 145 681 c 0,8,9
 131 681 131 681 115.5 675.5 c 128,-1,10
 100 670 100 670 82 655 c 1,11,-1
 60 687 l 1,12,13
 102 723 102 723 134.5 736 c 128,-1,14
 167 749 167 749 193 749 c 0,15,16
 213 749 213 749 230.5 743.5 c 128,-1,17
 248 738 248 738 264 732 c 128,-1,18
 280 726 280 726 296 720.5 c 128,-1,19
 312 715 312 715 329 715 c 0,20,21
 343 715 343 715 358 719.5 c 128,-1,22
 373 724 373 724 390 736 c 1,23,-1
 406 705 l 1,0,1
EndSplineSet
EndChar

StartChar: hungarumlaut
Encoding: 733 733 310
Width: 499
Flags: W
LayerCount: 2
Fore
SplineSet
145 806 m 1,0,-1
 242 784 l 1,1,-1
 242 758 l 1,2,-1
 87 628 l 1,3,-1
 60 644 l 1,4,-1
 145 806 l 1,0,-1
341 806 m 1,5,-1
 439 777 l 1,6,-1
 439 752 l 1,7,-1
 215 628 l 1,8,-1
 192 646 l 1,9,-1
 341 806 l 1,5,-1
EndSplineSet
EndChar

StartChar: uni0394
Encoding: 916 916 312
AltUni2: 002206.ffffffff.0
Width: 728
Flags: W
LayerCount: 2
Fore
SplineSet
22 0 m 1,0,-1
 22 32 l 1,1,-1
 351 700 l 1,2,-1
 384 700 l 1,3,-1
 706 32 l 1,4,-1
 706 0 l 1,5,-1
 22 0 l 1,0,-1
344 559 m 1,6,-1
 103 62 l 1,7,-1
 572 62 l 1,8,-1
 344 559 l 1,6,-1
EndSplineSet
EndChar

StartChar: uni03A9
Encoding: 937 937 313
AltUni2: 002126.ffffffff.0
Width: 895
Flags: W
LayerCount: 2
Fore
SplineSet
62 0 m 1,0,-1
 62 146 l 1,1,-1
 126 146 l 1,2,-1
 126 78 l 1,3,-1
 333 78 l 1,4,5
 283 94 283 94 238 121.5 c 128,-1,6
 193 149 193 149 158.5 187 c 128,-1,7
 124 225 124 225 104 273 c 128,-1,8
 84 321 84 321 84 379 c 0,9,10
 84 454 84 454 110 515.5 c 128,-1,11
 136 577 136 577 184 620.5 c 128,-1,12
 232 664 232 664 301 687.5 c 128,-1,13
 370 711 370 711 456 711 c 0,14,15
 543 711 543 711 609.5 688 c 128,-1,16
 676 665 676 665 721.5 623 c 128,-1,17
 767 581 767 581 790.5 521.5 c 128,-1,18
 814 462 814 462 814 389 c 0,19,20
 814 327 814 327 792 276 c 128,-1,21
 770 225 770 225 735 185.5 c 128,-1,22
 700 146 700 146 657 119 c 128,-1,23
 614 92 614 92 572 78 c 1,24,-1
 772 78 l 1,25,-1
 772 146 l 1,26,-1
 836 146 l 1,27,-1
 836 0 l 1,28,-1
 512 0 l 1,29,-1
 513 85 l 1,30,31
 540 95 540 95 570.5 119 c 128,-1,32
 601 143 601 143 627.5 180 c 128,-1,33
 654 217 654 217 671.5 266.5 c 128,-1,34
 689 316 689 316 689 377 c 0,35,36
 689 435 689 435 675 486.5 c 128,-1,37
 661 538 661 538 632 576.5 c 128,-1,38
 603 615 603 615 559 637 c 128,-1,39
 515 659 515 659 456 659 c 0,40,41
 389 659 389 659 342 637 c 128,-1,42
 295 615 295 615 265.5 578 c 128,-1,43
 236 541 236 541 222.5 492 c 128,-1,44
 209 443 209 443 209 388 c 0,45,46
 209 326 209 326 227.5 275 c 128,-1,47
 246 224 246 224 274 185 c 128,-1,48
 302 146 302 146 334 120.5 c 128,-1,49
 366 95 366 95 393 85 c 1,50,-1
 393 0 l 1,51,-1
 62 0 l 1,0,-1
EndSplineSet
EndChar

StartChar: pi
Encoding: 960 960 314
Width: 693
Flags: W
LayerCount: 2
Fore
SplineSet
626 50 m 1,0,-1
 626 0 l 1,1,-1
 440 0 l 1,2,-1
 440 458 l 1,3,-1
 230 458 l 1,4,-1
 230 261 l 2,5,6
 230 226 230 226 227 190 c 128,-1,7
 224 154 224 154 218 120 c 128,-1,8
 212 86 212 86 203.5 55 c 128,-1,9
 195 24 195 24 185 0 c 1,10,-1
 65 0 l 1,11,12
 87 39 87 39 107 96 c 128,-1,13
 127 153 127 153 142 217 c 128,-1,14
 157 281 157 281 166 344 c 128,-1,15
 175 407 175 407 175 458 c 1,16,-1
 156 458 l 2,17,18
 124 458 124 458 99 443 c 128,-1,19
 74 428 74 428 48 396 c 1,20,-1
 20 410 l 1,21,22
 26 437 26 437 36 459.5 c 128,-1,23
 46 482 46 482 64 498 c 128,-1,24
 82 514 82 514 111.5 522.5 c 128,-1,25
 141 531 141 531 187 531 c 0,26,27
 199 531 199 531 232.5 530 c 128,-1,28
 266 529 266 529 310.5 528 c 128,-1,29
 355 527 355 527 405.5 526 c 128,-1,30
 456 525 456 525 502 525 c 0,31,32
 538 525 538 525 562 525.5 c 128,-1,33
 586 526 586 526 602.5 529 c 128,-1,34
 619 532 619 532 630 537.5 c 128,-1,35
 641 543 641 543 652 552 c 1,36,-1
 668 543 l 1,37,38
 663 508 663 508 638.5 483 c 128,-1,39
 614 458 614 458 566 458 c 2,40,-1
 552 458 l 1,41,-1
 552 50 l 1,42,-1
 626 50 l 1,0,-1
EndSplineSet
EndChar

StartChar: afii10051
Encoding: 1026 1026 316
Width: 842
Flags: W
LayerCount: 2
Fore
SplineSet
473 0 m 1,0,-1
 178 0 l 1,1,-1
 178 56 l 1,2,-1
 283 56 l 1,3,-1
 283 644 l 1,4,-1
 104 644 l 1,5,-1
 84 622 l 1,6,-1
 84 493 l 1,7,-1
 12 493 l 1,8,-1
 12 700 l 1,9,-1
 666 700 l 1,10,-1
 666 493 l 1,11,-1
 594 493 l 1,12,-1
 594 622 l 1,13,-1
 574 644 l 1,14,-1
 395 644 l 1,15,-1
 395 389 l 1,16,17
 426 404 426 404 476 419 c 128,-1,18
 526 434 526 434 591 434 c 0,19,20
 637 434 637 434 676.5 425.5 c 128,-1,21
 716 417 716 417 744 395 c 128,-1,22
 772 373 772 373 788 335 c 128,-1,23
 804 297 804 297 804 237 c 0,24,25
 804 162 804 162 786.5 115.5 c 128,-1,26
 769 69 769 69 738 42.5 c 128,-1,27
 707 16 707 16 663.5 6.5 c 128,-1,28
 620 -3 620 -3 569 -3 c 1,29,-1
 565 34 l 1,30,31
 592 39 592 39 615 50 c 128,-1,32
 638 61 638 61 655.5 83 c 128,-1,33
 673 105 673 105 682.5 139.5 c 128,-1,34
 692 174 692 174 692 227 c 0,35,36
 692 297 692 297 661 338.5 c 128,-1,37
 630 380 630 380 557 380 c 0,38,39
 510 380 510 380 468 368.5 c 128,-1,40
 426 357 426 357 395 340 c 1,41,-1
 395 56 l 1,42,-1
 473 56 l 1,43,-1
 473 0 l 1,0,-1
EndSplineSet
Position2: "'cpsp' Capital Spacing lookup 0 subtable" dx=40 dy=0 dh=80 dv=0
EndChar

StartChar: afii10053
Encoding: 1028 1028 318
Width: 698
Flags: W
LayerCount: 2
Fore
SplineSet
569 184 m 1,0,-1
 633 184 l 1,1,-1
 633 27 l 1,2,3
 602 10 602 10 551 -1 c 128,-1,4
 500 -12 500 -12 450 -12 c 0,5,6
 358 -12 358 -12 285 9 c 128,-1,7
 212 30 212 30 161.5 74.5 c 128,-1,8
 111 119 111 119 84 187 c 128,-1,9
 57 255 57 255 57 350 c 0,10,11
 57 448 57 448 87 516.5 c 128,-1,12
 117 585 117 585 168 628.5 c 128,-1,13
 219 672 219 672 286 692 c 128,-1,14
 353 712 353 712 427 712 c 0,15,16
 463 712 463 712 492 709.5 c 128,-1,17
 521 707 521 707 544.5 702 c 128,-1,18
 568 697 568 697 588 690 c 128,-1,19
 608 683 608 683 627 675 c 1,20,-1
 627 504 l 1,21,-1
 563 504 l 1,22,-1
 563 609 l 1,23,-1
 549 629 l 1,24,25
 538 634 538 634 514.5 641 c 128,-1,26
 491 648 491 648 439 648 c 0,27,28
 389 648 389 648 344.5 633.5 c 128,-1,29
 300 619 300 619 266.5 588 c 128,-1,30
 233 557 233 557 211 508.5 c 128,-1,31
 189 460 189 460 184 392 c 1,32,-1
 520 392 l 1,33,-1
 520 328 l 1,34,-1
 182 328 l 1,35,36
 188 195 188 195 260.5 123.5 c 128,-1,37
 333 52 333 52 458 52 c 0,38,39
 494 52 494 52 518.5 57.5 c 128,-1,40
 543 63 543 63 555 72 c 1,41,-1
 569 91 l 1,42,-1
 569 184 l 1,0,-1
EndSplineSet
Position2: "'cpsp' Capital Spacing lookup 0 subtable" dx=40 dy=0 dh=80 dv=0
EndChar

StartChar: afii10056
Encoding: 1031 1031 321
Width: 398
Flags: W
LayerCount: 2
Fore
SplineSet
32 789 m 0,0,1
 32 814 32 814 50.5 826.5 c 128,-1,2
 69 839 69 839 97 839 c 0,3,4
 126 839 126 839 145 826.5 c 128,-1,5
 164 814 164 814 164 789 c 0,6,7
 164 766 164 766 145 754 c 128,-1,8
 126 742 126 742 97 742 c 0,9,10
 69 742 69 742 50.5 754 c 128,-1,11
 32 766 32 766 32 789 c 0,0,1
233 789 m 0,12,13
 233 814 233 814 252 826.5 c 128,-1,14
 271 839 271 839 298 839 c 0,15,16
 327 839 327 839 346 826.5 c 128,-1,17
 365 814 365 814 365 789 c 0,18,19
 365 766 365 766 346 754 c 128,-1,20
 327 742 327 742 298 742 c 0,21,22
 271 742 271 742 252 754 c 128,-1,23
 233 766 233 766 233 789 c 0,12,13
346 0 m 1,24,-1
 52 0 l 1,25,-1
 52 56 l 1,26,-1
 143 56 l 1,27,-1
 143 644 l 1,28,-1
 52 644 l 1,29,-1
 52 700 l 1,30,-1
 346 700 l 1,31,-1
 346 644 l 1,32,-1
 255 644 l 1,33,-1
 255 56 l 1,34,-1
 346 56 l 1,35,-1
 346 0 l 1,24,-1
EndSplineSet
Position2: "'cpsp' Capital Spacing lookup 0 subtable" dx=40 dy=0 dh=80 dv=0
EndChar

StartChar: afii10058
Encoding: 1033 1033 323
Width: 1033
Flags: W
LayerCount: 2
Fore
SplineSet
616 417 m 1,0,1
 636 420 636 420 665 422 c 128,-1,2
 694 424 694 424 717 424 c 0,3,4
 773 424 773 424 823.5 415 c 128,-1,5
 874 406 874 406 912 382.5 c 128,-1,6
 950 359 950 359 972.5 319 c 128,-1,7
 995 279 995 279 995 218 c 0,8,9
 995 159 995 159 971.5 117.5 c 128,-1,10
 948 76 948 76 907.5 49 c 128,-1,11
 867 22 867 22 813.5 9.5 c 128,-1,12
 760 -3 760 -3 699 -3 c 0,13,14
 694 -3 694 -3 682 -2.5 c 128,-1,15
 670 -2 670 -2 654 -1.5 c 128,-1,16
 638 -1 638 -1 619.5 -0.5 c 128,-1,17
 601 0 601 0 584 0 c 2,18,-1
 413 0 l 1,19,-1
 413 56 l 1,20,-1
 504 56 l 1,21,-1
 504 644 l 1,22,-1
 295 644 l 1,23,24
 290 503 290 503 279.5 408.5 c 128,-1,25
 269 314 269 314 255.5 249.5 c 128,-1,26
 242 185 242 185 225 143.5 c 128,-1,27
 208 102 208 102 190 68 c 0,28,29
 181 51 181 51 168 34 c 128,-1,30
 155 17 155 17 141 0 c 1,31,-1
 25 0 l 1,32,-1
 25 126 l 1,33,-1
 141 126 l 1,34,35
 156 151 156 151 171.5 192.5 c 128,-1,36
 187 234 187 234 199 296.5 c 128,-1,37
 211 359 211 359 218.5 445 c 128,-1,38
 226 531 226 531 226 644 c 1,39,-1
 122 644 l 1,40,-1
 122 700 l 1,41,-1
 716 700 l 1,42,-1
 716 644 l 1,43,-1
 616 644 l 1,44,-1
 616 417 l 1,0,1
692 368 m 0,45,46
 665 368 665 368 647.5 366.5 c 128,-1,47
 630 365 630 365 616 362 c 1,48,-1
 616 58 l 1,49,50
 622 56 622 56 632.5 55.5 c 128,-1,51
 643 55 643 55 655 54 c 128,-1,52
 667 53 667 53 678 53 c 128,-1,53
 689 53 689 53 695 53 c 0,54,55
 733 53 733 53 765 62 c 128,-1,56
 797 71 797 71 820.5 91 c 128,-1,57
 844 111 844 111 857 142.5 c 128,-1,58
 870 174 870 174 870 219 c 0,59,60
 870 300 870 300 825.5 334 c 128,-1,61
 781 368 781 368 692 368 c 0,45,46
EndSplineSet
Position2: "'cpsp' Capital Spacing lookup 0 subtable" dx=40 dy=0 dh=80 dv=0
EndChar

StartChar: afii10059
Encoding: 1034 1034 324
Width: 1115
Flags: W
LayerCount: 2
Fore
SplineSet
697 397 m 1,0,1
 717 400 717 400 746 402 c 128,-1,2
 775 404 775 404 798 404 c 0,3,4
 853 404 853 404 903.5 395 c 128,-1,5
 954 386 954 386 992.5 363.5 c 128,-1,6
 1031 341 1031 341 1054 302.5 c 128,-1,7
 1077 264 1077 264 1077 205 c 0,8,9
 1077 148 1077 148 1051.5 108 c 128,-1,10
 1026 68 1026 68 984 43.5 c 128,-1,11
 942 19 942 19 889 8 c 128,-1,12
 836 -3 836 -3 781 -3 c 0,13,14
 775 -3 775 -3 759 -2.5 c 128,-1,15
 743 -2 743 -2 722 -1.5 c 128,-1,16
 701 -1 701 -1 679 -0.5 c 128,-1,17
 657 0 657 0 640 0 c 2,18,-1
 502 0 l 1,19,-1
 502 56 l 1,20,-1
 585 56 l 1,21,-1
 585 331 l 1,22,-1
 235 331 l 1,23,-1
 235 56 l 1,24,-1
 318 56 l 1,25,-1
 318 0 l 1,26,-1
 32 0 l 1,27,-1
 32 56 l 1,28,-1
 123 56 l 1,29,-1
 123 644 l 1,30,-1
 32 644 l 1,31,-1
 32 700 l 1,32,-1
 318 700 l 1,33,-1
 318 644 l 1,34,-1
 235 644 l 1,35,-1
 235 387 l 1,36,-1
 585 387 l 1,37,-1
 585 644 l 1,38,-1
 502 644 l 1,39,-1
 502 700 l 1,40,-1
 798 700 l 1,41,-1
 798 644 l 1,42,-1
 697 644 l 1,43,-1
 697 397 l 1,0,1
772 348 m 0,44,45
 746 348 746 348 728.5 347 c 128,-1,46
 711 346 711 346 697 342 c 1,47,-1
 697 58 l 1,48,49
 702 56 702 56 712.5 55.5 c 128,-1,50
 723 55 723 55 735 54 c 128,-1,51
 747 53 747 53 758 53 c 128,-1,52
 769 53 769 53 775 53 c 0,53,54
 813 53 813 53 845.5 61.5 c 128,-1,55
 878 70 878 70 901.5 88 c 128,-1,56
 925 106 925 106 938.5 135 c 128,-1,57
 952 164 952 164 952 206 c 0,58,59
 952 275 952 275 907.5 311.5 c 128,-1,60
 863 348 863 348 772 348 c 0,44,45
EndSplineSet
Position2: "'cpsp' Capital Spacing lookup 0 subtable" dx=40 dy=0 dh=80 dv=0
EndChar

StartChar: afii10060
Encoding: 1035 1035 325
Width: 886
Flags: W
LayerCount: 2
Fore
SplineSet
473 0 m 1,0,-1
 178 0 l 1,1,-1
 178 56 l 1,2,-1
 283 56 l 1,3,-1
 283 644 l 1,4,-1
 104 644 l 1,5,-1
 84 622 l 1,6,-1
 84 493 l 1,7,-1
 12 493 l 1,8,-1
 12 700 l 1,9,-1
 666 700 l 1,10,-1
 666 493 l 1,11,-1
 594 493 l 1,12,-1
 594 622 l 1,13,-1
 574 644 l 1,14,-1
 395 644 l 1,15,-1
 395 388 l 1,16,17
 426 404 426 404 471 418.5 c 128,-1,18
 516 433 516 433 579 433 c 0,19,20
 626 433 626 433 664 425 c 128,-1,21
 702 417 702 417 728.5 396 c 128,-1,22
 755 375 755 375 769 339 c 128,-1,23
 783 303 783 303 783 247 c 2,24,-1
 783 56 l 1,25,-1
 874 56 l 1,26,-1
 874 0 l 1,27,-1
 671 0 l 1,28,-1
 671 224 l 2,29,30
 671 259 671 259 665.5 287 c 128,-1,31
 660 315 660 315 645.5 335 c 128,-1,32
 631 355 631 355 607 366 c 128,-1,33
 583 377 583 377 547 377 c 0,34,35
 499 377 499 377 462.5 365 c 128,-1,36
 426 353 426 353 395 336 c 1,37,-1
 395 56 l 1,38,-1
 473 56 l 1,39,-1
 473 0 l 1,0,-1
EndSplineSet
Position2: "'cpsp' Capital Spacing lookup 0 subtable" dx=40 dy=0 dh=80 dv=0
EndChar

StartChar: afii10145
Encoding: 1039 1039 328
Width: 808
Flags: W
LayerCount: 2
Fore
SplineSet
573 56 m 1,0,-1
 573 644 l 1,1,-1
 490 644 l 1,2,-1
 490 700 l 1,3,-1
 776 700 l 1,4,-1
 776 644 l 1,5,-1
 685 644 l 1,6,-1
 685 56 l 1,7,-1
 776 56 l 1,8,-1
 776 0 l 1,9,-1
 444 0 l 1,10,-1
 444 -200 l 1,11,-1
 364 -200 l 1,12,-1
 364 0 l 1,13,-1
 32 0 l 1,14,-1
 32 56 l 1,15,-1
 123 56 l 1,16,-1
 123 644 l 1,17,-1
 32 644 l 1,18,-1
 32 700 l 1,19,-1
 318 700 l 1,20,-1
 318 644 l 1,21,-1
 235 644 l 1,22,-1
 235 56 l 1,23,-1
 573 56 l 1,0,-1
EndSplineSet
Position2: "'cpsp' Capital Spacing lookup 0 subtable" dx=40 dy=0 dh=80 dv=0
EndChar

StartChar: afii10018
Encoding: 1041 1041 330
Width: 665
Flags: W
LayerCount: 2
Fore
SplineSet
235 407 m 1,0,1
 255 409 255 409 284.5 411.5 c 128,-1,2
 314 414 314 414 337 414 c 0,3,4
 392 414 392 414 442.5 403.5 c 128,-1,5
 493 393 493 393 532 369 c 128,-1,6
 571 345 571 345 594 305.5 c 128,-1,7
 617 266 617 266 617 208 c 0,8,9
 617 153 617 153 593 113.5 c 128,-1,10
 569 74 569 74 528 48 c 128,-1,11
 487 22 487 22 433.5 9.5 c 128,-1,12
 380 -3 380 -3 320 -3 c 0,13,14
 314 -3 314 -3 297 -2.5 c 128,-1,15
 280 -2 280 -2 258.5 -1.5 c 128,-1,16
 237 -1 237 -1 214 -0.5 c 128,-1,17
 191 0 191 0 174 0 c 2,18,-1
 32 0 l 1,19,-1
 32 56 l 1,20,-1
 123 56 l 1,21,-1
 123 644 l 1,22,-1
 32 644 l 1,23,-1
 32 700 l 1,24,-1
 569 700 l 1,25,-1
 569 517 l 1,26,-1
 497 517 l 1,27,-1
 497 622 l 1,28,-1
 477 644 l 1,29,-1
 235 644 l 1,30,-1
 235 407 l 1,0,1
311 358 m 0,31,32
 285 358 285 358 267 357 c 128,-1,33
 249 356 249 356 235 352 c 1,34,-1
 235 58 l 1,35,36
 240 56 240 56 251 55.5 c 128,-1,37
 262 55 262 55 274 54 c 128,-1,38
 286 53 286 53 297 53 c 128,-1,39
 308 53 308 53 314 53 c 0,40,41
 353 53 353 53 385.5 62 c 128,-1,42
 418 71 418 71 441.5 90.5 c 128,-1,43
 465 110 465 110 478.5 139 c 128,-1,44
 492 168 492 168 492 209 c 0,45,46
 492 282 492 282 447 320 c 128,-1,47
 402 358 402 358 311 358 c 0,31,32
EndSplineSet
Position2: "'cpsp' Capital Spacing lookup 0 subtable" dx=40 dy=0 dh=80 dv=0
EndChar

StartChar: afii10020
Encoding: 1043 1043 332
Width: 557
Flags: W
LayerCount: 2
Fore
SplineSet
32 644 m 1,0,-1
 32 700 l 1,1,-1
 545 700 l 1,2,-1
 545 493 l 1,3,-1
 473 493 l 1,4,-1
 473 622 l 1,5,-1
 453 644 l 1,6,-1
 235 644 l 1,7,-1
 235 56 l 1,8,-1
 343 56 l 1,9,-1
 343 0 l 1,10,-1
 32 0 l 1,11,-1
 32 56 l 1,12,-1
 123 56 l 1,13,-1
 123 644 l 1,14,-1
 32 644 l 1,0,-1
EndSplineSet
Position2: "'cpsp' Capital Spacing lookup 0 subtable" dx=40 dy=0 dh=80 dv=0
EndChar

StartChar: afii10021
Encoding: 1044 1044 333
Width: 769
Flags: W
LayerCount: 2
Fore
SplineSet
729 644 m 1,0,-1
 638 644 l 1,1,-1
 638 56 l 1,2,-1
 742 56 l 1,3,-1
 742 -162 l 1,4,-1
 667 -162 l 1,5,-1
 667 -22 l 1,6,-1
 647 0 l 1,7,-1
 105 0 l 1,8,-1
 85 -22 l 1,9,-1
 85 -162 l 1,10,-1
 10 -162 l 1,11,-1
 10 56 l 1,12,-1
 108 56 l 1,13,14
 136 98 136 98 161 164 c 128,-1,15
 186 230 186 230 204.5 308.5 c 128,-1,16
 223 387 223 387 234 473.5 c 128,-1,17
 245 560 245 560 245 644 c 1,18,-1
 137 644 l 1,19,-1
 137 700 l 1,20,-1
 729 700 l 1,21,-1
 729 644 l 1,0,-1
526 56 m 1,22,-1
 526 644 l 1,23,-1
 314 644 l 1,24,25
 308 521 308 521 293.5 425.5 c 128,-1,26
 279 330 279 330 260.5 258 c 128,-1,27
 242 186 242 186 221.5 136.5 c 128,-1,28
 201 87 201 87 185 56 c 1,29,-1
 526 56 l 1,22,-1
EndSplineSet
Position2: "'cpsp' Capital Spacing lookup 0 subtable" dx=40 dy=0 dh=80 dv=0
EndChar

StartChar: afii10024
Encoding: 1046 1046 335
Width: 1053
Flags: W
LayerCount: 2
Fore
SplineSet
403 332 m 1,0,-1
 153 0 l 1,1,-1
 0 0 l 1,2,-1
 0 56 l 1,3,-1
 60 56 l 1,4,5
 134 143 134 143 193 212 c 0,6,7
 218 241 218 241 241.5 269 c 128,-1,8
 265 297 265 297 284 319 c 128,-1,9
 303 341 303 341 314.5 354.5 c 128,-1,10
 326 368 326 368 326 368 c 1,11,-1
 103 644 l 1,12,-1
 25 644 l 1,13,-1
 25 700 l 1,14,-1
 274 700 l 1,15,-1
 274 644 l 1,16,-1
 199 644 l 1,17,-1
 394 382 l 1,18,-1
 469 382 l 1,19,-1
 469 644 l 1,20,-1
 392 644 l 1,21,-1
 392 700 l 1,22,-1
 654 700 l 1,23,-1
 654 644 l 1,24,-1
 577 644 l 1,25,-1
 577 382 l 1,26,-1
 656 382 l 1,27,-1
 852 644 l 1,28,-1
 772 644 l 1,29,-1
 772 700 l 1,30,-1
 1021 700 l 1,31,-1
 1021 644 l 1,32,-1
 936 644 l 1,33,-1
 721 376 l 1,34,-1
 993 56 l 1,35,-1
 1053 56 l 1,36,-1
 1053 0 l 1,37,-1
 900 0 l 1,38,-1
 645 332 l 1,39,-1
 577 332 l 1,40,-1
 577 56 l 1,41,-1
 654 56 l 1,42,-1
 654 0 l 1,43,-1
 392 0 l 1,44,-1
 392 56 l 1,45,-1
 469 56 l 1,46,-1
 469 332 l 1,47,-1
 403 332 l 1,0,-1
EndSplineSet
Position2: "'cpsp' Capital Spacing lookup 0 subtable" dx=40 dy=0 dh=80 dv=0
EndChar

StartChar: afii10025
Encoding: 1047 1047 336
Width: 611
Flags: W
LayerCount: 2
Fore
SplineSet
261 -12 m 0,0,1
 199 -12 199 -12 146 -1 c 128,-1,2
 93 10 93 10 55 27 c 1,3,-1
 55 194 l 1,4,-1
 119 194 l 1,5,-1
 119 82 l 1,6,-1
 134 63 l 1,7,8
 143 58 143 58 158.5 54.5 c 128,-1,9
 174 51 174 51 191.5 48.5 c 128,-1,10
 209 46 209 46 227 45 c 128,-1,11
 245 44 245 44 259 44 c 0,12,13
 300 44 300 44 333.5 55 c 128,-1,14
 367 66 367 66 390.5 86 c 128,-1,15
 414 106 414 106 427 133.5 c 128,-1,16
 440 161 440 161 440 194 c 0,17,18
 440 233 440 233 426.5 259 c 128,-1,19
 413 285 413 285 390.5 300.5 c 128,-1,20
 368 316 368 316 338 322 c 128,-1,21
 308 328 308 328 275 328 c 2,22,-1
 188 328 l 1,23,-1
 188 392 l 1,24,-1
 315 392 l 1,25,26
 366 408 366 408 393 441 c 128,-1,27
 420 474 420 474 420 522 c 0,28,29
 420 587 420 587 379.5 621.5 c 128,-1,30
 339 656 339 656 265 656 c 0,31,32
 232 656 232 656 200.5 650 c 128,-1,33
 169 644 169 644 156 636 c 1,34,-1
 143 617 l 1,35,-1
 143 518 l 1,36,-1
 79 518 l 1,37,-1
 79 671 l 1,38,39
 97 683 97 683 120 690.5 c 128,-1,40
 143 698 143 698 168.5 703 c 128,-1,41
 194 708 194 708 220 710 c 128,-1,42
 246 712 246 712 270 712 c 0,43,44
 316 712 316 712 362.5 705 c 128,-1,45
 409 698 409 698 446.5 678.5 c 128,-1,46
 484 659 484 659 508 625.5 c 128,-1,47
 532 592 532 592 532 540 c 0,48,49
 532 489 532 489 498.5 444 c 128,-1,50
 465 399 465 399 393 375 c 1,51,-1
 393 371 l 1,52,53
 427 366 427 366 456.5 353.5 c 128,-1,54
 486 341 486 341 508 320.5 c 128,-1,55
 530 300 530 300 542.5 270 c 128,-1,56
 555 240 555 240 555 199 c 0,57,58
 555 145 555 145 531 105 c 128,-1,59
 507 65 507 65 466.5 39 c 128,-1,60
 426 13 426 13 373 0.5 c 128,-1,61
 320 -12 320 -12 261 -12 c 0,0,1
EndSplineSet
Position2: "'cpsp' Capital Spacing lookup 0 subtable" dx=40 dy=0 dh=80 dv=0
EndChar

StartChar: afii10026
Encoding: 1048 1048 337
Width: 833
Flags: W
LayerCount: 2
Fore
SplineSet
318 0 m 1,0,-1
 32 0 l 1,1,-1
 32 56 l 1,2,-1
 123 56 l 1,3,-1
 123 644 l 1,4,-1
 32 644 l 1,5,-1
 32 700 l 1,6,-1
 318 700 l 1,7,-1
 318 644 l 1,8,-1
 235 644 l 1,9,-1
 235 215 l 1,10,-1
 223 140 l 1,11,-1
 277 219 l 1,12,-1
 604 622 l 1,13,-1
 604 644 l 1,14,-1
 513 644 l 1,15,-1
 513 700 l 1,16,-1
 801 700 l 1,17,-1
 801 644 l 1,18,-1
 710 644 l 1,19,-1
 710 56 l 1,20,-1
 801 56 l 1,21,-1
 801 0 l 1,22,-1
 513 0 l 1,23,-1
 513 56 l 1,24,-1
 598 56 l 1,25,-1
 598 484 l 1,26,-1
 609 559 l 1,27,-1
 560 484 l 1,28,-1
 228 76 l 1,29,-1
 228 56 l 1,30,-1
 318 56 l 1,31,-1
 318 0 l 1,0,-1
EndSplineSet
Position2: "'cpsp' Capital Spacing lookup 0 subtable" dx=40 dy=0 dh=80 dv=0
EndChar

StartChar: afii10029
Encoding: 1051 1051 340
Width: 739
Flags: W
LayerCount: 2
Fore
SplineSet
295 644 m 1,0,1
 290 503 290 503 279.5 408.5 c 128,-1,2
 269 314 269 314 255.5 249.5 c 128,-1,3
 242 185 242 185 225 143.5 c 128,-1,4
 208 102 208 102 190 68 c 0,5,6
 181 51 181 51 168 34 c 128,-1,7
 155 17 155 17 141 0 c 1,8,-1
 25 0 l 1,9,-1
 25 126 l 1,10,-1
 141 126 l 1,11,12
 156 151 156 151 171.5 192.5 c 128,-1,13
 187 234 187 234 199 296.5 c 128,-1,14
 211 359 211 359 218.5 445 c 128,-1,15
 226 531 226 531 226 644 c 1,16,-1
 122 644 l 1,17,-1
 122 700 l 1,18,-1
 707 700 l 1,19,-1
 707 644 l 1,20,-1
 616 644 l 1,21,-1
 616 56 l 1,22,-1
 707 56 l 1,23,-1
 707 0 l 1,24,-1
 418 0 l 1,25,-1
 418 56 l 1,26,-1
 504 56 l 1,27,-1
 504 644 l 1,28,-1
 295 644 l 1,0,1
EndSplineSet
Position2: "'cpsp' Capital Spacing lookup 0 subtable" dx=40 dy=0 dh=80 dv=0
EndChar

StartChar: afii10033
Encoding: 1055 1055 344
Width: 808
Flags: W
LayerCount: 2
Fore
SplineSet
235 644 m 1,0,-1
 235 56 l 1,1,-1
 318 56 l 1,2,-1
 318 0 l 1,3,-1
 32 0 l 1,4,-1
 32 56 l 1,5,-1
 123 56 l 1,6,-1
 123 644 l 1,7,-1
 32 644 l 1,8,-1
 32 700 l 1,9,-1
 776 700 l 1,10,-1
 776 644 l 1,11,-1
 685 644 l 1,12,-1
 685 56 l 1,13,-1
 776 56 l 1,14,-1
 776 0 l 1,15,-1
 490 0 l 1,16,-1
 490 56 l 1,17,-1
 573 56 l 1,18,-1
 573 644 l 1,19,-1
 235 644 l 1,0,-1
EndSplineSet
Position2: "'cpsp' Capital Spacing lookup 0 subtable" dx=40 dy=0 dh=80 dv=0
EndChar

StartChar: afii10037
Encoding: 1059 1059 348
Width: 742
Flags: W
LayerCount: 2
Fore
SplineSet
584 644 m 1,0,-1
 491 644 l 1,1,-1
 491 700 l 1,2,-1
 742 700 l 1,3,-1
 742 644 l 1,4,-1
 661 644 l 1,5,-1
 446 201 l 2,6,7
 415 138 415 138 385.5 86.5 c 128,-1,8
 356 35 356 35 326 0 c 1,9,-1
 231 0 l 1,10,-1
 231 123 l 1,11,-1
 342 123 l 1,12,13
 358 147 358 147 365 169 c 1,14,-1
 85 644 l 1,15,-1
 0 644 l 1,16,-1
 0 700 l 1,17,-1
 300 700 l 1,18,-1
 300 644 l 1,19,-1
 210 644 l 1,20,-1
 393 318 l 1,21,-1
 416 254 l 1,22,-1
 418 254 l 1,23,-1
 441 320 l 1,24,-1
 584 644 l 1,0,-1
EndSplineSet
Position2: "'cpsp' Capital Spacing lookup 0 subtable" dx=40 dy=0 dh=80 dv=0
EndChar

StartChar: afii10038
Encoding: 1060 1060 349
Width: 885
Flags: W
LayerCount: 2
Fore
SplineSet
317 603 m 0,0,1
 332 603 332 603 354.5 602 c 128,-1,2
 377 601 377 601 391 599 c 1,3,-1
 391 644 l 1,4,-1
 313 644 l 1,5,-1
 313 700 l 1,6,-1
 572 700 l 1,7,-1
 572 644 l 1,8,-1
 494 644 l 1,9,-1
 494 596 l 1,10,11
 514 600 514 600 542.5 601.5 c 128,-1,12
 571 603 571 603 590 603 c 0,13,14
 644 603 644 603 691 588 c 128,-1,15
 738 573 738 573 772.5 543.5 c 128,-1,16
 807 514 807 514 827 470.5 c 128,-1,17
 847 427 847 427 847 370 c 0,18,19
 847 306 847 306 822.5 257 c 128,-1,20
 798 208 798 208 758.5 175 c 128,-1,21
 719 142 719 142 669.5 125 c 128,-1,22
 620 108 620 108 570 108 c 0,23,24
 564 108 564 108 554 108.5 c 128,-1,25
 544 109 544 109 533 109.5 c 128,-1,26
 522 110 522 110 511.5 111.5 c 128,-1,27
 501 113 501 113 494 115 c 1,28,-1
 494 56 l 1,29,-1
 572 56 l 1,30,-1
 572 0 l 1,31,-1
 313 0 l 1,32,-1
 313 56 l 1,33,-1
 391 56 l 1,34,-1
 391 113 l 1,35,36
 369 110 369 110 343 109 c 128,-1,37
 317 108 317 108 295 108 c 0,38,39
 250 108 250 108 204 123 c 128,-1,40
 158 138 158 138 121 169 c 128,-1,41
 84 200 84 200 61 247.5 c 128,-1,42
 38 295 38 295 38 360 c 0,43,44
 38 420 38 420 61 465.5 c 128,-1,45
 84 511 84 511 122.5 541.5 c 128,-1,46
 161 572 161 572 211.5 587.5 c 128,-1,47
 262 603 262 603 317 603 c 0,0,1
553 549 m 0,48,49
 536 549 536 549 522 548 c 128,-1,50
 508 547 508 547 493 543 c 1,51,-1
 493 165 l 1,52,53
 504 163 504 163 520 162.5 c 128,-1,54
 536 162 536 162 546 162 c 0,55,56
 582 162 582 162 615 174.5 c 128,-1,57
 648 187 648 187 672.5 212.5 c 128,-1,58
 697 238 697 238 712 277 c 128,-1,59
 727 316 727 316 727 370 c 0,60,61
 727 461 727 461 682.5 505 c 128,-1,62
 638 549 638 549 553 549 c 0,48,49
338 162 m 0,63,64
 352 162 352 162 364 163 c 128,-1,65
 376 164 376 164 392 167 c 1,66,-1
 392 546 l 1,67,68
 363 549 363 549 338 549 c 0,69,70
 303 549 303 549 271 539.5 c 128,-1,71
 239 530 239 530 213.5 508 c 128,-1,72
 188 486 188 486 173 449.5 c 128,-1,73
 158 413 158 413 158 360 c 0,74,75
 158 313 158 313 171 276.5 c 128,-1,76
 184 240 184 240 208 214.5 c 128,-1,77
 232 189 232 189 265 175.5 c 128,-1,78
 298 162 298 162 338 162 c 0,63,64
EndSplineSet
Position2: "'cpsp' Capital Spacing lookup 0 subtable" dx=40 dy=0 dh=80 dv=0
EndChar

StartChar: afii10040
Encoding: 1062 1062 351
Width: 809
Flags: W
LayerCount: 2
Fore
SplineSet
569 56 m 1,0,-1
 569 644 l 1,1,-1
 486 644 l 1,2,-1
 486 700 l 1,3,-1
 772 700 l 1,4,-1
 772 644 l 1,5,-1
 681 644 l 1,6,-1
 681 56 l 1,7,-1
 792 56 l 1,8,-1
 792 -162 l 1,9,-1
 723 -162 l 1,10,-1
 723 -22 l 1,11,-1
 703 0 l 1,12,-1
 32 0 l 1,13,-1
 32 56 l 1,14,-1
 123 56 l 1,15,-1
 123 644 l 1,16,-1
 32 644 l 1,17,-1
 32 700 l 1,18,-1
 318 700 l 1,19,-1
 318 644 l 1,20,-1
 235 644 l 1,21,-1
 235 56 l 1,22,-1
 569 56 l 1,0,-1
EndSplineSet
Position2: "'cpsp' Capital Spacing lookup 0 subtable" dx=40 dy=0 dh=80 dv=0
EndChar

StartChar: afii10041
Encoding: 1063 1063 352
Width: 748
Flags: W
LayerCount: 2
Fore
SplineSet
625 56 m 1,0,-1
 716 56 l 1,1,-1
 716 0 l 1,2,-1
 409 0 l 1,3,-1
 409 56 l 1,4,-1
 513 56 l 1,5,-1
 513 310 l 1,6,7
 482 294 482 294 432 279.5 c 128,-1,8
 382 265 382 265 317 265 c 0,9,10
 270 265 270 265 231 273 c 128,-1,11
 192 281 192 281 163.5 302 c 128,-1,12
 135 323 135 323 119 359 c 128,-1,13
 103 395 103 395 103 451 c 2,14,-1
 103 644 l 1,15,-1
 12 644 l 1,16,-1
 12 700 l 1,17,-1
 288 700 l 1,18,-1
 288 644 l 1,19,-1
 215 644 l 1,20,-1
 215 474 l 2,21,22
 215 404 215 404 246 362.5 c 128,-1,23
 277 321 277 321 351 321 c 0,24,25
 398 321 398 321 440 333 c 128,-1,26
 482 345 482 345 513 362 c 1,27,-1
 513 644 l 1,28,-1
 430 644 l 1,29,-1
 430 700 l 1,30,-1
 716 700 l 1,31,-1
 716 644 l 1,32,-1
 625 644 l 1,33,-1
 625 56 l 1,0,-1
EndSplineSet
Position2: "'cpsp' Capital Spacing lookup 0 subtable" dx=40 dy=0 dh=80 dv=0
EndChar

StartChar: afii10042
Encoding: 1064 1064 353
Width: 1074
Flags: W
LayerCount: 2
Fore
SplineSet
32 644 m 1,0,-1
 32 700 l 1,1,-1
 307 700 l 1,2,-1
 307 644 l 1,3,-1
 235 644 l 1,4,-1
 235 56 l 1,5,-1
 481 56 l 1,6,-1
 481 644 l 1,7,-1
 409 644 l 1,8,-1
 409 700 l 1,9,-1
 665 700 l 1,10,-1
 665 644 l 1,11,-1
 593 644 l 1,12,-1
 593 56 l 1,13,-1
 839 56 l 1,14,-1
 839 644 l 1,15,-1
 767 644 l 1,16,-1
 767 700 l 1,17,-1
 1042 700 l 1,18,-1
 1042 644 l 1,19,-1
 951 644 l 1,20,-1
 951 56 l 1,21,-1
 1042 56 l 1,22,-1
 1042 0 l 1,23,-1
 32 0 l 1,24,-1
 32 56 l 1,25,-1
 123 56 l 1,26,-1
 123 644 l 1,27,-1
 32 644 l 1,0,-1
EndSplineSet
Position2: "'cpsp' Capital Spacing lookup 0 subtable" dx=40 dy=0 dh=80 dv=0
EndChar

StartChar: afii10044
Encoding: 1066 1066 355
Width: 803
Flags: W
LayerCount: 2
Fore
SplineSet
371 417 m 1,0,1
 391 420 391 420 420 422 c 128,-1,2
 449 424 449 424 472 424 c 0,3,4
 528 424 528 424 581 415 c 128,-1,5
 634 406 634 406 675 382.5 c 128,-1,6
 716 359 716 359 740.5 319 c 128,-1,7
 765 279 765 279 765 218 c 0,8,9
 765 159 765 159 739 117.5 c 128,-1,10
 713 76 713 76 670 49 c 128,-1,11
 627 22 627 22 571 9.5 c 128,-1,12
 515 -3 515 -3 454 -3 c 0,13,14
 449 -3 449 -3 432.5 -2.5 c 128,-1,15
 416 -2 416 -2 395 -1.5 c 128,-1,16
 374 -1 374 -1 351.5 -0.5 c 128,-1,17
 329 0 329 0 312 0 c 2,18,-1
 168 0 l 1,19,-1
 168 56 l 1,20,-1
 259 56 l 1,21,-1
 259 644 l 1,22,-1
 104 644 l 1,23,-1
 84 622 l 1,24,-1
 84 493 l 1,25,-1
 20 493 l 1,26,-1
 20 700 l 1,27,-1
 471 700 l 1,28,-1
 471 644 l 1,29,-1
 371 644 l 1,30,-1
 371 417 l 1,0,1
447 368 m 0,31,32
 420 368 420 368 402.5 366.5 c 128,-1,33
 385 365 385 365 371 362 c 1,34,-1
 371 58 l 1,35,36
 377 56 377 56 387.5 55.5 c 128,-1,37
 398 55 398 55 410 54 c 128,-1,38
 422 53 422 53 433 53 c 128,-1,39
 444 53 444 53 450 53 c 0,40,41
 488 53 488 53 522.5 62 c 128,-1,42
 557 71 557 71 583 91 c 128,-1,43
 609 111 609 111 624.5 142.5 c 128,-1,44
 640 174 640 174 640 219 c 0,45,46
 640 259 640 259 626.5 287.5 c 128,-1,47
 613 316 613 316 588 334 c 128,-1,48
 563 352 563 352 527 360 c 128,-1,49
 491 368 491 368 447 368 c 0,31,32
EndSplineSet
Position2: "'cpsp' Capital Spacing lookup 0 subtable" dx=40 dy=0 dh=80 dv=0
EndChar

StartChar: afii10045
Encoding: 1067 1067 356
Width: 953
Flags: W
LayerCount: 2
Fore
SplineSet
32 644 m 1,0,-1
 32 700 l 1,1,-1
 334 700 l 1,2,-1
 334 644 l 1,3,-1
 235 644 l 1,4,-1
 235 417 l 1,5,6
 257 420 257 420 285 422 c 128,-1,7
 313 424 313 424 336 424 c 0,8,9
 391 424 391 424 441.5 415 c 128,-1,10
 492 406 492 406 530.5 383 c 128,-1,11
 569 360 569 360 592 320 c 128,-1,12
 615 280 615 280 615 218 c 0,13,14
 615 159 615 159 589.5 117.5 c 128,-1,15
 564 76 564 76 522 49 c 128,-1,16
 480 22 480 22 426.5 9.5 c 128,-1,17
 373 -3 373 -3 318 -3 c 0,18,19
 313 -3 313 -3 297 -2.5 c 128,-1,20
 281 -2 281 -2 260 -1.5 c 128,-1,21
 239 -1 239 -1 217 -0.5 c 128,-1,22
 195 0 195 0 178 0 c 2,23,-1
 32 0 l 1,24,-1
 32 56 l 1,25,-1
 123 56 l 1,26,-1
 123 644 l 1,27,-1
 32 644 l 1,0,-1
631 644 m 1,28,-1
 631 700 l 1,29,-1
 921 700 l 1,30,-1
 921 644 l 1,31,-1
 830 644 l 1,32,-1
 830 56 l 1,33,-1
 921 56 l 1,34,-1
 921 0 l 1,35,-1
 631 0 l 1,36,-1
 631 56 l 1,37,-1
 718 56 l 1,38,-1
 718 644 l 1,39,-1
 631 644 l 1,28,-1
310 368 m 0,40,41
 284 368 284 368 266.5 366.5 c 128,-1,42
 249 365 249 365 235 362 c 1,43,-1
 235 58 l 1,44,45
 240 56 240 56 250.5 55.5 c 128,-1,46
 261 55 261 55 273 54 c 128,-1,47
 285 53 285 53 296 53 c 128,-1,48
 307 53 307 53 313 53 c 0,49,50
 352 53 352 53 384.5 63 c 128,-1,51
 417 73 417 73 440.5 93.5 c 128,-1,52
 464 114 464 114 477 145.5 c 128,-1,53
 490 177 490 177 490 219 c 0,54,55
 490 368 490 368 310 368 c 0,40,41
EndSplineSet
Position2: "'cpsp' Capital Spacing lookup 0 subtable" dx=40 dy=0 dh=80 dv=0
EndChar

StartChar: afii10046
Encoding: 1068 1068 357
Width: 667
Flags: W
LayerCount: 2
Fore
SplineSet
235 417 m 1,0,1
 255 420 255 420 284 422 c 128,-1,2
 313 424 313 424 336 424 c 0,3,4
 392 424 392 424 445 415 c 128,-1,5
 498 406 498 406 539 382.5 c 128,-1,6
 580 359 580 359 604.5 319 c 128,-1,7
 629 279 629 279 629 218 c 0,8,9
 629 159 629 159 603 117.5 c 128,-1,10
 577 76 577 76 534 49 c 128,-1,11
 491 22 491 22 435 9.5 c 128,-1,12
 379 -3 379 -3 318 -3 c 0,13,14
 313 -3 313 -3 296.5 -2.5 c 128,-1,15
 280 -2 280 -2 259 -1.5 c 128,-1,16
 238 -1 238 -1 215.5 -0.5 c 128,-1,17
 193 0 193 0 176 0 c 2,18,-1
 32 0 l 1,19,-1
 32 56 l 1,20,-1
 123 56 l 1,21,-1
 123 644 l 1,22,-1
 32 644 l 1,23,-1
 32 700 l 1,24,-1
 335 700 l 1,25,-1
 335 644 l 1,26,-1
 235 644 l 1,27,-1
 235 417 l 1,0,1
311 368 m 0,28,29
 284 368 284 368 266.5 366.5 c 128,-1,30
 249 365 249 365 235 362 c 1,31,-1
 235 58 l 1,32,33
 241 56 241 56 251.5 55.5 c 128,-1,34
 262 55 262 55 274 54 c 128,-1,35
 286 53 286 53 297 53 c 128,-1,36
 308 53 308 53 314 53 c 0,37,38
 352 53 352 53 386.5 62 c 128,-1,39
 421 71 421 71 447 91 c 128,-1,40
 473 111 473 111 488.5 142.5 c 128,-1,41
 504 174 504 174 504 219 c 0,42,43
 504 259 504 259 490.5 287.5 c 128,-1,44
 477 316 477 316 452 334 c 128,-1,45
 427 352 427 352 391 360 c 128,-1,46
 355 368 355 368 311 368 c 0,28,29
EndSplineSet
Position2: "'cpsp' Capital Spacing lookup 0 subtable" dx=40 dy=0 dh=80 dv=0
EndChar

StartChar: afii10047
Encoding: 1069 1069 358
Width: 686
Flags: W
LayerCount: 2
Fore
SplineSet
202 328 m 1,0,-1
 202 392 l 1,1,-1
 507 392 l 1,2,3
 489 648 489 648 243 648 c 0,4,5
 210 648 210 648 186 642 c 128,-1,6
 162 636 162 636 151 629 c 1,7,-1
 137 609 l 1,8,-1
 137 517 l 1,9,-1
 73 517 l 1,10,-1
 73 671 l 1,11,12
 109 694 109 694 158.5 703 c 128,-1,13
 208 712 208 712 256 712 c 0,14,15
 344 712 344 712 413 691.5 c 128,-1,16
 482 671 482 671 530 627.5 c 128,-1,17
 578 584 578 584 603.5 517 c 128,-1,18
 629 450 629 450 629 358 c 0,19,20
 629 263 629 263 599.5 193.5 c 128,-1,21
 570 124 570 124 520.5 78 c 128,-1,22
 471 32 471 32 405 10 c 128,-1,23
 339 -12 339 -12 267 -12 c 0,24,25
 231 -12 231 -12 201.5 -10 c 128,-1,26
 172 -8 172 -8 148 -3.5 c 128,-1,27
 124 1 124 1 104 7.5 c 128,-1,28
 84 14 84 14 65 23 c 1,29,-1
 65 196 l 1,30,-1
 129 196 l 1,31,-1
 129 91 l 1,32,-1
 144 70 l 1,33,34
 158 63 158 63 186.5 57.5 c 128,-1,35
 215 52 215 52 242 52 c 0,36,37
 292 52 292 52 339.5 67 c 128,-1,38
 387 82 387 82 424 115 c 128,-1,39
 461 148 461 148 483.5 200.5 c 128,-1,40
 506 253 506 253 507 328 c 1,41,-1
 202 328 l 1,0,-1
EndSplineSet
Position2: "'cpsp' Capital Spacing lookup 0 subtable" dx=40 dy=0 dh=80 dv=0
EndChar

StartChar: afii10048
Encoding: 1070 1070 359
Width: 1088
Flags: W
LayerCount: 2
Fore
SplineSet
32 644 m 1,0,-1
 32 700 l 1,1,-1
 320 700 l 1,2,-1
 320 644 l 1,3,-1
 235 644 l 1,4,-1
 235 387 l 1,5,-1
 367 387 l 1,6,7
 371 456 371 456 394 515.5 c 128,-1,8
 417 575 417 575 458.5 618.5 c 128,-1,9
 500 662 500 662 559.5 687 c 128,-1,10
 619 712 619 712 696 712 c 0,11,12
 780 712 780 712 843 685 c 128,-1,13
 906 658 906 658 947.5 609.5 c 128,-1,14
 989 561 989 561 1010 494.5 c 128,-1,15
 1031 428 1031 428 1031 350 c 0,16,17
 1031 273 1031 273 1010 206.5 c 128,-1,18
 989 140 989 140 947 91.5 c 128,-1,19
 905 43 905 43 842 15.5 c 128,-1,20
 779 -12 779 -12 696 -12 c 256,21,22
 613 -12 613 -12 552 13.5 c 128,-1,23
 491 39 491 39 450.5 84.5 c 128,-1,24
 410 130 410 130 389 193 c 128,-1,25
 368 256 368 256 366 331 c 1,26,-1
 235 331 l 1,27,-1
 235 56 l 1,28,-1
 320 56 l 1,29,-1
 320 0 l 1,30,-1
 32 0 l 1,31,-1
 32 56 l 1,32,-1
 123 56 l 1,33,-1
 123 644 l 1,34,-1
 32 644 l 1,0,-1
487 350 m 0,35,36
 487 285 487 285 498.5 229 c 128,-1,37
 510 173 510 173 536 132 c 128,-1,38
 562 91 562 91 604 67.5 c 128,-1,39
 646 44 646 44 706 44 c 0,40,41
 762 44 762 44 800.5 68 c 128,-1,42
 839 92 839 92 862.5 133 c 128,-1,43
 886 174 886 174 896 230 c 128,-1,44
 906 286 906 286 906 350 c 256,45,46
 906 414 906 414 895 470 c 128,-1,47
 884 526 884 526 858.5 567 c 128,-1,48
 833 608 833 608 791 632 c 128,-1,49
 749 656 749 656 686 656 c 0,50,51
 626 656 626 656 587.5 632 c 128,-1,52
 549 608 549 608 526.5 567 c 128,-1,53
 504 526 504 526 495.5 470 c 128,-1,54
 487 414 487 414 487 350 c 0,35,36
EndSplineSet
Position2: "'cpsp' Capital Spacing lookup 0 subtable" dx=40 dy=0 dh=80 dv=0
EndChar

StartChar: afii10049
Encoding: 1071 1071 360
Width: 710
Flags: W
LayerCount: 2
Fore
SplineSet
678 700 m 1,0,-1
 678 644 l 1,1,-1
 587 644 l 1,2,-1
 587 56 l 1,3,-1
 678 56 l 1,4,-1
 678 0 l 1,5,-1
 378 0 l 1,6,-1
 378 56 l 1,7,-1
 475 56 l 1,8,-1
 475 292 l 1,9,-1
 363 292 l 1,10,-1
 172 0 l 1,11,-1
 10 0 l 1,12,-1
 10 56 l 1,13,-1
 72 56 l 1,14,-1
 262 299 l 1,15,16
 227 307 227 307 197 323 c 128,-1,17
 167 339 167 339 144.5 363.5 c 128,-1,18
 122 388 122 388 109 421 c 128,-1,19
 96 454 96 454 96 496 c 0,20,21
 96 551 96 551 122 590.5 c 128,-1,22
 148 630 148 630 191.5 655 c 128,-1,23
 235 680 235 680 291.5 691.5 c 128,-1,24
 348 703 348 703 408 703 c 0,25,26
 431 703 431 703 464.5 701.5 c 128,-1,27
 498 700 498 700 533 700 c 2,28,-1
 678 700 l 1,0,-1
398 344 m 0,29,30
 418 344 418 344 439.5 345.5 c 128,-1,31
 461 347 461 347 475 350 c 1,32,-1
 475 642 l 1,33,34
 464 644 464 644 444 645.5 c 128,-1,35
 424 647 424 647 407 647 c 0,36,37
 322 647 322 647 271.5 612.5 c 128,-1,38
 221 578 221 578 221 496 c 0,39,40
 221 421 221 421 264.5 382.5 c 128,-1,41
 308 344 308 344 398 344 c 0,29,30
EndSplineSet
Position2: "'cpsp' Capital Spacing lookup 0 subtable" dx=40 dy=0 dh=80 dv=0
EndChar

StartChar: afii10066
Encoding: 1073 1073 362
Width: 608
Flags: W
LayerCount: 2
Fore
SplineSet
45 276 m 0,0,1
 45 410 45 410 71.5 497 c 128,-1,2
 98 584 98 584 149.5 634.5 c 128,-1,3
 201 685 201 685 277 704.5 c 128,-1,4
 353 724 353 724 452 724 c 1,5,-1
 452 760 l 1,6,-1
 516 760 l 1,7,-1
 516 628 l 1,8,-1
 379 628 l 2,9,10
 323 628 323 628 275 617.5 c 128,-1,11
 227 607 227 607 191 579.5 c 128,-1,12
 155 552 155 552 132 504.5 c 128,-1,13
 109 457 109 457 105 383 c 1,14,-1
 111 383 l 1,15,16
 138 438 138 438 197 475 c 128,-1,17
 256 512 256 512 336 512 c 0,18,19
 441 512 441 512 502 449.5 c 128,-1,20
 563 387 563 387 563 265 c 0,21,22
 563 204 563 204 545 153.5 c 128,-1,23
 527 103 527 103 492.5 66.5 c 128,-1,24
 458 30 458 30 408.5 10 c 128,-1,25
 359 -10 359 -10 296 -10 c 0,26,27
 240 -10 240 -10 193.5 9 c 128,-1,28
 147 28 147 28 114 64.5 c 128,-1,29
 81 101 81 101 63 154.5 c 128,-1,30
 45 208 45 208 45 276 c 0,0,1
158 275 m 0,31,32
 158 209 158 209 170 164 c 128,-1,33
 182 119 182 119 203.5 90.5 c 128,-1,34
 225 62 225 62 253.5 49.5 c 128,-1,35
 282 37 282 37 315 37 c 0,36,37
 381 37 381 37 415.5 92 c 128,-1,38
 450 147 450 147 450 252 c 0,39,40
 450 304 450 304 438.5 341 c 128,-1,41
 427 378 427 378 407.5 402 c 128,-1,42
 388 426 388 426 362 437 c 128,-1,43
 336 448 336 448 306 448 c 0,44,45
 255 448 255 448 221 432.5 c 128,-1,46
 187 417 187 417 169 397 c 1,47,48
 163 370 163 370 160.5 341 c 128,-1,49
 158 312 158 312 158 275 c 0,31,32
EndSplineSet
EndChar

StartChar: afii10067
Encoding: 1074 1074 363
Width: 595
Flags: W
LayerCount: 2
Fore
SplineSet
542 153 m 0,0,1
 542 111 542 111 522 81.5 c 128,-1,2
 502 52 502 52 468.5 33 c 128,-1,3
 435 14 435 14 390 5 c 128,-1,4
 345 -4 345 -4 296 -4 c 0,5,6
 260 -4 260 -4 238 -3.5 c 128,-1,7
 216 -3 216 -3 201.5 -2 c 128,-1,8
 187 -1 187 -1 176.5 -0.5 c 128,-1,9
 166 0 166 0 153 0 c 2,10,-1
 43 0 l 1,11,-1
 43 50 l 1,12,-1
 117 50 l 1,13,-1
 117 475 l 1,14,-1
 43 475 l 1,15,-1
 43 525 l 1,16,-1
 147 525 l 2,17,18
 173 525 173 525 192.5 525.5 c 128,-1,19
 212 526 212 526 229.5 527 c 128,-1,20
 247 528 247 528 263.5 528.5 c 128,-1,21
 280 529 280 529 301 529 c 0,22,23
 399 529 399 529 455 501.5 c 128,-1,24
 511 474 511 474 511 404 c 0,25,26
 511 379 511 379 499.5 358.5 c 128,-1,27
 488 338 488 338 469.5 323 c 128,-1,28
 451 308 451 308 428.5 298 c 128,-1,29
 406 288 406 288 385 284 c 1,30,31
 416 281 416 281 444.5 272 c 128,-1,32
 473 263 473 263 495 247 c 128,-1,33
 517 231 517 231 529.5 207.5 c 128,-1,34
 542 184 542 184 542 153 c 0,0,1
222 47 m 1,35,36
 238 44 238 44 261 43.5 c 128,-1,37
 284 43 284 43 300 43 c 0,38,39
 365 43 365 43 397 70 c 128,-1,40
 429 97 429 97 429 146 c 0,41,42
 429 197 429 197 390.5 222 c 128,-1,43
 352 247 352 247 291 247 c 2,44,-1
 222 247 l 1,45,-1
 222 47 l 1,35,36
222 288 m 1,46,-1
 345 288 l 1,47,48
 355 292 355 292 365.5 301.5 c 128,-1,49
 376 311 376 311 385 324 c 128,-1,50
 394 337 394 337 400 354.5 c 128,-1,51
 406 372 406 372 406 393 c 0,52,53
 406 444 406 444 373.5 463 c 128,-1,54
 341 482 341 482 278 482 c 0,55,56
 266 482 266 482 249.5 481.5 c 128,-1,57
 233 481 233 481 222 478 c 1,58,-1
 222 288 l 1,46,-1
EndSplineSet
EndChar

StartChar: afii10068
Encoding: 1075 1075 364
Width: 486
Flags: W
LayerCount: 2
Fore
SplineSet
461 525 m 1,0,-1
 461 350 l 1,1,-1
 397 350 l 1,2,-1
 397 455 l 1,3,-1
 377 475 l 1,4,-1
 222 475 l 1,5,-1
 222 50 l 1,6,-1
 323 50 l 1,7,-1
 323 0 l 1,8,-1
 43 0 l 1,9,-1
 43 50 l 1,10,-1
 117 50 l 1,11,-1
 117 475 l 1,12,-1
 43 475 l 1,13,-1
 43 525 l 1,14,-1
 461 525 l 1,0,-1
EndSplineSet
EndChar

StartChar: afii10069
Encoding: 1076 1076 365
Width: 645
Flags: W
LayerCount: 2
Fore
SplineSet
111 0 m 1,0,-1
 91 -20 l 1,1,-1
 91 -150 l 1,2,-1
 19 -150 l 1,3,-1
 19 50 l 1,4,-1
 86 50 l 1,5,6
 99 65 99 65 116 94 c 128,-1,7
 133 123 133 123 148 173 c 128,-1,8
 163 223 163 223 173.5 297 c 128,-1,9
 184 371 184 371 184 475 c 1,10,-1
 106 475 l 1,11,-1
 106 525 l 1,12,-1
 587 525 l 1,13,-1
 587 475 l 1,14,-1
 513 475 l 1,15,-1
 513 50 l 1,16,-1
 603 50 l 1,17,-1
 603 -150 l 1,18,-1
 531 -150 l 1,19,-1
 531 -20 l 1,20,-1
 511 0 l 1,21,-1
 111 0 l 1,0,-1
248 472 m 1,22,23
 247 377 247 377 237 307 c 128,-1,24
 227 237 227 237 213 186.5 c 128,-1,25
 199 136 199 136 183.5 103 c 128,-1,26
 168 70 168 70 156 50 c 1,27,-1
 408 50 l 1,28,-1
 408 472 l 1,29,-1
 248 472 l 1,22,23
EndSplineSet
EndChar

StartChar: afii10072
Encoding: 1078 1078 367
Width: 814
Flags: W
LayerCount: 2
Fore
SplineSet
594 525 m 1,0,-1
 793 525 l 1,1,-1
 793 475 l 1,2,-1
 730 475 l 1,3,-1
 584 292 l 1,4,-1
 767 50 l 1,5,-1
 814 50 l 1,6,-1
 814 0 l 1,7,-1
 678 0 l 1,8,-1
 511 244 l 1,9,-1
 457 244 l 1,10,-1
 457 50 l 1,11,-1
 516 50 l 1,12,-1
 516 0 l 1,13,-1
 298 0 l 1,14,-1
 298 50 l 1,15,-1
 357 50 l 1,16,-1
 357 244 l 1,17,-1
 298 244 l 1,18,-1
 137 0 l 1,19,-1
 0 0 l 1,20,-1
 0 50 l 1,21,-1
 52 50 l 1,22,-1
 228 288 l 1,23,-1
 74 475 l 1,24,-1
 22 475 l 1,25,-1
 22 525 l 1,26,-1
 218 525 l 1,27,-1
 218 475 l 1,28,-1
 159 475 l 1,29,-1
 301 284 l 1,30,-1
 357 284 l 1,31,-1
 357 475 l 1,32,-1
 298 475 l 1,33,-1
 298 525 l 1,34,-1
 516 525 l 1,35,-1
 516 475 l 1,36,-1
 457 475 l 1,37,-1
 457 284 l 1,38,-1
 513 284 l 1,39,-1
 653 475 l 1,40,-1
 594 475 l 1,41,-1
 594 525 l 1,0,-1
EndSplineSet
EndChar

StartChar: afii10074
Encoding: 1080 1080 369
Width: 691
Flags: W
LayerCount: 2
Fore
SplineSet
43 525 m 1,0,-1
 283 525 l 1,1,-1
 283 475 l 1,2,-1
 217 475 l 1,3,-1
 217 167 l 1,4,-1
 211 59 l 1,5,-1
 217 59 l 1,6,-1
 255 148 l 1,7,-1
 453 525 l 1,8,-1
 648 525 l 1,9,-1
 648 475 l 1,10,-1
 574 475 l 1,11,-1
 574 50 l 1,12,-1
 648 50 l 1,13,-1
 648 0 l 1,14,-1
 408 0 l 1,15,-1
 408 50 l 1,16,-1
 474 50 l 1,17,-1
 474 370 l 1,18,-1
 485 473 l 1,19,-1
 479 473 l 1,20,-1
 437 374 l 1,21,-1
 236 0 l 1,22,-1
 43 0 l 1,23,-1
 43 50 l 1,24,-1
 117 50 l 1,25,-1
 117 475 l 1,26,-1
 43 475 l 1,27,-1
 43 525 l 1,0,-1
EndSplineSet
EndChar

StartChar: afii10076
Encoding: 1082 1082 371
Width: 610
Flags: W
LayerCount: 2
Fore
SplineSet
367 525 m 1,0,-1
 574 525 l 1,1,-1
 574 475 l 1,2,-1
 510 475 l 1,3,-1
 355 296 l 1,4,-1
 559 50 l 1,5,-1
 609 50 l 1,6,-1
 609 0 l 1,7,-1
 465 0 l 1,8,-1
 279 248 l 1,9,-1
 222 248 l 1,10,-1
 222 50 l 1,11,-1
 294 50 l 1,12,-1
 294 0 l 1,13,-1
 43 0 l 1,14,-1
 43 50 l 1,15,-1
 117 50 l 1,16,-1
 117 475 l 1,17,-1
 43 475 l 1,18,-1
 43 525 l 1,19,-1
 278 525 l 1,20,-1
 278 475 l 1,21,-1
 222 475 l 1,22,-1
 222 289 l 1,23,-1
 274 289 l 1,24,-1
 430 475 l 1,25,-1
 367 475 l 1,26,-1
 367 525 l 1,0,-1
EndSplineSet
EndChar

StartChar: afii10077
Encoding: 1083 1083 372
Width: 612
Flags: W
LayerCount: 2
Fore
SplineSet
116 107 m 1,0,1
 135 132 135 132 148 173.5 c 128,-1,2
 161 215 161 215 169 265 c 128,-1,3
 177 315 177 315 180.5 369.5 c 128,-1,4
 184 424 184 424 184 475 c 1,5,-1
 106 475 l 1,6,-1
 106 525 l 1,7,-1
 569 525 l 1,8,-1
 569 475 l 1,9,-1
 495 475 l 1,10,-1
 495 50 l 1,11,-1
 569 50 l 1,12,-1
 569 0 l 1,13,-1
 324 0 l 1,14,-1
 324 50 l 1,15,-1
 390 50 l 1,16,-1
 390 475 l 1,17,-1
 244 475 l 1,18,19
 243 381 243 381 232.5 303 c 128,-1,20
 222 225 222 225 204 164.5 c 128,-1,21
 186 104 186 104 162.5 62.5 c 128,-1,22
 139 21 139 21 112 0 c 1,23,-1
 22 0 l 1,24,-1
 22 107 l 1,25,-1
 116 107 l 1,0,1
EndSplineSet
EndChar

StartChar: afii10078
Encoding: 1084 1084 373
Width: 828
Flags: W
LayerCount: 2
Fore
SplineSet
239 0 m 1,0,-1
 39 0 l 1,1,-1
 39 50 l 1,2,-1
 113 50 l 1,3,-1
 113 475 l 1,4,-1
 42 475 l 1,5,-1
 42 525 l 1,6,-1
 264 525 l 1,7,-1
 409 203 l 1,8,-1
 412 203 l 1,9,-1
 562 525 l 1,10,-1
 779 525 l 1,11,-1
 779 475 l 1,12,-1
 705 475 l 1,13,-1
 705 50 l 1,14,-1
 779 50 l 1,15,-1
 779 0 l 1,16,-1
 539 0 l 1,17,-1
 539 50 l 1,18,-1
 605 50 l 1,19,-1
 605 475 l 1,20,-1
 596 475 l 1,21,-1
 404 70 l 1,22,-1
 373 70 l 1,23,-1
 182 475 l 1,24,-1
 173 475 l 1,25,-1
 173 50 l 1,26,-1
 239 50 l 1,27,-1
 239 0 l 1,0,-1
EndSplineSet
EndChar

StartChar: afii10079
Encoding: 1085 1085 374
Width: 689
Flags: W
LayerCount: 2
Fore
SplineSet
288 0 m 1,0,-1
 43 0 l 1,1,-1
 43 50 l 1,2,-1
 117 50 l 1,3,-1
 117 475 l 1,4,-1
 43 475 l 1,5,-1
 43 525 l 1,6,-1
 288 525 l 1,7,-1
 288 475 l 1,8,-1
 222 475 l 1,9,-1
 222 293 l 1,10,-1
 467 293 l 1,11,-1
 467 475 l 1,12,-1
 401 475 l 1,13,-1
 401 525 l 1,14,-1
 646 525 l 1,15,-1
 646 475 l 1,16,-1
 572 475 l 1,17,-1
 572 50 l 1,18,-1
 646 50 l 1,19,-1
 646 0 l 1,20,-1
 401 0 l 1,21,-1
 401 50 l 1,22,-1
 467 50 l 1,23,-1
 467 239 l 1,24,-1
 222 239 l 1,25,-1
 222 50 l 1,26,-1
 288 50 l 1,27,-1
 288 0 l 1,0,-1
EndSplineSet
EndChar

StartChar: afii10081
Encoding: 1087 1087 376
Width: 688
Flags: W
LayerCount: 2
Fore
SplineSet
288 0 m 1,0,-1
 43 0 l 1,1,-1
 43 50 l 1,2,-1
 117 50 l 1,3,-1
 117 475 l 1,4,-1
 43 475 l 1,5,-1
 43 525 l 1,6,-1
 645 525 l 1,7,-1
 645 475 l 1,8,-1
 571 475 l 1,9,-1
 571 50 l 1,10,-1
 645 50 l 1,11,-1
 645 0 l 1,12,-1
 400 0 l 1,13,-1
 400 50 l 1,14,-1
 466 50 l 1,15,-1
 466 475 l 1,16,-1
 222 475 l 1,17,-1
 222 50 l 1,18,-1
 288 50 l 1,19,-1
 288 0 l 1,0,-1
EndSplineSet
EndChar

StartChar: afii10084
Encoding: 1090 1090 379
Width: 559
Flags: W
LayerCount: 2
Fore
SplineSet
406 0 m 1,0,-1
 153 0 l 1,1,-1
 153 50 l 1,2,-1
 227 50 l 1,3,-1
 227 475 l 1,4,-1
 125 475 l 1,5,-1
 105 455 l 1,6,-1
 105 350 l 1,7,-1
 41 350 l 1,8,-1
 41 525 l 1,9,-1
 518 525 l 1,10,-1
 518 350 l 1,11,-1
 454 350 l 1,12,-1
 454 455 l 1,13,-1
 434 475 l 1,14,-1
 332 475 l 1,15,-1
 332 50 l 1,16,-1
 406 50 l 1,17,-1
 406 0 l 1,0,-1
EndSplineSet
EndChar

StartChar: afii10086
Encoding: 1092 1092 381
Width: 816
Flags: W
LayerCount: 2
Fore
SplineSet
532 -200 m 1,0,-1
 284 -200 l 1,1,-1
 284 -150 l 1,2,-1
 358 -150 l 1,3,-1
 358 28 l 1,4,5
 341 10 341 10 316.5 -0.5 c 128,-1,6
 292 -11 292 -11 260 -11 c 0,7,8
 212 -11 212 -11 172.5 4 c 128,-1,9
 133 19 133 19 104.5 50 c 128,-1,10
 76 81 76 81 60.5 129 c 128,-1,11
 45 177 45 177 45 244 c 0,12,13
 45 319 45 319 61 374 c 128,-1,14
 77 429 77 429 106.5 464.5 c 128,-1,15
 136 500 136 500 178 517.5 c 128,-1,16
 220 535 220 535 272 535 c 0,17,18
 300 535 300 535 323.5 524 c 128,-1,19
 347 513 347 513 358 502 c 1,20,-1
 358 700 l 1,21,-1
 272 700 l 1,22,-1
 272 750 l 1,23,-1
 458 750 l 1,24,-1
 458 496 l 1,25,26
 475 513 475 513 503 524 c 128,-1,27
 531 535 531 535 562 535 c 0,28,29
 609 535 609 535 647.5 520.5 c 128,-1,30
 686 506 686 506 713.5 476.5 c 128,-1,31
 741 447 741 447 756 401.5 c 128,-1,32
 771 356 771 356 771 294 c 0,33,34
 771 214 771 214 754 156.5 c 128,-1,35
 737 99 737 99 707.5 61.5 c 128,-1,36
 678 24 678 24 637 6.5 c 128,-1,37
 596 -11 596 -11 548 -11 c 0,38,39
 521 -11 521 -11 496.5 -2 c 128,-1,40
 472 7 472 7 458 21 c 1,41,-1
 458 -150 l 1,42,-1
 532 -150 l 1,43,-1
 532 -200 l 1,0,-1
286 43 m 0,44,45
 304 43 304 43 324 48 c 128,-1,46
 344 53 344 53 359 67 c 1,47,-1
 359 463 l 1,48,49
 345 472 345 472 329 476.5 c 128,-1,50
 313 481 313 481 284 481 c 0,51,52
 256 481 256 481 232.5 470 c 128,-1,53
 209 459 209 459 191.5 435.5 c 128,-1,54
 174 412 174 412 164.5 375 c 128,-1,55
 155 338 155 338 155 285 c 0,56,57
 155 214 155 214 165 167.5 c 128,-1,58
 175 121 175 121 192.5 93 c 128,-1,59
 210 65 210 65 234 54 c 128,-1,60
 258 43 258 43 286 43 c 0,44,45
534 481 m 0,61,62
 511 481 511 481 491.5 476.5 c 128,-1,63
 472 472 472 472 457 459 c 1,64,-1
 457 62 l 1,65,66
 471 51 471 51 487.5 47 c 128,-1,67
 504 43 504 43 531 43 c 0,68,69
 556 43 556 43 579.5 54 c 128,-1,70
 603 65 603 65 621 90.5 c 128,-1,71
 639 116 639 116 650 157 c 128,-1,72
 661 198 661 198 661 257 c 0,73,74
 661 321 661 321 653 364.5 c 128,-1,75
 645 408 645 408 629 433.5 c 128,-1,76
 613 459 613 459 589 470 c 128,-1,77
 565 481 565 481 534 481 c 0,61,62
EndSplineSet
EndChar

StartChar: afii10088
Encoding: 1094 1094 383
Width: 691
Flags: W
LayerCount: 2
Fore
SplineSet
43 0 m 1,0,-1
 43 50 l 1,1,-1
 117 50 l 1,2,-1
 117 475 l 1,3,-1
 43 475 l 1,4,-1
 43 525 l 1,5,-1
 288 525 l 1,6,-1
 288 475 l 1,7,-1
 222 475 l 1,8,-1
 222 50 l 1,9,-1
 455 50 l 1,10,-1
 455 475 l 1,11,-1
 389 475 l 1,12,-1
 389 525 l 1,13,-1
 634 525 l 1,14,-1
 634 475 l 1,15,-1
 560 475 l 1,16,-1
 560 50 l 1,17,-1
 657 50 l 1,18,-1
 657 -150 l 1,19,-1
 593 -150 l 1,20,-1
 593 -20 l 1,21,-1
 573 0 l 1,22,-1
 43 0 l 1,0,-1
EndSplineSet
EndChar

StartChar: afii10089
Encoding: 1095 1095 384
Width: 629
Flags: W
LayerCount: 2
Fore
SplineSet
16 525 m 1,0,-1
 260 525 l 1,1,-1
 260 475 l 1,2,-1
 195 475 l 1,3,-1
 195 345 l 2,4,5
 195 297 195 297 217 267.5 c 128,-1,6
 239 238 239 238 291 238 c 0,7,8
 322 238 322 238 351.5 248 c 128,-1,9
 381 258 381 258 407 273 c 1,10,-1
 407 475 l 1,11,-1
 342 475 l 1,12,-1
 342 525 l 1,13,-1
 586 525 l 1,14,-1
 586 475 l 1,15,-1
 512 475 l 1,16,-1
 512 50 l 1,17,-1
 586 50 l 1,18,-1
 586 0 l 1,19,-1
 317 0 l 1,20,-1
 317 50 l 1,21,-1
 407 50 l 1,22,-1
 407 238 l 1,23,24
 380 211 380 211 342.5 193.5 c 128,-1,25
 305 176 305 176 250 176 c 0,26,27
 174 176 174 176 132 216 c 128,-1,28
 90 256 90 256 90 324 c 2,29,-1
 90 475 l 1,30,-1
 16 475 l 1,31,-1
 16 525 l 1,0,-1
EndSplineSet
EndChar

StartChar: afii10090
Encoding: 1096 1096 385
Width: 939
Flags: W
LayerCount: 2
Fore
SplineSet
717 50 m 1,0,-1
 717 475 l 1,1,-1
 656 475 l 1,2,-1
 656 525 l 1,3,-1
 896 525 l 1,4,-1
 896 475 l 1,5,-1
 822 475 l 1,6,-1
 822 50 l 1,7,-1
 896 50 l 1,8,-1
 896 0 l 1,9,-1
 43 0 l 1,10,-1
 43 50 l 1,11,-1
 117 50 l 1,12,-1
 117 475 l 1,13,-1
 43 475 l 1,14,-1
 43 525 l 1,15,-1
 281 525 l 1,16,-1
 281 475 l 1,17,-1
 222 475 l 1,18,-1
 222 50 l 1,19,-1
 417 50 l 1,20,-1
 417 475 l 1,21,-1
 358 475 l 1,22,-1
 358 525 l 1,23,-1
 581 525 l 1,24,-1
 581 475 l 1,25,-1
 522 475 l 1,26,-1
 522 50 l 1,27,-1
 717 50 l 1,0,-1
EndSplineSet
EndChar

StartChar: afii10091
Encoding: 1097 1097 386
Width: 952
Flags: W
LayerCount: 2
Fore
SplineSet
43 0 m 1,0,-1
 43 50 l 1,1,-1
 117 50 l 1,2,-1
 117 475 l 1,3,-1
 43 475 l 1,4,-1
 43 525 l 1,5,-1
 281 525 l 1,6,-1
 281 475 l 1,7,-1
 222 475 l 1,8,-1
 222 50 l 1,9,-1
 417 50 l 1,10,-1
 417 475 l 1,11,-1
 358 475 l 1,12,-1
 358 525 l 1,13,-1
 581 525 l 1,14,-1
 581 475 l 1,15,-1
 522 475 l 1,16,-1
 522 50 l 1,17,-1
 717 50 l 1,18,-1
 717 475 l 1,19,-1
 656 475 l 1,20,-1
 656 525 l 1,21,-1
 896 525 l 1,22,-1
 896 475 l 1,23,-1
 822 475 l 1,24,-1
 822 50 l 1,25,-1
 919 50 l 1,26,-1
 919 -150 l 1,27,-1
 855 -150 l 1,28,-1
 855 -22 l 1,29,-1
 835 0 l 1,30,-1
 43 0 l 1,0,-1
EndSplineSet
EndChar

StartChar: afii10092
Encoding: 1098 1098 387
Width: 651
Flags: W
LayerCount: 2
Fore
SplineSet
300 47 m 1,0,1
 314 46 314 46 328.5 44.5 c 128,-1,2
 343 43 343 43 358 43 c 0,3,4
 423 43 423 43 459.5 73 c 128,-1,5
 496 103 496 103 496 168 c 0,6,7
 496 198 496 198 486 218 c 128,-1,8
 476 238 476 238 459 250.5 c 128,-1,9
 442 263 442 263 419.5 268 c 128,-1,10
 397 273 397 273 372 273 c 0,11,12
 353 273 353 273 335 272 c 128,-1,13
 317 271 317 271 300 268 c 1,14,-1
 300 47 l 1,0,1
367 525 m 1,15,-1
 367 475 l 1,16,-1
 300 475 l 1,17,-1
 300 312 l 1,18,19
 319 314 319 314 343 317 c 128,-1,20
 367 320 367 320 412 320 c 0,21,22
 504 320 504 320 556.5 283 c 128,-1,23
 609 246 609 246 609 167 c 0,24,25
 609 125 609 125 592 93.5 c 128,-1,26
 575 62 575 62 544.5 40 c 128,-1,27
 514 18 514 18 471.5 7 c 128,-1,28
 429 -4 429 -4 379 -4 c 0,29,30
 348 -4 348 -4 309 -2 c 128,-1,31
 270 0 270 0 227 0 c 2,32,-1
 121 0 l 1,33,-1
 121 50 l 1,34,-1
 195 50 l 1,35,-1
 195 475 l 1,36,-1
 103 475 l 1,37,-1
 83 455 l 1,38,-1
 83 351 l 1,39,-1
 19 351 l 1,40,-1
 19 525 l 1,41,-1
 367 525 l 1,15,-1
EndSplineSet
EndChar

StartChar: afii10093
Encoding: 1099 1099 388
Width: 842
Flags: W
LayerCount: 2
Fore
SplineSet
222 312 m 1,0,1
 240 314 240 314 264 317 c 128,-1,2
 288 320 288 320 333 320 c 0,3,4
 418 320 418 320 468.5 283 c 128,-1,5
 519 246 519 246 519 167 c 0,6,7
 519 125 519 125 503 93.5 c 128,-1,8
 487 62 487 62 458 40 c 128,-1,9
 429 18 429 18 388.5 7 c 128,-1,10
 348 -4 348 -4 299 -4 c 0,11,12
 269 -4 269 -4 229.5 -2 c 128,-1,13
 190 0 190 0 147 0 c 2,14,-1
 43 0 l 1,15,-1
 43 50 l 1,16,-1
 117 50 l 1,17,-1
 117 475 l 1,18,-1
 43 475 l 1,19,-1
 43 525 l 1,20,-1
 289 525 l 1,21,-1
 289 475 l 1,22,-1
 222 475 l 1,23,-1
 222 312 l 1,0,1
222 47 m 1,24,25
 236 46 236 46 251 44.5 c 128,-1,26
 266 43 266 43 280 43 c 0,27,28
 406 43 406 43 406 168 c 0,29,30
 406 198 406 198 396 218 c 128,-1,31
 386 238 386 238 370 250 c 128,-1,32
 354 262 354 262 332.5 267.5 c 128,-1,33
 311 273 311 273 289 273 c 0,34,35
 274 273 274 273 256.5 272 c 128,-1,36
 239 271 239 271 222 268 c 1,37,-1
 222 47 l 1,24,25
799 0 m 1,38,-1
 554 0 l 1,39,-1
 554 50 l 1,40,-1
 620 50 l 1,41,-1
 620 475 l 1,42,-1
 553 475 l 1,43,-1
 553 525 l 1,44,-1
 799 525 l 1,45,-1
 799 475 l 1,46,-1
 725 475 l 1,47,-1
 725 50 l 1,48,-1
 799 50 l 1,49,-1
 799 0 l 1,38,-1
EndSplineSet
EndChar

StartChar: afii10094
Encoding: 1100 1100 389
Width: 572
Flags: W
LayerCount: 2
Fore
SplineSet
222 312 m 1,0,1
 240 314 240 314 264.5 317 c 128,-1,2
 289 320 289 320 334 320 c 0,3,4
 426 320 426 320 478 283 c 128,-1,5
 530 246 530 246 530 167 c 0,6,7
 530 125 530 125 513 93.5 c 128,-1,8
 496 62 496 62 465.5 40 c 128,-1,9
 435 18 435 18 393 7 c 128,-1,10
 351 -4 351 -4 300 -4 c 0,11,12
 270 -4 270 -4 230 -2 c 128,-1,13
 190 0 190 0 147 0 c 2,14,-1
 43 0 l 1,15,-1
 43 50 l 1,16,-1
 117 50 l 1,17,-1
 117 475 l 1,18,-1
 43 475 l 1,19,-1
 43 525 l 1,20,-1
 289 525 l 1,21,-1
 289 475 l 1,22,-1
 222 475 l 1,23,-1
 222 312 l 1,0,1
222 47 m 1,24,25
 236 46 236 46 251 44.5 c 128,-1,26
 266 43 266 43 280 43 c 0,27,28
 344 43 344 43 380.5 73 c 128,-1,29
 417 103 417 103 417 168 c 0,30,31
 417 198 417 198 407 218 c 128,-1,32
 397 238 397 238 380 250 c 128,-1,33
 363 262 363 262 340 267.5 c 128,-1,34
 317 273 317 273 292 273 c 0,35,36
 275 273 275 273 257 272 c 128,-1,37
 239 271 239 271 222 268 c 1,38,-1
 222 47 l 1,24,25
EndSplineSet
EndChar
